STARTFONT 2.2
FONT -FontForge-SimSun-Book-R-Normal--12-120-75-75-P-119-ISO10646-1
SIZE 12 75 75
FONTBOUNDINGBOX 11 12 0 -2
METRICSSET 2
SWIDTH 1000 0
DWIDTH 12 0
SWIDTH1 1000 0
DWIDTH1 12 0
VVECTOR 6,10
COMMENT "Generated by fontforge, http://fontforge.sourceforge.net"
COMMENT "(c) Copyright ZHONGYI Electronic Co. 2001"
STARTPROPERTIES 37
FOUNDRY "FontForge"
FAMILY_NAME "SimSun"
WEIGHT_NAME "Book"
SLANT "R"
SETWIDTH_NAME "Normal"
ADD_STYLE_NAME ""
PIXEL_SIZE 12
POINT_SIZE 120
RESOLUTION_X 75
RESOLUTION_Y 75
SPACING "P"
AVERAGE_WIDTH 119
CHARSET_REGISTRY "ISO10646"
CHARSET_ENCODING "1"
FONTNAME_REGISTRY ""
CHARSET_COLLECTIONS "ASCII ISOLatin1Encoding ISO8859-5 JISX0208.1997 GB2312.1980 BIG5 ISO10646-1"
FONT_NAME "SimSun"
FACE_NAME "SimSun"
COPYRIGHT "(c) Copyright ZHONGYI Electronic Co. 2001"
FONT_VERSION "5.15"
FONT_ASCENT 10
FONT_DESCENT 2
UNDERLINE_POSITION -1
UNDERLINE_THICKNESS 1
RAW_ASCENT 859
RAW_DESCENT 140
RELATIVE_WEIGHT 40
RELATIVE_SETWIDTH 50
SUPERSCRIPT_X 0
SUPERSCRIPT_Y 6
SUPERSCRIPT_SIZE 6
SUBSCRIPT_X 0
SUBSCRIPT_Y 0
SUBSCRIPT_SIZE 6
FIGURE_WIDTH -1
AVG_LOWERCASE_WIDTH 103
AVG_UPPERCASE_WIDTH 120
ENDPROPERTIES
CHARS 28428
STARTCHAR currency
ENCODING 164
BBX 9 9 1 0
BITMAP
8080
5D00
2200
4100
4100
4100
2200
5D00
8080
ENDCHAR
STARTCHAR section
ENCODING 167
BBX 4 11 3 -1
BITMAP
60
90
80
60
90
90
90
60
10
90
60
ENDCHAR
STARTCHAR dieresis
ENCODING 168
BBX 6 2 2 5
BITMAP
CC
CC
ENDCHAR
STARTCHAR degree
ENCODING 176
BBX 4 4 1 5
BITMAP
60
90
90
60
ENDCHAR
STARTCHAR plusminus
ENCODING 177
BBX 7 8 2 0
BITMAP
10
10
FE
10
10
00
00
FE
ENDCHAR
STARTCHAR periodcentered
ENCODING 183
BBX 2 2 5 3
BITMAP
C0
C0
ENDCHAR
STARTCHAR multiply
ENCODING 215
BBX 7 7 2 1
BITMAP
82
44
28
10
28
44
82
ENDCHAR
STARTCHAR agrave
ENCODING 224
SWIDTH 500 0
DWIDTH 6 0
BBX 5 9 0 1
BITMAP
40
20
00
70
90
90
90
B0
58
ENDCHAR
STARTCHAR aacute
ENCODING 225
SWIDTH 500 0
DWIDTH 6 0
BBX 5 9 0 1
BITMAP
20
40
00
70
90
90
90
B0
58
ENDCHAR
STARTCHAR egrave
ENCODING 232
SWIDTH 500 0
DWIDTH 6 0
BBX 5 9 0 1
BITMAP
40
20
00
70
88
F8
80
88
70
ENDCHAR
STARTCHAR eacute
ENCODING 233
SWIDTH 500 0
DWIDTH 6 0
BBX 5 9 0 1
BITMAP
10
20
00
70
88
F8
80
88
70
ENDCHAR
STARTCHAR ecircumflex
ENCODING 234
SWIDTH 500 0
DWIDTH 6 0
BBX 5 9 0 1
BITMAP
20
50
88
70
88
F8
80
88
70
ENDCHAR
STARTCHAR igrave
ENCODING 236
SWIDTH 500 0
DWIDTH 6 0
BBX 2 9 1 1
BITMAP
80
40
00
40
40
40
40
40
40
ENDCHAR
STARTCHAR iacute
ENCODING 237
SWIDTH 500 0
DWIDTH 6 0
BBX 2 9 2 1
BITMAP
40
80
00
80
80
80
80
80
80
ENDCHAR
STARTCHAR ograve
ENCODING 242
SWIDTH 500 0
DWIDTH 6 0
BBX 5 9 0 1
BITMAP
40
20
00
70
88
88
88
88
70
ENDCHAR
STARTCHAR oacute
ENCODING 243
SWIDTH 500 0
DWIDTH 6 0
BBX 5 9 0 1
BITMAP
10
20
00
70
88
88
88
88
70
ENDCHAR
STARTCHAR divide
ENCODING 247
BBX 8 7 1 1
BITMAP
18
18
00
FF
00
18
18
ENDCHAR
STARTCHAR ugrave
ENCODING 249
SWIDTH 500 0
DWIDTH 6 0
BBX 5 9 0 1
BITMAP
40
20
00
88
88
88
88
98
68
ENDCHAR
STARTCHAR uacute
ENCODING 250
SWIDTH 500 0
DWIDTH 6 0
BBX 5 9 0 1
BITMAP
10
20
00
88
88
88
88
98
68
ENDCHAR
STARTCHAR udieresis
ENCODING 252
SWIDTH 500 0
DWIDTH 6 0
BBX 5 7 0 1
BITMAP
88
00
88
88
88
98
68
ENDCHAR
STARTCHAR amacron
ENCODING 257
SWIDTH 500 0
DWIDTH 6 0
BBX 5 8 0 1
BITMAP
70
00
70
90
90
90
B0
58
ENDCHAR
STARTCHAR emacron
ENCODING 275
SWIDTH 500 0
DWIDTH 6 0
BBX 5 8 0 1
BITMAP
70
00
70
88
F8
80
88
70
ENDCHAR
STARTCHAR ecaron
ENCODING 283
SWIDTH 500 0
DWIDTH 6 0
BBX 5 9 0 1
BITMAP
50
20
00
70
88
F8
80
88
70
ENDCHAR
STARTCHAR imacron
ENCODING 299
SWIDTH 500 0
DWIDTH 6 0
BBX 3 8 1 1
BITMAP
E0
00
40
40
40
40
40
40
ENDCHAR
STARTCHAR nacute
ENCODING 324
SWIDTH 500 0
DWIDTH 6 0
BBX 4 9 0 1
BITMAP
20
40
00
60
90
90
90
90
90
ENDCHAR
STARTCHAR ncaron
ENCODING 328
SWIDTH 500 0
DWIDTH 6 0
BBX 4 9 0 1
BITMAP
50
20
00
60
90
90
90
90
90
ENDCHAR
STARTCHAR omacron
ENCODING 333
SWIDTH 500 0
DWIDTH 6 0
BBX 5 8 0 1
BITMAP
70
00
70
88
88
88
88
70
ENDCHAR
STARTCHAR umacron
ENCODING 363
SWIDTH 500 0
DWIDTH 6 0
BBX 5 8 0 1
BITMAP
70
00
88
88
88
88
98
68
ENDCHAR
STARTCHAR uni01CE
ENCODING 462
SWIDTH 500 0
DWIDTH 6 0
BBX 5 9 0 1
BITMAP
50
20
00
70
90
90
90
B0
58
ENDCHAR
STARTCHAR uni01D0
ENCODING 464
SWIDTH 500 0
DWIDTH 6 0
BBX 3 9 1 1
BITMAP
A0
40
00
40
40
40
40
40
40
ENDCHAR
STARTCHAR uni01D2
ENCODING 466
SWIDTH 500 0
DWIDTH 6 0
BBX 5 9 0 1
BITMAP
50
20
00
70
88
88
88
88
70
ENDCHAR
STARTCHAR uni01D4
ENCODING 468
SWIDTH 500 0
DWIDTH 6 0
BBX 5 9 0 1
BITMAP
50
20
00
88
88
88
88
98
68
ENDCHAR
STARTCHAR uni01D6
ENCODING 470
SWIDTH 500 0
DWIDTH 6 0
BBX 5 9 0 1
BITMAP
70
00
88
00
88
88
88
98
68
ENDCHAR
STARTCHAR uni01D8
ENCODING 472
SWIDTH 500 0
DWIDTH 6 0
BBX 5 9 0 1
BITMAP
10
20
88
00
88
88
88
98
68
ENDCHAR
STARTCHAR uni01DA
ENCODING 474
SWIDTH 500 0
DWIDTH 6 0
BBX 5 9 0 1
BITMAP
50
20
88
00
88
88
88
98
68
ENDCHAR
STARTCHAR uni01DC
ENCODING 476
SWIDTH 500 0
DWIDTH 6 0
BBX 5 9 0 1
BITMAP
40
20
88
00
88
88
88
98
68
ENDCHAR
STARTCHAR uni01F9
ENCODING 505
SWIDTH 500 0
DWIDTH 6 0
BBX 4 9 0 1
BITMAP
40
20
00
60
90
90
90
90
90
ENDCHAR
STARTCHAR uni0251
ENCODING 593
SWIDTH 500 0
DWIDTH 6 0
BBX 5 6 0 1
BITMAP
70
90
90
90
B0
58
ENDCHAR
STARTCHAR uni0261
ENCODING 609
SWIDTH 500 0
DWIDTH 6 0
BBX 5 9 0 1
BITMAP
08
70
88
70
20
70
88
88
70
ENDCHAR
STARTCHAR caron
ENCODING 711
BBX 5 3 3 6
BITMAP
88
50
20
ENDCHAR
STARTCHAR uni02C9
ENCODING 713
BBX 7 1 2 7
BITMAP
FE
ENDCHAR
STARTCHAR uni02CA
ENCODING 714
BBX 4 5 1 5
BITMAP
20
30
60
40
80
ENDCHAR
STARTCHAR uni02CB
ENCODING 715
BBX 4 4 6 6
BITMAP
C0
60
20
10
ENDCHAR
STARTCHAR dotaccent
ENCODING 729
BBX 2 2 5 4
BITMAP
C0
C0
ENDCHAR
STARTCHAR Alpha
ENCODING 913
BBX 9 8 1 1
BITMAP
0800
1C00
1400
2600
3E00
4300
4300
E780
ENDCHAR
STARTCHAR Beta
ENCODING 914
BBX 8 8 1 1
BITMAP
FE
63
63
7E
63
63
63
FE
ENDCHAR
STARTCHAR Gamma
ENCODING 915
BBX 8 8 1 1
BITMAP
FF
61
60
60
60
60
60
F0
ENDCHAR
STARTCHAR uni0394
ENCODING 916
BBX 9 8 1 1
BITMAP
0800
1C00
1C00
2600
2600
4300
4300
FF80
ENDCHAR
STARTCHAR Epsilon
ENCODING 917
BBX 8 8 1 1
BITMAP
FF
61
64
7C
64
60
61
FF
ENDCHAR
STARTCHAR Zeta
ENCODING 918
BBX 7 8 2 1
BITMAP
FE
86
0C
18
30
62
C2
FE
ENDCHAR
STARTCHAR Eta
ENCODING 919
BBX 9 8 1 1
BITMAP
F780
6300
6300
7F00
6300
6300
6300
F780
ENDCHAR
STARTCHAR Theta
ENCODING 920
BBX 8 8 1 1
BITMAP
3C
42
A5
BD
A5
81
42
3C
ENDCHAR
STARTCHAR Iota
ENCODING 921
BBX 4 8 3 1
BITMAP
F0
60
60
60
60
60
60
F0
ENDCHAR
STARTCHAR Kappa
ENCODING 922
BBX 9 8 0 1
BITMAP
F300
6200
6400
6800
7800
6C00
6600
F380
ENDCHAR
STARTCHAR Lambda
ENCODING 923
BBX 9 8 1 1
BITMAP
0800
1C00
1400
2600
2200
4300
4300
E780
ENDCHAR
STARTCHAR Mu
ENCODING 924
BBX 11 8 0 1
BITMAP
C060
60C0
71C0
7AC0
6CC0
64C0
60C0
F1E0
ENDCHAR
STARTCHAR Nu
ENCODING 925
BBX 10 8 0 1
BITMAP
C3C0
6180
7180
6980
6580
6380
6180
F080
ENDCHAR
STARTCHAR Xi
ENCODING 926
BBX 7 8 2 1
BITMAP
FE
82
44
7C
44
00
82
FE
ENDCHAR
STARTCHAR Omicron
ENCODING 927
BBX 8 8 1 1
BITMAP
3C
66
C3
C3
C3
C3
66
3C
ENDCHAR
STARTCHAR Pi
ENCODING 928
BBX 9 8 1 1
BITMAP
FF80
6300
6300
6300
6300
6300
6300
F780
ENDCHAR
STARTCHAR Rho
ENCODING 929
BBX 8 8 1 1
BITMAP
FE
63
63
63
7E
60
60
F0
ENDCHAR
STARTCHAR Sigma
ENCODING 931
BBX 8 8 1 1
BITMAP
FF
61
30
18
10
21
41
FF
ENDCHAR
STARTCHAR Tau
ENCODING 932
BBX 8 8 1 1
BITMAP
FF
99
18
18
18
18
18
3C
ENDCHAR
STARTCHAR Upsilon
ENCODING 933
BBX 7 8 2 1
BITMAP
CC
32
30
30
30
30
30
78
ENDCHAR
STARTCHAR Phi
ENCODING 934
BBX 8 8 1 1
BITMAP
3C
18
7E
99
99
7E
18
3C
ENDCHAR
STARTCHAR Chi
ENCODING 935
BBX 9 8 1 1
BITMAP
F700
6200
3400
1800
1C00
2600
4300
E780
ENDCHAR
STARTCHAR Psi
ENCODING 936
BBX 10 8 1 1
BITMAP
9E40
4C80
4C80
4C80
3F00
0C00
0C00
1E00
ENDCHAR
STARTCHAR uni03A9
ENCODING 937
BBX 9 8 1 1
BITMAP
1C00
2200
6300
6300
6300
2200
B680
F780
ENDCHAR
STARTCHAR alpha
ENCODING 945
BBX 7 6 2 2
BITMAP
74
88
88
88
98
66
ENDCHAR
STARTCHAR beta
ENCODING 946
BBX 5 9 3 0
BITMAP
60
90
A0
90
88
C8
B0
80
80
ENDCHAR
STARTCHAR gamma
ENCODING 947
BBX 7 7 2 0
BITMAP
C2
62
26
2C
18
10
10
ENDCHAR
STARTCHAR delta
ENCODING 948
BBX 5 9 3 1
BITMAP
60
90
40
20
50
88
88
88
70
ENDCHAR
STARTCHAR epsilon
ENCODING 949
BBX 5 8 3 0
BITMAP
70
80
80
70
80
80
88
70
ENDCHAR
STARTCHAR zeta
ENCODING 950
BBX 5 11 3 -1
BITMAP
30
40
40
38
40
80
80
80
70
08
10
ENDCHAR
STARTCHAR eta
ENCODING 951
BBX 6 8 2 0
BITMAP
58
A4
24
24
24
04
04
04
ENDCHAR
STARTCHAR theta
ENCODING 952
BBX 5 9 3 0
BITMAP
70
88
88
88
F8
88
88
88
70
ENDCHAR
STARTCHAR iota
ENCODING 953
BBX 3 7 4 1
BITMAP
40
C0
40
40
40
60
40
ENDCHAR
STARTCHAR kappa
ENCODING 954
BBX 6 7 2 1
BITMAP
44
C8
50
60
50
48
44
ENDCHAR
STARTCHAR lambda
ENCODING 955
BBX 9 8 1 1
BITMAP
C000
2000
1000
2800
2400
4400
4280
8180
ENDCHAR
STARTCHAR uni03BC
ENCODING 956
BBX 7 8 3 0
BITMAP
88
88
88
88
98
EA
8C
80
ENDCHAR
STARTCHAR nu
ENCODING 957
BBX 7 6 1 1
BITMAP
C2
42
24
24
18
10
ENDCHAR
STARTCHAR xi
ENCODING 958
BBX 5 11 3 -1
BITMAP
60
80
70
80
70
40
80
80
70
08
10
ENDCHAR
STARTCHAR omicron
ENCODING 959
BBX 6 7 2 1
BITMAP
30
48
84
84
84
48
30
ENDCHAR
STARTCHAR pi
ENCODING 960
BBX 7 6 2 2
BITMAP
FE
48
48
48
48
84
ENDCHAR
STARTCHAR rho
ENCODING 961
BBX 6 8 2 0
BITMAP
30
48
84
84
C4
B8
80
80
ENDCHAR
STARTCHAR sigma
ENCODING 963
BBX 7 7 2 1
BITMAP
3E
48
84
84
84
48
30
ENDCHAR
STARTCHAR tau
ENCODING 964
BBX 7 6 2 1
BITMAP
7E
90
10
10
14
18
ENDCHAR
STARTCHAR upsilon
ENCODING 965
BBX 6 7 2 1
BITMAP
48
C4
44
44
44
44
38
ENDCHAR
STARTCHAR phi
ENCODING 966
BBX 7 10 2 -1
BITMAP
10
10
10
7C
92
92
92
7C
10
10
ENDCHAR
STARTCHAR chi
ENCODING 967
BBX 7 7 2 0
BITMAP
C2
24
28
10
28
48
86
ENDCHAR
STARTCHAR psi
ENCODING 968
BBX 9 9 0 0
BITMAP
0400
0400
4500
A480
2480
2480
1F00
0400
0400
ENDCHAR
STARTCHAR omega
ENCODING 969
BBX 7 6 2 1
BITMAP
44
92
92
92
92
6C
ENDCHAR
STARTCHAR uni0401
ENCODING 1025
BBX 8 9 1 1
BITMAP
22
00
FF
61
64
7C
64
61
FF
ENDCHAR
STARTCHAR uni0410
ENCODING 1040
BBX 9 8 1 1
BITMAP
0800
1C00
1400
2600
3E00
4300
4300
E780
ENDCHAR
STARTCHAR uni0411
ENCODING 1041
BBX 8 8 1 1
BITMAP
FF
61
60
7E
63
63
63
FE
ENDCHAR
STARTCHAR uni0412
ENCODING 1042
BBX 8 8 1 1
BITMAP
FE
63
63
7E
63
63
63
FE
ENDCHAR
STARTCHAR uni0413
ENCODING 1043
BBX 8 8 1 1
BITMAP
FF
63
61
60
60
60
60
F0
ENDCHAR
STARTCHAR uni0414
ENCODING 1044
BBX 8 8 2 1
BITMAP
FF
26
26
26
26
46
FF
81
ENDCHAR
STARTCHAR uni0415
ENCODING 1045
BBX 8 8 1 1
BITMAP
FF
61
64
7C
64
60
61
FF
ENDCHAR
STARTCHAR uni0416
ENCODING 1046
BBX 11 8 0 1
BITMAP
9E40
4C80
4C80
2D00
1F00
3D80
6CC0
DE60
ENDCHAR
STARTCHAR uni0417
ENCODING 1047
BBX 7 8 2 1
BITMAP
BC
C6
86
18
04
06
86
7C
ENDCHAR
STARTCHAR uni0418
ENCODING 1048
BBX 10 8 0 1
BITMAP
F3C0
6180
6380
6580
6980
7180
6180
F3C0
ENDCHAR
STARTCHAR uni0419
ENCODING 1049
BBX 10 9 0 1
BITMAP
1200
0C00
F3C0
6380
6580
6980
7180
6180
F3C0
ENDCHAR
STARTCHAR uni041A
ENCODING 1050
BBX 9 8 1 1
BITMAP
F300
6480
6400
7800
6C00
6600
6300
F380
ENDCHAR
STARTCHAR uni041B
ENCODING 1051
BBX 9 8 0 1
BITMAP
3F80
1300
1300
1300
1300
1300
9300
6780
ENDCHAR
STARTCHAR uni041C
ENCODING 1052
BBX 11 8 0 1
BITMAP
C060
60C0
71C0
7AC0
6CC0
64C0
60C0
F1E0
ENDCHAR
STARTCHAR uni041D
ENCODING 1053
BBX 9 8 1 1
BITMAP
F780
6300
6300
7F00
6300
6300
6300
F780
ENDCHAR
STARTCHAR uni041E
ENCODING 1054
BBX 8 8 1 1
BITMAP
3C
66
C3
C3
C3
C3
66
3C
ENDCHAR
STARTCHAR uni041F
ENCODING 1055
BBX 9 8 1 1
BITMAP
FF80
6300
6300
6300
6300
6300
6300
F780
ENDCHAR
STARTCHAR uni0420
ENCODING 1056
BBX 8 8 1 1
BITMAP
FE
63
63
63
7E
60
60
F0
ENDCHAR
STARTCHAR uni0421
ENCODING 1057
BBX 8 8 1 1
BITMAP
3D
63
C1
C0
C0
C0
61
3E
ENDCHAR
STARTCHAR uni0422
ENCODING 1058
BBX 8 8 1 1
BITMAP
FF
99
18
18
18
18
18
3C
ENDCHAR
STARTCHAR uni0423
ENCODING 1059
BBX 9 8 1 1
BITMAP
F180
6100
3200
1A00
0C00
0800
9000
6000
ENDCHAR
STARTCHAR uni0424
ENCODING 1060
BBX 8 8 1 1
BITMAP
3C
18
7E
DB
DB
7E
18
3C
ENDCHAR
STARTCHAR uni0425
ENCODING 1061
BBX 9 8 1 1
BITMAP
F700
6200
3400
1800
1C00
2600
4300
E780
ENDCHAR
STARTCHAR uni0426
ENCODING 1062
BBX 9 9 1 0
BITMAP
F780
6300
6300
6300
6300
6300
6300
FF80
0080
ENDCHAR
STARTCHAR uni0427
ENCODING 1063
BBX 9 8 1 1
BITMAP
F780
6300
6300
6300
3F00
0300
0300
0780
ENDCHAR
STARTCHAR uni0428
ENCODING 1064
BBX 10 8 0 1
BITMAP
6D80
6D80
6D80
6D80
6D80
6D80
6D80
FFC0
ENDCHAR
STARTCHAR uni0429
ENCODING 1065
BBX 11 9 0 0
BITMAP
6D80
6D80
6D80
6D80
6D80
6D80
6D80
FFE0
0020
ENDCHAR
STARTCHAR uni042A
ENCODING 1066
BBX 9 8 1 1
BITMAP
FC00
9800
1800
1F00
1980
1980
1980
3F00
ENDCHAR
STARTCHAR uni042B
ENCODING 1067
BBX 9 8 1 1
BITMAP
F380
6100
6100
7900
6500
6500
6500
FB80
ENDCHAR
STARTCHAR uni042C
ENCODING 1068
BBX 8 8 1 1
BITMAP
F0
60
60
7E
63
63
63
FE
ENDCHAR
STARTCHAR uni042D
ENCODING 1069
BBX 7 8 2 1
BITMAP
B8
C4
86
26
3E
26
84
78
ENDCHAR
STARTCHAR uni042E
ENCODING 1070
BBX 10 8 0 1
BITMAP
F300
6480
6CC0
7CC0
6CC0
6CC0
6480
F300
ENDCHAR
STARTCHAR uni042F
ENCODING 1071
BBX 9 8 1 1
BITMAP
3F80
6300
6300
3F00
1B00
3300
6300
F780
ENDCHAR
STARTCHAR uni0430
ENCODING 1072
BBX 7 7 2 1
BITMAP
70
88
78
88
88
7A
0C
ENDCHAR
STARTCHAR uni0431
ENCODING 1073
BBX 6 9 2 1
BITMAP
04
78
80
80
F0
88
88
88
70
ENDCHAR
STARTCHAR uni0432
ENCODING 1074
BBX 5 7 2 1
BITMAP
F0
48
48
70
48
48
F0
ENDCHAR
STARTCHAR uni0433
ENCODING 1075
BBX 6 7 2 1
BITMAP
FC
44
40
40
40
40
E0
ENDCHAR
STARTCHAR uni0434
ENCODING 1076
BBX 8 8 2 0
BITMAP
7E
24
24
24
24
24
7E
81
ENDCHAR
STARTCHAR uni0435
ENCODING 1077
BBX 6 6 2 1
BITMAP
78
84
FC
80
84
78
ENDCHAR
STARTCHAR uni0436
ENCODING 1078
BBX 7 7 2 1
BITMAP
92
54
54
38
54
54
92
ENDCHAR
STARTCHAR uni0437
ENCODING 1079
BBX 5 7 3 1
BITMAP
70
88
08
30
08
88
70
ENDCHAR
STARTCHAR uni0438
ENCODING 1080
BBX 8 7 1 1
BITMAP
E7
42
46
4A
52
62
E7
ENDCHAR
STARTCHAR uni0439
ENCODING 1081
BBX 8 9 1 1
BITMAP
24
18
E7
42
46
4A
52
62
E7
ENDCHAR
STARTCHAR uni043A
ENCODING 1082
BBX 6 7 2 1
BITMAP
EC
48
50
60
50
48
EC
ENDCHAR
STARTCHAR uni043B
ENCODING 1083
BBX 7 7 2 1
BITMAP
7E
24
24
24
24
A4
4E
ENDCHAR
STARTCHAR uni043C
ENCODING 1084
BBX 9 7 1 1
BITMAP
C180
6300
6300
5500
4900
4100
E380
ENDCHAR
STARTCHAR uni043D
ENCODING 1085
BBX 7 7 2 1
BITMAP
EE
44
44
7C
44
44
EE
ENDCHAR
STARTCHAR uni043E
ENCODING 1086
BBX 6 7 2 1
BITMAP
30
48
84
84
84
48
30
ENDCHAR
STARTCHAR uni043F
ENCODING 1087
BBX 7 7 2 1
BITMAP
FE
44
44
44
44
44
EE
ENDCHAR
STARTCHAR uni0440
ENCODING 1088
BBX 6 9 2 -1
BITMAP
58
E4
44
44
44
78
40
40
E0
ENDCHAR
STARTCHAR uni0441
ENCODING 1089
BBX 6 7 2 1
BITMAP
30
48
80
80
84
48
30
ENDCHAR
STARTCHAR uni0442
ENCODING 1090
BBX 7 7 2 1
BITMAP
FE
92
10
10
10
10
38
ENDCHAR
STARTCHAR uni0443
ENCODING 1091
BBX 8 8 1 0
BITMAP
67
22
22
14
14
08
90
60
ENDCHAR
STARTCHAR uni0444
ENCODING 1092
BBX 7 11 2 -1
BITMAP
10
30
10
54
BA
92
92
BA
54
10
38
ENDCHAR
STARTCHAR uni0445
ENCODING 1093
BBX 7 7 2 1
BITMAP
EE
44
28
10
28
44
EE
ENDCHAR
STARTCHAR uni0446
ENCODING 1094
BBX 7 8 2 0
BITMAP
EE
44
44
44
44
44
FE
02
ENDCHAR
STARTCHAR uni0447
ENCODING 1095
BBX 7 7 1 1
BITMAP
CE
44
44
3C
04
04
0E
ENDCHAR
STARTCHAR uni0448
ENCODING 1096
BBX 9 7 1 1
BITMAP
DD80
4900
4900
4900
4900
4900
FF80
ENDCHAR
STARTCHAR uni0449
ENCODING 1097
BBX 9 8 1 0
BITMAP
DD80
4900
4900
4900
4900
4900
FF80
0080
ENDCHAR
STARTCHAR uni044A
ENCODING 1098
BBX 7 7 1 1
BITMAP
E0
A0
20
3C
22
22
3C
ENDCHAR
STARTCHAR uni044B
ENCODING 1099
BBX 9 7 1 1
BITMAP
E380
4100
4100
7900
4500
4500
7B80
ENDCHAR
STARTCHAR uni044C
ENCODING 1100
BBX 6 7 2 1
BITMAP
C0
40
40
78
44
44
78
ENDCHAR
STARTCHAR uni044D
ENCODING 1101
BBX 6 7 2 1
BITMAP
78
84
04
3C
04
84
78
ENDCHAR
STARTCHAR uni044E
ENCODING 1102
BBX 8 7 1 1
BITMAP
E6
49
49
79
49
49
E6
ENDCHAR
STARTCHAR uni044F
ENCODING 1103
BBX 7 7 2 1
BITMAP
3C
44
44
3C
14
24
EE
ENDCHAR
STARTCHAR uni0451
ENCODING 1105
BBX 6 8 2 1
BITMAP
84
00
78
84
FC
80
84
78
ENDCHAR
STARTCHAR uni2010
ENCODING 8208
BBX 7 1 2 5
BITMAP
FE
ENDCHAR
STARTCHAR endash
ENCODING 8211
BBX 7 1 2 4
BITMAP
FE
ENDCHAR
STARTCHAR emdash
ENCODING 8212
BBX 9 1 1 4
BITMAP
FF80
ENDCHAR
STARTCHAR uni2015
ENCODING 8213
BBX 11 1 0 4
BITMAP
FFE0
ENDCHAR
STARTCHAR uni2016
ENCODING 8214
BBX 3 10 4 -1
BITMAP
A0
A0
A0
A0
A0
A0
A0
A0
A0
A0
ENDCHAR
STARTCHAR quoteleft
ENCODING 8216
BBX 2 4 7 5
BITMAP
40
80
C0
C0
ENDCHAR
STARTCHAR quoteright
ENCODING 8217
BBX 2 4 2 5
BITMAP
C0
C0
40
80
ENDCHAR
STARTCHAR quotedblleft
ENCODING 8220
BBX 5 4 4 5
BITMAP
48
90
D8
D8
ENDCHAR
STARTCHAR quotedblright
ENCODING 8221
BBX 5 4 2 5
BITMAP
D8
D8
48
90
ENDCHAR
STARTCHAR twodotenleader
ENCODING 8229
BBX 7 2 2 4
BITMAP
C6
C6
ENDCHAR
STARTCHAR ellipsis
ENCODING 8230
BBX 10 2 0 4
BITMAP
CCC0
CCC0
ENDCHAR
STARTCHAR perthousand
ENCODING 8240
BBX 10 11 0 -1
BITMAP
2080
5100
5200
5400
2800
1000
2880
5540
9540
1540
0880
ENDCHAR
STARTCHAR minute
ENCODING 8242
BBX 4 5 1 4
BITMAP
10
30
60
40
80
ENDCHAR
STARTCHAR second
ENCODING 8243
BBX 6 4 0 5
BITMAP
24
6C
48
90
ENDCHAR
STARTCHAR uni2035
ENCODING 8245
BBX 2 4 5 5
BITMAP
C0
C0
40
40
ENDCHAR
STARTCHAR uni203B
ENCODING 8251
BBX 9 9 1 0
BITMAP
9880
5900
2200
1400
C980
D580
2200
5900
9880
ENDCHAR
STARTCHAR Euro
ENCODING 8364
BBX 8 9 1 -1
BITMAP
1D
23
61
FC
60
FC
60
21
1E
ENDCHAR
STARTCHAR uni2103
ENCODING 8451
BBX 11 10 0 0
BITMAP
4000
A740
48C0
1040
1000
1000
1000
1020
0840
0780
ENDCHAR
STARTCHAR uni2105
ENCODING 8453
BBX 10 10 0 -1
BITMAP
0100
6100
8200
8200
9400
6580
0A40
1240
1180
2000
ENDCHAR
STARTCHAR uni2109
ENCODING 8457
BBX 10 11 0 -1
BITMAP
6FC0
94C0
9440
6400
0480
0780
0480
0400
0400
0400
0E00
ENDCHAR
STARTCHAR uni2116
ENCODING 8470
BBX 11 11 0 -1
BITMAP
4100
6200
7200
7240
5AA0
5AA0
5AA0
4EA0
4E40
4600
86E0
ENDCHAR
STARTCHAR uni2121
ENCODING 8481
BBX 11 5 0 4
BITMAP
EE80
4880
4E80
4880
4EE0
ENDCHAR
STARTCHAR uni2160
ENCODING 8544
BBX 3 9 4 0
BITMAP
E0
40
40
40
40
40
40
40
E0
ENDCHAR
STARTCHAR uni2161
ENCODING 8545
BBX 7 9 1 0
BITMAP
EE
44
44
44
44
44
44
44
EE
ENDCHAR
STARTCHAR uni2162
ENCODING 8546
BBX 11 9 0 0
BITMAP
EEE0
4440
4440
4440
4440
4440
4440
4440
EEE0
ENDCHAR
STARTCHAR uni2163
ENCODING 8547
BBX 10 9 0 0
BITMAP
FDC0
4880
4880
4880
4500
4500
4500
4200
E200
ENDCHAR
STARTCHAR uni2164
ENCODING 8548
BBX 9 9 1 0
BITMAP
E380
4100
4100
2200
2200
2200
1400
1400
0800
ENDCHAR
STARTCHAR uni2165
ENCODING 8549
BBX 10 9 0 0
BITMAP
EFC0
4480
4480
4480
2880
2880
2880
1080
11C0
ENDCHAR
STARTCHAR uni2166
ENCODING 8550
BBX 11 9 0 0
BITMAP
EFE0
4540
4540
4540
2940
2940
2940
1140
13E0
ENDCHAR
STARTCHAR uni2167
ENCODING 8551
BBX 11 9 0 0
BITMAP
DFE0
4AA0
4AA0
4AA0
52A0
52A0
52A0
22A0
27E0
ENDCHAR
STARTCHAR uni2168
ENCODING 8552
BBX 11 9 0 0
BITMAP
EEE0
4440
4280
4280
4100
4280
4280
4440
EEE0
ENDCHAR
STARTCHAR uni2169
ENCODING 8553
BBX 7 9 2 0
BITMAP
EE
44
28
28
10
28
28
44
EE
ENDCHAR
STARTCHAR uni216A
ENCODING 8554
BBX 11 9 0 0
BITMAP
EEE0
4440
2840
2840
1040
2840
2840
4440
EEE0
ENDCHAR
STARTCHAR uni216B
ENCODING 8555
BBX 11 9 0 0
BITMAP
EFE0
4540
2940
2940
1140
2940
2940
4540
EFE0
ENDCHAR
STARTCHAR uni2170
ENCODING 8560
BBX 3 9 4 0
BITMAP
40
00
40
C0
40
40
40
40
E0
ENDCHAR
STARTCHAR uni2171
ENCODING 8561
BBX 8 9 2 0
BITMAP
42
00
42
C6
42
42
42
42
E7
ENDCHAR
STARTCHAR uni2172
ENCODING 8562
BBX 11 9 0 0
BITMAP
4440
0000
4440
CCC0
4440
4440
4440
4440
EEE0
ENDCHAR
STARTCHAR uni2173
ENCODING 8563
BBX 9 9 1 0
BITMAP
4000
0000
4880
C880
4880
4500
4500
4200
E200
ENDCHAR
STARTCHAR uni2174
ENCODING 8564
BBX 7 7 2 0
BITMAP
82
82
44
44
28
28
10
ENDCHAR
STARTCHAR uni2175
ENCODING 8565
BBX 9 9 1 0
BITMAP
0100
0000
8900
8B00
8900
5100
5100
2100
2380
ENDCHAR
STARTCHAR uni2176
ENCODING 8566
BBX 10 9 0 0
BITMAP
0240
0000
8A40
8A40
8A40
5240
5240
2240
2240
ENDCHAR
STARTCHAR uni2177
ENCODING 8567
BBX 11 9 0 0
BITMAP
02A0
0000
8AA0
8AA0
8AA0
52A0
52A0
22A0
22A0
ENDCHAR
STARTCHAR uni2178
ENCODING 8568
BBX 11 9 0 0
BITMAP
4000
0000
4EE0
C440
4280
4100
4280
4440
EEE0
ENDCHAR
STARTCHAR uni2179
ENCODING 8569
BBX 7 7 2 0
BITMAP
EE
44
28
10
28
44
EE
ENDCHAR
STARTCHAR arrowleft
ENCODING 8592
BBX 11 5 0 2
BITMAP
0800
3000
FFE0
3000
0800
ENDCHAR
STARTCHAR arrowup
ENCODING 8593
BBX 5 11 3 -1
BITMAP
20
20
70
70
A8
20
20
20
20
20
20
ENDCHAR
STARTCHAR arrowright
ENCODING 8594
BBX 11 5 0 2
BITMAP
0200
0180
FFE0
0180
0200
ENDCHAR
STARTCHAR arrowdown
ENCODING 8595
BBX 5 11 3 -1
BITMAP
20
20
20
20
20
20
A8
70
70
20
20
ENDCHAR
STARTCHAR uni2196
ENCODING 8598
BBX 9 9 1 0
BITMAP
8000
7800
6000
5000
4800
0400
0200
0100
0080
ENDCHAR
STARTCHAR uni2197
ENCODING 8599
BBX 9 9 2 0
BITMAP
0080
0F00
0300
0500
0900
1000
2000
4000
8000
ENDCHAR
STARTCHAR uni2198
ENCODING 8600
BBX 9 9 1 0
BITMAP
8000
4000
2000
1000
0900
0500
0300
0F00
0080
ENDCHAR
STARTCHAR uni2199
ENCODING 8601
BBX 10 10 1 -1
BITMAP
0040
0080
0100
0200
0400
4800
5000
6000
7800
8000
ENDCHAR
STARTCHAR element
ENCODING 8712
BBX 7 9 2 0
BITMAP
0E
30
40
80
FE
80
40
30
0E
ENDCHAR
STARTCHAR product
ENCODING 8719
BBX 8 10 1 -1
BITMAP
FF
66
66
66
66
66
66
66
66
66
ENDCHAR
STARTCHAR summation
ENCODING 8721
BBX 8 9 1 -1
BITMAP
FF
61
30
18
08
10
20
41
FF
ENDCHAR
STARTCHAR uni2215
ENCODING 8725
BBX 5 10 3 -1
BITMAP
08
08
10
10
20
20
40
40
80
80
ENDCHAR
STARTCHAR radical
ENCODING 8730
BBX 10 11 1 -1
BITMAP
0040
0080
0080
0100
0100
0200
0200
2400
5400
8800
0800
ENDCHAR
STARTCHAR proportional
ENCODING 8733
BBX 11 6 0 1
BITMAP
31E0
4A00
8400
8400
4A00
31E0
ENDCHAR
STARTCHAR infinity
ENCODING 8734
BBX 11 6 0 2
BITMAP
3180
4A40
8420
8420
4A40
3180
ENDCHAR
STARTCHAR orthogonal
ENCODING 8735
BBX 8 9 2 0
BITMAP
80
80
80
80
80
80
80
80
FF
ENDCHAR
STARTCHAR angle
ENCODING 8736
BBX 9 9 1 0
BITMAP
0080
0100
0200
0400
0800
1000
2000
4000
FF80
ENDCHAR
STARTCHAR uni2223
ENCODING 8739
BBX 1 12 5 -2
BITMAP
80
80
80
80
80
80
80
80
80
80
80
80
ENDCHAR
STARTCHAR uni2225
ENCODING 8741
BBX 7 11 1 -1
BITMAP
12
12
12
24
24
24
48
48
90
90
90
ENDCHAR
STARTCHAR logicaland
ENCODING 8743
BBX 9 9 1 0
BITMAP
0800
1400
1400
2200
2200
4100
4100
8080
8080
ENDCHAR
STARTCHAR logicalor
ENCODING 8744
BBX 9 9 1 0
BITMAP
8080
8080
4100
4100
2200
2200
1400
1400
0800
ENDCHAR
STARTCHAR intersection
ENCODING 8745
BBX 8 9 1 0
BITMAP
3C
42
81
81
81
81
81
81
81
ENDCHAR
STARTCHAR union
ENCODING 8746
BBX 8 9 1 0
BITMAP
81
81
81
81
81
81
81
42
3C
ENDCHAR
STARTCHAR integral
ENCODING 8747
BBX 7 11 2 -1
BITMAP
0C
12
10
10
10
10
10
10
10
90
60
ENDCHAR
STARTCHAR uni222E
ENCODING 8750
BBX 7 11 2 -1
BITMAP
0C
12
10
38
54
54
54
38
10
90
60
ENDCHAR
STARTCHAR therefore
ENCODING 8756
BBX 8 7 1 1
BITMAP
18
18
00
00
00
C3
C3
ENDCHAR
STARTCHAR uni2235
ENCODING 8757
BBX 8 7 1 0
BITMAP
C3
C3
00
00
00
18
18
ENDCHAR
STARTCHAR uni2236
ENCODING 8758
BBX 2 6 3 1
BITMAP
C0
C0
00
00
C0
C0
ENDCHAR
STARTCHAR uni2237
ENCODING 8759
BBX 6 6 2 1
BITMAP
CC
CC
00
00
CC
CC
ENDCHAR
STARTCHAR uni223D
ENCODING 8765
BBX 10 5 0 2
BITMAP
6380
8440
8440
8840
7180
ENDCHAR
STARTCHAR approxequal
ENCODING 8776
BBX 10 6 0 2
BITMAP
6040
9880
0700
6040
9880
0700
ENDCHAR
STARTCHAR uni224C
ENCODING 8780
BBX 9 8 1 0
BITMAP
4300
8C80
9080
6100
0000
FF80
0000
FF80
ENDCHAR
STARTCHAR uni2252
ENCODING 8786
BBX 10 8 1 0
BITMAP
8000
0000
FFC0
0000
0000
FFC0
0000
0040
ENDCHAR
STARTCHAR notequal
ENCODING 8800
BBX 9 11 1 -1
BITMAP
0200
0200
0400
FF80
0800
0800
FF80
1000
2000
2000
4000
ENDCHAR
STARTCHAR equivalence
ENCODING 8801
BBX 8 7 1 1
BITMAP
FF
00
00
FF
00
00
FF
ENDCHAR
STARTCHAR lessequal
ENCODING 8804
BBX 10 11 1 -1
BITMAP
00C0
0300
0C00
3000
C000
3000
CC00
3300
0CC0
0300
00C0
ENDCHAR
STARTCHAR greaterequal
ENCODING 8805
BBX 10 11 1 -1
BITMAP
C000
3000
0C00
0300
00C0
0300
0CC0
3300
CC00
3000
C000
ENDCHAR
STARTCHAR uni2266
ENCODING 8806
BBX 10 9 1 0
BITMAP
0380
1C00
E000
1C00
0380
0000
FFC0
0000
FFC0
ENDCHAR
STARTCHAR uni2267
ENCODING 8807
BBX 10 9 1 0
BITMAP
7000
0E00
01C0
0E00
7000
0000
FFC0
0000
FFC0
ENDCHAR
STARTCHAR uni226E
ENCODING 8814
BBX 10 11 1 -1
BITMAP
0400
04C0
0700
0C00
3400
C400
3400
0C00
0700
04C0
0400
ENDCHAR
STARTCHAR uni226F
ENCODING 8815
BBX 10 11 1 -1
BITMAP
0800
C800
3800
0C00
0B00
08C0
0B00
0C00
3800
C800
0800
ENDCHAR
STARTCHAR circleplus
ENCODING 8853
BBX 7 7 2 0
BITMAP
38
54
92
FE
92
54
38
ENDCHAR
STARTCHAR uni2299
ENCODING 8857
BBX 8 8 1 0
BITMAP
3C
42
81
99
99
81
42
3C
ENDCHAR
STARTCHAR perpendicular
ENCODING 8869
BBX 9 9 1 0
BITMAP
0800
0800
0800
0800
0800
0800
0800
0800
FF80
ENDCHAR
STARTCHAR uni22BF
ENCODING 8895
BBX 7 9 2 0
BITMAP
02
06
0A
0A
12
22
22
42
FE
ENDCHAR
STARTCHAR uni2312
ENCODING 8978
BBX 8 4 1 4
BITMAP
3C
42
81
81
ENDCHAR
STARTCHAR uni2460
ENCODING 9312
BBX 11 11 0 -1
BITMAP
0E00
3180
4440
4C40
9420
8420
8420
4440
4440
3180
0E00
ENDCHAR
STARTCHAR uni2461
ENCODING 9313
BBX 11 11 0 -1
BITMAP
0E00
3180
4C40
5240
8220
8420
8820
5040
5E40
3180
0E00
ENDCHAR
STARTCHAR uni2462
ENCODING 9314
BBX 11 11 0 -1
BITMAP
0E00
3180
5E40
4440
8820
8420
8220
5240
4C40
3180
0E00
ENDCHAR
STARTCHAR uni2463
ENCODING 9315
BBX 11 11 0 -1
BITMAP
0E00
3180
4440
4840
8A20
9220
9F20
4240
4240
3180
0E00
ENDCHAR
STARTCHAR uni2464
ENCODING 9316
BBX 11 11 0 -1
BITMAP
0E00
3180
5E40
5040
9C20
8220
8220
5240
4C40
3180
0E00
ENDCHAR
STARTCHAR uni2465
ENCODING 9317
BBX 11 11 0 -1
BITMAP
0E00
3180
4440
4840
9020
9C20
9220
5240
4C40
3180
0E00
ENDCHAR
STARTCHAR uni2466
ENCODING 9318
BBX 11 11 0 -1
BITMAP
0E00
3180
5E40
4240
8420
8420
8820
4840
4840
3180
0E00
ENDCHAR
STARTCHAR uni2467
ENCODING 9319
BBX 11 11 0 -1
BITMAP
0E00
3180
4C40
5240
9220
8C20
9220
5240
4C40
3180
0E00
ENDCHAR
STARTCHAR uni2468
ENCODING 9320
BBX 11 11 0 -1
BITMAP
0E00
3180
4C40
5240
9220
8E20
8220
4440
4840
3180
0E00
ENDCHAR
STARTCHAR uni2469
ENCODING 9321
BBX 11 11 0 -1
BITMAP
0E00
3180
5240
5540
9520
9520
9520
5540
5240
3180
0E00
ENDCHAR
STARTCHAR uni2474
ENCODING 9332
BBX 11 11 0 -1
BITMAP
2080
4440
4C40
9420
8420
8420
8420
8420
4440
4440
2080
ENDCHAR
STARTCHAR uni2475
ENCODING 9333
BBX 11 11 0 -1
BITMAP
2080
4C40
5240
8220
8220
8420
8820
8820
5040
5E40
2080
ENDCHAR
STARTCHAR uni2476
ENCODING 9334
BBX 11 11 0 -1
BITMAP
2080
5E40
4240
8420
8820
8420
8220
8220
5240
4C40
2080
ENDCHAR
STARTCHAR uni2477
ENCODING 9335
BBX 11 11 0 -1
BITMAP
2080
4440
4440
8820
8A20
9220
9220
9F20
4240
4240
2080
ENDCHAR
STARTCHAR uni2478
ENCODING 9336
BBX 11 11 0 -1
BITMAP
2080
4040
4F40
8820
8820
8E20
8120
8120
4940
4640
2080
ENDCHAR
STARTCHAR uni2479
ENCODING 9337
BBX 11 11 0 -1
BITMAP
2080
4440
4840
9020
9620
9920
9120
9120
5140
4E40
2080
ENDCHAR
STARTCHAR uni247A
ENCODING 9338
BBX 11 11 0 -1
BITMAP
2080
4040
5F40
8120
8220
8220
8420
8420
4440
4440
2080
ENDCHAR
STARTCHAR uni247B
ENCODING 9339
BBX 11 11 0 -1
BITMAP
2080
4C40
5240
9220
9220
8C20
9220
9220
5240
4C40
2080
ENDCHAR
STARTCHAR uni247C
ENCODING 9340
BBX 11 11 0 -1
BITMAP
2080
4E40
5140
9120
9120
9320
8D20
8120
4240
4440
2080
ENDCHAR
STARTCHAR uni247D
ENCODING 9341
BBX 11 11 0 -1
BITMAP
2080
5240
5540
9520
9520
9520
9520
9520
5540
5240
2080
ENDCHAR
STARTCHAR uni247E
ENCODING 9342
BBX 11 11 0 -1
BITMAP
2080
4040
5140
9120
9120
9120
9120
9120
5140
5140
2080
ENDCHAR
STARTCHAR uni247F
ENCODING 9343
BBX 11 11 0 -1
BITMAP
2080
5340
54C0
90A0
90A0
9120
9220
9420
57C0
5040
2080
ENDCHAR
STARTCHAR uni2480
ENCODING 9344
BBX 11 11 0 -1
BITMAP
2080
4040
57C0
B120
9220
9720
90A0
90A0
54C0
5340
2080
ENDCHAR
STARTCHAR uni2481
ENCODING 9345
BBX 11 11 0 -1
BITMAP
2080
4040
5140
B220
9220
9520
9520
97A0
5140
5140
2080
ENDCHAR
STARTCHAR uni2482
ENCODING 9346
BBX 11 11 0 -1
BITMAP
2080
4040
6F40
A820
A820
AE20
A120
A120
6940
6640
2080
ENDCHAR
STARTCHAR uni2483
ENCODING 9347
BBX 11 11 0 -1
BITMAP
2080
5140
5240
9420
9720
94A0
94A0
94A0
5340
5040
2080
ENDCHAR
STARTCHAR uni2484
ENCODING 9348
BBX 11 11 0 -1
BITMAP
2080
4040
57C0
B0A0
9120
9120
9220
9220
5240
5240
2080
ENDCHAR
STARTCHAR uni2485
ENCODING 9349
BBX 11 11 0 -1
BITMAP
2080
4040
6640
A920
A920
A620
A920
A920
6940
6640
2080
ENDCHAR
STARTCHAR uni2486
ENCODING 9350
BBX 11 11 0 -1
BITMAP
2080
4040
5340
B4A0
94A0
94A0
93A0
90A0
5140
5240
2080
ENDCHAR
STARTCHAR uni2487
ENCODING 9351
BBX 11 11 0 -1
BITMAP
2080
4040
5940
A6A0
86A0
8AA0
92A0
A2A0
7AC0
4140
2080
ENDCHAR
STARTCHAR uni2488
ENCODING 9352
BBX 6 9 3 0
BITMAP
20
60
A0
20
20
20
20
20
24
ENDCHAR
STARTCHAR uni2489
ENCODING 9353
BBX 7 9 2 0
BITMAP
70
88
08
08
10
20
40
80
FA
ENDCHAR
STARTCHAR uni248A
ENCODING 9354
BBX 7 9 2 0
BITMAP
F8
08
10
20
10
08
08
88
72
ENDCHAR
STARTCHAR uni248B
ENCODING 9355
BBX 8 9 2 0
BITMAP
20
20
40
48
88
88
FC
08
09
ENDCHAR
STARTCHAR uni248C
ENCODING 9356
BBX 7 9 2 0
BITMAP
F8
80
80
F0
08
08
08
88
72
ENDCHAR
STARTCHAR uni248D
ENCODING 9357
BBX 7 9 2 0
BITMAP
20
40
80
B0
C8
88
88
88
72
ENDCHAR
STARTCHAR uni248E
ENCODING 9358
BBX 7 9 2 0
BITMAP
F8
08
08
10
10
20
20
20
22
ENDCHAR
STARTCHAR uni248F
ENCODING 9359
BBX 7 9 2 0
BITMAP
70
88
88
88
70
88
88
88
72
ENDCHAR
STARTCHAR uni2490
ENCODING 9360
BBX 7 9 2 0
BITMAP
70
88
88
88
98
68
08
10
22
ENDCHAR
STARTCHAR uni2491
ENCODING 9361
BBX 11 9 0 0
BITMAP
2300
6480
A480
2480
2480
2480
2480
2480
2320
ENDCHAR
STARTCHAR uni2492
ENCODING 9362
BBX 10 9 0 0
BITMAP
2200
6600
AA00
2200
2200
2200
2200
2240
2200
ENDCHAR
STARTCHAR uni2493
ENCODING 9363
BBX 11 9 0 0
BITMAP
2300
6480
A080
2080
2100
2200
2200
2400
27A0
ENDCHAR
STARTCHAR uni2494
ENCODING 9364
BBX 11 9 0 0
BITMAP
2780
6080
A100
2200
2100
2080
2080
2480
2320
ENDCHAR
STARTCHAR uni2495
ENCODING 9365
BBX 11 9 0 0
BITMAP
2200
6200
A400
2500
2900
2900
2F80
2100
2120
ENDCHAR
STARTCHAR uni2496
ENCODING 9366
BBX 11 9 0 0
BITMAP
2780
6400
A400
2700
2080
2080
2080
2480
2320
ENDCHAR
STARTCHAR uni2497
ENCODING 9367
BBX 11 9 0 0
BITMAP
2200
6400
A800
2B00
2C80
2880
2880
2880
2720
ENDCHAR
STARTCHAR uni2498
ENCODING 9368
BBX 11 9 0 0
BITMAP
27C0
6040
A040
2080
2080
2100
2100
2100
2120
ENDCHAR
STARTCHAR uni2499
ENCODING 9369
BBX 11 9 0 0
BITMAP
2700
6880
A880
2880
2700
2880
2880
2880
2720
ENDCHAR
STARTCHAR uni249A
ENCODING 9370
BBX 11 9 0 0
BITMAP
2700
6880
A880
2880
2980
2680
2080
2100
2220
ENDCHAR
STARTCHAR uni249B
ENCODING 9371
BBX 11 9 0 0
BITMAP
6300
9480
1480
1480
2480
2480
4480
8480
F320
ENDCHAR
STARTCHAR SF100000
ENCODING 9472
BBX 11 1 0 4
BITMAP
FFE0
ENDCHAR
STARTCHAR uni2501
ENCODING 9473
BBX 11 2 0 3
BITMAP
FFE0
FFE0
ENDCHAR
STARTCHAR SF110000
ENCODING 9474
BBX 1 12 5 -2
BITMAP
80
80
80
80
80
80
80
80
80
80
80
80
ENDCHAR
STARTCHAR uni2503
ENCODING 9475
BBX 2 12 5 -2
BITMAP
C0
C0
C0
C0
C0
C0
C0
C0
C0
C0
C0
C0
ENDCHAR
STARTCHAR uni2504
ENCODING 9476
BBX 11 1 0 4
BITMAP
EEE0
ENDCHAR
STARTCHAR uni2505
ENCODING 9477
BBX 11 2 0 3
BITMAP
EEE0
EEE0
ENDCHAR
STARTCHAR uni2506
ENCODING 9478
BBX 1 11 5 -1
BITMAP
80
80
80
00
80
80
80
00
80
80
80
ENDCHAR
STARTCHAR uni2507
ENCODING 9479
BBX 2 11 5 -1
BITMAP
C0
C0
C0
00
C0
C0
C0
00
C0
C0
C0
ENDCHAR
STARTCHAR uni2508
ENCODING 9480
BBX 11 1 0 4
BITMAP
DB60
ENDCHAR
STARTCHAR uni2509
ENCODING 9481
BBX 11 2 0 3
BITMAP
DB60
DB60
ENDCHAR
STARTCHAR uni250A
ENCODING 9482
BBX 1 11 5 -1
BITMAP
80
80
00
80
80
00
80
80
00
80
80
ENDCHAR
STARTCHAR uni250B
ENCODING 9483
BBX 2 11 5 -1
BITMAP
C0
C0
00
C0
C0
00
C0
C0
00
C0
C0
ENDCHAR
STARTCHAR SF010000
ENCODING 9484
BBX 6 7 5 -2
BITMAP
FC
80
80
80
80
80
80
ENDCHAR
STARTCHAR uni250D
ENCODING 9485
BBX 6 7 5 -2
BITMAP
FC
FC
80
80
80
80
80
ENDCHAR
STARTCHAR uni250E
ENCODING 9486
BBX 6 7 5 -2
BITMAP
FC
C0
C0
C0
C0
C0
C0
ENDCHAR
STARTCHAR uni250F
ENCODING 9487
BBX 6 7 5 -2
BITMAP
FC
FC
C0
C0
C0
C0
C0
ENDCHAR
STARTCHAR SF030000
ENCODING 9488
BBX 6 7 0 -2
BITMAP
FC
04
04
04
04
04
04
ENDCHAR
STARTCHAR uni2511
ENCODING 9489
BBX 6 7 0 -2
BITMAP
FC
FC
04
04
04
04
04
ENDCHAR
STARTCHAR uni2512
ENCODING 9490
BBX 7 7 0 -2
BITMAP
FE
06
06
06
06
06
06
ENDCHAR
STARTCHAR uni2513
ENCODING 9491
BBX 7 7 0 -2
BITMAP
FE
FE
06
06
06
06
06
ENDCHAR
STARTCHAR SF020000
ENCODING 9492
BBX 6 6 5 4
BITMAP
80
80
80
80
80
FC
ENDCHAR
STARTCHAR uni2515
ENCODING 9493
BBX 6 7 5 3
BITMAP
80
80
80
80
80
FC
FC
ENDCHAR
STARTCHAR uni2516
ENCODING 9494
BBX 6 6 5 4
BITMAP
C0
C0
C0
C0
C0
FC
ENDCHAR
STARTCHAR uni2517
ENCODING 9495
BBX 6 7 5 3
BITMAP
C0
C0
C0
C0
C0
FC
FC
ENDCHAR
STARTCHAR SF040000
ENCODING 9496
BBX 6 6 0 4
BITMAP
04
04
04
04
04
FC
ENDCHAR
STARTCHAR uni2519
ENCODING 9497
BBX 6 7 0 3
BITMAP
04
04
04
04
04
FC
FC
ENDCHAR
STARTCHAR uni251A
ENCODING 9498
BBX 7 6 0 4
BITMAP
06
06
06
06
06
FE
ENDCHAR
STARTCHAR uni251B
ENCODING 9499
BBX 7 7 0 3
BITMAP
06
06
06
06
06
FE
FE
ENDCHAR
STARTCHAR SF080000
ENCODING 9500
BBX 6 12 5 -2
BITMAP
80
80
80
80
80
FC
80
80
80
80
80
80
ENDCHAR
STARTCHAR uni251D
ENCODING 9501
BBX 6 12 5 -2
BITMAP
80
80
80
80
80
FC
FC
80
80
80
80
80
ENDCHAR
STARTCHAR uni251E
ENCODING 9502
BBX 6 12 5 -2
BITMAP
C0
C0
C0
C0
C0
FC
80
80
80
80
80
80
ENDCHAR
STARTCHAR uni251F
ENCODING 9503
BBX 6 12 5 -2
BITMAP
80
80
80
80
80
FC
C0
C0
C0
C0
C0
C0
ENDCHAR
STARTCHAR uni2520
ENCODING 9504
BBX 6 12 5 -2
BITMAP
C0
C0
C0
C0
C0
FC
C0
C0
C0
C0
C0
C0
ENDCHAR
STARTCHAR uni2521
ENCODING 9505
BBX 6 12 5 -2
BITMAP
C0
C0
C0
C0
C0
FC
FC
80
80
80
80
80
ENDCHAR
STARTCHAR uni2522
ENCODING 9506
BBX 6 12 5 -2
BITMAP
80
80
80
80
80
FC
FC
C0
C0
C0
C0
C0
ENDCHAR
STARTCHAR uni2523
ENCODING 9507
BBX 6 12 5 -2
BITMAP
C0
C0
C0
C0
C0
FC
FC
C0
C0
C0
C0
C0
ENDCHAR
STARTCHAR SF090000
ENCODING 9508
BBX 6 12 0 -2
BITMAP
04
04
04
04
04
FC
04
04
04
04
04
04
ENDCHAR
STARTCHAR uni2525
ENCODING 9509
BBX 6 12 0 -2
BITMAP
04
04
04
04
04
FC
FC
04
04
04
04
04
ENDCHAR
STARTCHAR uni2526
ENCODING 9510
BBX 7 12 0 -2
BITMAP
06
06
06
06
06
FE
04
04
04
04
04
04
ENDCHAR
STARTCHAR uni2527
ENCODING 9511
BBX 7 12 0 -2
BITMAP
04
04
04
04
04
FE
06
06
06
06
06
06
ENDCHAR
STARTCHAR uni2528
ENCODING 9512
BBX 7 12 0 -2
BITMAP
06
06
06
06
06
FE
06
06
06
06
06
06
ENDCHAR
STARTCHAR uni2529
ENCODING 9513
BBX 7 12 0 -2
BITMAP
06
06
06
06
06
FE
FE
04
04
04
04
04
ENDCHAR
STARTCHAR uni252A
ENCODING 9514
BBX 7 12 0 -2
BITMAP
04
04
04
04
04
FE
FE
06
06
06
06
06
ENDCHAR
STARTCHAR uni252B
ENCODING 9515
BBX 7 12 0 -2
BITMAP
06
06
06
06
06
FE
FE
06
06
06
06
06
ENDCHAR
STARTCHAR SF060000
ENCODING 9516
BBX 11 7 0 -2
BITMAP
FFE0
0400
0400
0400
0400
0400
0400
ENDCHAR
STARTCHAR uni252D
ENCODING 9517
BBX 11 7 0 -2
BITMAP
FFE0
FC00
0400
0400
0400
0400
0400
ENDCHAR
STARTCHAR uni252E
ENCODING 9518
BBX 11 7 0 -2
BITMAP
FFE0
07E0
0400
0400
0400
0400
0400
ENDCHAR
STARTCHAR uni252F
ENCODING 9519
BBX 11 7 0 -2
BITMAP
FFE0
FFE0
0400
0400
0400
0400
0400
ENDCHAR
STARTCHAR uni2530
ENCODING 9520
BBX 11 7 0 -2
BITMAP
FFE0
0600
0600
0600
0600
0600
0600
ENDCHAR
STARTCHAR uni2531
ENCODING 9521
BBX 11 7 0 -2
BITMAP
FFE0
FE00
0600
0600
0600
0600
0600
ENDCHAR
STARTCHAR uni2532
ENCODING 9522
BBX 11 7 0 -2
BITMAP
FFE0
07E0
0600
0600
0600
0600
0600
ENDCHAR
STARTCHAR uni2533
ENCODING 9523
BBX 11 7 0 -2
BITMAP
FFE0
FFE0
0600
0600
0600
0600
0600
ENDCHAR
STARTCHAR SF070000
ENCODING 9524
BBX 11 6 0 4
BITMAP
0400
0400
0400
0400
0400
FFE0
ENDCHAR
STARTCHAR uni2535
ENCODING 9525
BBX 11 7 0 3
BITMAP
0400
0400
0400
0400
0400
FFE0
FC00
ENDCHAR
STARTCHAR uni2536
ENCODING 9526
BBX 11 7 0 3
BITMAP
0400
0400
0400
0400
0400
FFE0
07E0
ENDCHAR
STARTCHAR uni2537
ENCODING 9527
BBX 11 7 0 3
BITMAP
0400
0400
0400
0400
0400
FFE0
FFE0
ENDCHAR
STARTCHAR uni2538
ENCODING 9528
BBX 11 6 0 4
BITMAP
0600
0600
0600
0600
0600
FFE0
ENDCHAR
STARTCHAR uni2539
ENCODING 9529
BBX 11 7 0 3
BITMAP
0600
0600
0600
0600
0600
FFE0
FE00
ENDCHAR
STARTCHAR uni253A
ENCODING 9530
BBX 11 7 0 3
BITMAP
0600
0600
0600
0600
0600
FFE0
07E0
ENDCHAR
STARTCHAR uni253B
ENCODING 9531
BBX 11 7 0 3
BITMAP
0600
0600
0600
0600
0600
FFE0
FFE0
ENDCHAR
STARTCHAR SF050000
ENCODING 9532
BBX 11 12 0 -2
BITMAP
0400
0400
0400
0400
0400
FFE0
0400
0400
0400
0400
0400
0400
ENDCHAR
STARTCHAR uni253D
ENCODING 9533
BBX 11 12 0 -2
BITMAP
0400
0400
0400
0400
0400
FFE0
FC00
0400
0400
0400
0400
0400
ENDCHAR
STARTCHAR uni253E
ENCODING 9534
BBX 11 12 0 -2
BITMAP
0400
0400
0400
0400
0400
FFE0
07E0
0400
0400
0400
0400
0400
ENDCHAR
STARTCHAR uni253F
ENCODING 9535
BBX 11 12 0 -2
BITMAP
0400
0400
0400
0400
0400
FFE0
FFE0
0400
0400
0400
0400
0400
ENDCHAR
STARTCHAR uni2540
ENCODING 9536
BBX 11 12 0 -2
BITMAP
0600
0600
0600
0600
0600
FFE0
0400
0400
0400
0400
0400
0400
ENDCHAR
STARTCHAR uni2541
ENCODING 9537
BBX 11 12 0 -2
BITMAP
0400
0400
0400
0400
0400
FFE0
0600
0600
0600
0600
0600
0600
ENDCHAR
STARTCHAR uni2542
ENCODING 9538
BBX 11 12 0 -2
BITMAP
0600
0600
0600
0600
0600
FFE0
0600
0600
0600
0600
0600
0600
ENDCHAR
STARTCHAR uni2543
ENCODING 9539
BBX 11 12 0 -2
BITMAP
0600
0600
0600
0600
0600
FFE0
FC00
0400
0400
0400
0400
0400
ENDCHAR
STARTCHAR uni2544
ENCODING 9540
BBX 11 12 0 -2
BITMAP
0600
0600
0600
0600
0600
FFE0
07E0
0400
0400
0400
0400
0400
ENDCHAR
STARTCHAR uni2545
ENCODING 9541
BBX 11 12 0 -2
BITMAP
0400
0400
0400
0400
0400
FFE0
FE00
0600
0600
0600
0600
0600
ENDCHAR
STARTCHAR uni2546
ENCODING 9542
BBX 11 12 0 -2
BITMAP
0400
0400
0400
0400
0400
FFE0
07E0
0600
0600
0600
0600
0600
ENDCHAR
STARTCHAR uni2547
ENCODING 9543
BBX 11 12 0 -2
BITMAP
0600
0600
0600
0600
0600
FFE0
FFE0
0400
0400
0400
0400
0400
ENDCHAR
STARTCHAR uni2548
ENCODING 9544
BBX 11 12 0 -2
BITMAP
0400
0400
0400
0400
0400
FFE0
FFE0
0600
0600
0600
0600
0600
ENDCHAR
STARTCHAR uni2549
ENCODING 9545
BBX 11 12 0 -2
BITMAP
0600
0600
0600
0600
0600
FFE0
FE00
0600
0600
0600
0600
0600
ENDCHAR
STARTCHAR uni254A
ENCODING 9546
BBX 11 12 0 -2
BITMAP
0600
0600
0600
0600
0600
FFE0
07E0
0600
0600
0600
0600
0600
ENDCHAR
STARTCHAR uni254B
ENCODING 9547
BBX 11 12 0 -2
BITMAP
0600
0600
0600
0600
0600
FFE0
FFE0
0600
0600
0600
0600
0600
ENDCHAR
STARTCHAR SF430000
ENCODING 9552
BBX 11 3 0 3
BITMAP
FFE0
0000
FFE0
ENDCHAR
STARTCHAR SF240000
ENCODING 9553
BBX 3 12 4 -2
BITMAP
A0
A0
A0
A0
A0
A0
A0
A0
A0
A0
A0
A0
ENDCHAR
STARTCHAR SF510000
ENCODING 9554
BBX 5 8 6 -2
BITMAP
F8
80
F8
80
80
80
80
80
ENDCHAR
STARTCHAR SF520000
ENCODING 9555
BBX 7 6 4 -2
BITMAP
FE
A0
A0
A0
A0
A0
ENDCHAR
STARTCHAR SF390000
ENCODING 9556
BBX 7 8 4 -2
BITMAP
FE
80
BE
A0
A0
A0
A0
A0
ENDCHAR
STARTCHAR SF220000
ENCODING 9557
BBX 5 8 0 -2
BITMAP
F8
08
F8
08
08
08
08
08
ENDCHAR
STARTCHAR SF210000
ENCODING 9558
BBX 7 6 0 -2
BITMAP
FE
0A
0A
0A
0A
0A
ENDCHAR
STARTCHAR SF250000
ENCODING 9559
BBX 7 8 0 -2
BITMAP
FE
02
FA
0A
0A
0A
0A
0A
ENDCHAR
STARTCHAR SF500000
ENCODING 9560
BBX 5 7 6 3
BITMAP
80
80
80
80
F8
80
F8
ENDCHAR
STARTCHAR SF490000
ENCODING 9561
BBX 7 5 4 5
BITMAP
A0
A0
A0
A0
FE
ENDCHAR
STARTCHAR SF380000
ENCODING 9562
BBX 7 7 4 3
BITMAP
A0
A0
A0
A0
BE
80
FE
ENDCHAR
STARTCHAR SF280000
ENCODING 9563
BBX 5 7 0 3
BITMAP
08
08
08
08
F8
08
F8
ENDCHAR
STARTCHAR SF270000
ENCODING 9564
BBX 7 5 0 5
BITMAP
0A
0A
0A
0A
FE
ENDCHAR
STARTCHAR SF260000
ENCODING 9565
BBX 7 7 0 3
BITMAP
0A
0A
0A
0A
FA
02
FE
ENDCHAR
STARTCHAR SF360000
ENCODING 9566
BBX 5 12 6 -2
BITMAP
80
80
80
80
F8
80
F8
80
80
80
80
80
ENDCHAR
STARTCHAR SF370000
ENCODING 9567
BBX 7 12 4 -2
BITMAP
A0
A0
A0
A0
BE
A0
A0
A0
A0
A0
A0
A0
ENDCHAR
STARTCHAR SF420000
ENCODING 9568
BBX 7 12 4 -2
BITMAP
A0
A0
A0
A0
BE
80
BE
A0
A0
A0
A0
A0
ENDCHAR
STARTCHAR SF190000
ENCODING 9569
BBX 5 12 0 -2
BITMAP
08
08
08
08
F8
08
F8
08
08
08
08
08
ENDCHAR
STARTCHAR SF200000
ENCODING 9570
BBX 7 12 0 -2
BITMAP
0A
0A
0A
0A
FA
0A
0A
0A
0A
0A
0A
0A
ENDCHAR
STARTCHAR SF230000
ENCODING 9571
BBX 7 12 0 -2
BITMAP
0A
0A
0A
0A
FA
02
FA
0A
0A
0A
0A
0A
ENDCHAR
STARTCHAR SF470000
ENCODING 9572
BBX 11 8 0 -2
BITMAP
FFE0
0000
FFE0
0800
0800
0800
0800
0800
ENDCHAR
STARTCHAR SF480000
ENCODING 9573
BBX 11 6 0 -2
BITMAP
FFE0
0A00
0A00
0A00
0A00
0A00
ENDCHAR
STARTCHAR SF410000
ENCODING 9574
BBX 11 8 0 -2
BITMAP
FFE0
0000
FBE0
0A00
0A00
0A00
0A00
0A00
ENDCHAR
STARTCHAR SF450000
ENCODING 9575
BBX 11 7 0 3
BITMAP
0800
0800
0800
0800
FFE0
0000
FFE0
ENDCHAR
STARTCHAR SF460000
ENCODING 9576
BBX 11 5 0 5
BITMAP
0A00
0A00
0A00
0A00
FFE0
ENDCHAR
STARTCHAR SF400000
ENCODING 9577
BBX 11 7 0 3
BITMAP
0A00
0A00
0A00
0A00
FBE0
0000
FFE0
ENDCHAR
STARTCHAR SF540000
ENCODING 9578
BBX 11 12 0 -2
BITMAP
0800
0800
0800
0800
FFE0
0800
FFE0
0800
0800
0800
0800
0800
ENDCHAR
STARTCHAR SF530000
ENCODING 9579
BBX 11 12 0 -2
BITMAP
0A00
0A00
0A00
0A00
0A00
0A00
FFE0
0A00
0A00
0A00
0A00
0A00
ENDCHAR
STARTCHAR SF440000
ENCODING 9580
BBX 11 12 0 -2
BITMAP
0A00
0A00
0A00
0A00
FBE0
0000
FBE0
0A00
0A00
0A00
0A00
0A00
ENDCHAR
STARTCHAR uni256D
ENCODING 9581
BBX 6 6 0 0
BITMAP
0C
30
40
40
80
80
ENDCHAR
STARTCHAR uni256E
ENCODING 9582
BBX 6 6 5 0
BITMAP
C0
30
08
08
04
04
ENDCHAR
STARTCHAR uni256F
ENCODING 9583
BBX 6 6 0 4
BITMAP
04
04
08
08
30
C0
ENDCHAR
STARTCHAR uni2570
ENCODING 9584
BBX 6 6 5 4
BITMAP
80
80
40
40
30
0C
ENDCHAR
STARTCHAR uni2571
ENCODING 9585
BBX 11 11 0 -1
BITMAP
0020
0040
0080
0100
0200
0400
0800
1000
2000
4000
8000
ENDCHAR
STARTCHAR uni2572
ENCODING 9586
BBX 11 11 0 -1
BITMAP
8000
4000
2000
1000
0800
0400
0200
0100
0080
0040
0020
ENDCHAR
STARTCHAR uni2573
ENCODING 9587
BBX 11 11 0 -2
BITMAP
8020
4040
2080
1100
0A00
0400
0A00
1100
2080
4040
8020
ENDCHAR
STARTCHAR uni2581
ENCODING 9601
BBX 11 2 0 -2
BITMAP
FFE0
FFE0
ENDCHAR
STARTCHAR uni2582
ENCODING 9602
BBX 11 3 0 -2
BITMAP
FFE0
FFE0
FFE0
ENDCHAR
STARTCHAR uni2583
ENCODING 9603
BBX 11 5 0 -2
BITMAP
FFE0
FFE0
FFE0
FFE0
FFE0
ENDCHAR
STARTCHAR dnblock
ENCODING 9604
BBX 11 6 0 -2
BITMAP
FFE0
FFE0
FFE0
FFE0
FFE0
FFE0
ENDCHAR
STARTCHAR uni2585
ENCODING 9605
BBX 11 8 0 -2
BITMAP
FFE0
FFE0
FFE0
FFE0
FFE0
FFE0
FFE0
FFE0
ENDCHAR
STARTCHAR uni2586
ENCODING 9606
BBX 11 9 0 -2
BITMAP
FFE0
FFE0
FFE0
FFE0
FFE0
FFE0
FFE0
FFE0
FFE0
ENDCHAR
STARTCHAR uni2587
ENCODING 9607
BBX 11 11 0 -2
BITMAP
FFE0
FFE0
FFE0
FFE0
FFE0
FFE0
FFE0
FFE0
FFE0
FFE0
FFE0
ENDCHAR
STARTCHAR block
ENCODING 9608
BBX 11 12 0 -2
BITMAP
FFE0
FFE0
FFE0
FFE0
FFE0
FFE0
FFE0
FFE0
FFE0
FFE0
FFE0
FFE0
ENDCHAR
STARTCHAR uni2589
ENCODING 9609
BBX 11 12 0 -2
BITMAP
FFE0
FFE0
FFE0
FFE0
FFE0
FFE0
FFE0
FFE0
FFE0
FFE0
FFE0
FFE0
ENDCHAR
STARTCHAR uni258A
ENCODING 9610
BBX 9 12 0 -2
BITMAP
FF80
FF80
FF80
FF80
FF80
FF80
FF80
FF80
FF80
FF80
FF80
FF80
ENDCHAR
STARTCHAR uni258B
ENCODING 9611
BBX 8 12 0 -2
BITMAP
FF
FF
FF
FF
FF
FF
FF
FF
FF
FF
FF
FF
ENDCHAR
STARTCHAR lfblock
ENCODING 9612
BBX 6 12 0 -2
BITMAP
FC
FC
FC
FC
FC
FC
FC
FC
FC
FC
FC
FC
ENDCHAR
STARTCHAR uni258D
ENCODING 9613
BBX 5 12 0 -2
BITMAP
F8
F8
F8
F8
F8
F8
F8
F8
F8
F8
F8
F8
ENDCHAR
STARTCHAR uni258E
ENCODING 9614
BBX 3 12 0 -2
BITMAP
E0
E0
E0
E0
E0
E0
E0
E0
E0
E0
E0
E0
ENDCHAR
STARTCHAR uni258F
ENCODING 9615
BBX 2 12 0 -2
BITMAP
C0
C0
C0
C0
C0
C0
C0
C0
C0
C0
C0
C0
ENDCHAR
STARTCHAR dkshade
ENCODING 9619
BBX 11 12 0 -2
BITMAP
FFE0
AAA0
FFE0
5540
FFE0
AAA0
FFE0
5540
FFE0
AAA0
FFE0
5540
ENDCHAR
STARTCHAR uni2594
ENCODING 9620
BBX 11 2 0 8
BITMAP
FFE0
FFE0
ENDCHAR
STARTCHAR uni2595
ENCODING 9621
BBX 2 12 9 -2
BITMAP
C0
C0
C0
C0
C0
C0
C0
C0
C0
C0
C0
C0
ENDCHAR
STARTCHAR filledbox
ENCODING 9632
BBX 9 9 1 0
BITMAP
FF80
FF80
FF80
FF80
FF80
FF80
FF80
FF80
FF80
ENDCHAR
STARTCHAR H22073
ENCODING 9633
BBX 9 9 1 0
BITMAP
FF80
8080
8080
8080
8080
8080
8080
8080
FF80
ENDCHAR
STARTCHAR triagup
ENCODING 9650
BBX 11 9 0 0
BITMAP
0400
0E00
0E00
1F00
1F00
3F80
3F80
7FC0
FFE0
ENDCHAR
STARTCHAR uni25B3
ENCODING 9651
BBX 11 9 0 0
BITMAP
0400
0A00
0A00
1100
1100
2080
2080
4040
FFE0
ENDCHAR
STARTCHAR triagdn
ENCODING 9660
BBX 11 9 0 0
BITMAP
FFE0
7FC0
3F80
3F80
1F00
1F00
0E00
0E00
0400
ENDCHAR
STARTCHAR uni25BD
ENCODING 9661
BBX 9 10 1 -1
BITMAP
FF80
8080
4100
4100
2200
2200
1400
1400
0800
0800
ENDCHAR
STARTCHAR uni25C6
ENCODING 9670
BBX 11 11 0 -1
BITMAP
0400
0E00
1F00
3F80
7FC0
FFE0
7FC0
3F80
1F00
0E00
0400
ENDCHAR
STARTCHAR uni25C7
ENCODING 9671
BBX 11 11 0 -1
BITMAP
0400
0A00
1100
2080
4040
8020
4040
2080
1100
0A00
0400
ENDCHAR
STARTCHAR circle
ENCODING 9675
BBX 9 9 1 0
BITMAP
1C00
2200
4100
8080
8080
8080
4100
2200
1C00
ENDCHAR
STARTCHAR uni25CE
ENCODING 9678
BBX 9 9 1 0
BITMAP
3E00
4100
9C80
A280
A280
A280
9C80
4100
3E00
ENDCHAR
STARTCHAR H18533
ENCODING 9679
BBX 11 11 0 -2
BITMAP
0E00
3F80
7FC0
7FC0
FFE0
FFE0
FFE0
7FC0
7FC0
3F80
0E00
ENDCHAR
STARTCHAR uni25E2
ENCODING 9698
BBX 6 6 5 -2
BITMAP
04
0C
1C
3C
7C
FC
ENDCHAR
STARTCHAR uni25E3
ENCODING 9699
BBX 6 6 0 -2
BITMAP
80
C0
E0
F0
F8
FC
ENDCHAR
STARTCHAR uni25E4
ENCODING 9700
BBX 6 6 0 4
BITMAP
FC
F8
F0
E0
C0
80
ENDCHAR
STARTCHAR uni25E5
ENCODING 9701
BBX 6 6 5 4
BITMAP
FC
7C
3C
1C
0C
04
ENDCHAR
STARTCHAR uni2605
ENCODING 9733
BBX 11 12 0 -2
BITMAP
0400
0400
0E00
0E00
FFE0
7FC0
3F80
1F00
1F00
3F80
3180
4040
ENDCHAR
STARTCHAR uni2606
ENCODING 9734
BBX 11 12 0 -2
BITMAP
0400
0400
0A00
0A00
F1E0
4040
2080
1100
1100
2E80
3180
4040
ENDCHAR
STARTCHAR uni2609
ENCODING 9737
BBX 7 7 2 0
BITMAP
38
44
82
92
82
44
38
ENDCHAR
STARTCHAR female
ENCODING 9792
BBX 5 10 3 -1
BITMAP
70
88
88
88
70
20
20
F8
20
20
ENDCHAR
STARTCHAR male
ENCODING 9794
BBX 5 11 3 -1
BITMAP
20
20
70
A8
20
20
70
88
88
88
70
ENDCHAR
STARTCHAR uni2E81
ENCODING 11905
BBX 10 12 0 -2
BITMAP
01C0
7E00
4000
4000
4000
4000
4000
4000
4000
4000
4000
8000
ENDCHAR
STARTCHAR uni2E84
ENCODING 11908
BBX 11 11 0 -2
BITMAP
FF80
0080
0080
0080
0080
0080
0080
0080
00A0
0060
0020
ENDCHAR
STARTCHAR uni2E88
ENCODING 11912
BBX 9 5 0 5
BITMAP
1000
1F80
2080
4100
8000
ENDCHAR
STARTCHAR uni2E8B
ENCODING 11915
BBX 10 11 1 -2
BITMAP
FF00
8100
8100
8100
8100
8100
8E00
8040
8040
8040
7FC0
ENDCHAR
STARTCHAR uni2E8C
ENCODING 11916
BBX 9 4 1 6
BITMAP
0800
8880
4900
0800
ENDCHAR
STARTCHAR uni2E97
ENCODING 11927
BBX 11 12 0 -2
BITMAP
1000
1000
1000
1080
5440
5240
9220
9120
1120
1000
1000
3000
ENDCHAR
STARTCHAR uni2EA7
ENCODING 11943
BBX 11 6 0 4
BITMAP
0400
2400
3FC0
4400
0400
FFE0
ENDCHAR
STARTCHAR uni2EAA
ENCODING 11946
BBX 6 11 0 -2
BITMAP
7C
04
08
10
50
5C
50
50
50
5C
E0
ENDCHAR
STARTCHAR uni2EAE
ENCODING 11950
BBX 11 4 0 6
BITMAP
2100
3DE0
5280
8840
ENDCHAR
STARTCHAR uni2EB3
ENCODING 11955
BBX 11 4 0 5
BITMAP
FFE0
9120
2080
4040
ENDCHAR
STARTCHAR uni2EB6
ENCODING 11958
BBX 11 11 0 -1
BITMAP
2080
1100
FFE0
0400
7FC0
0800
FFE0
1000
2000
4000
8000
ENDCHAR
STARTCHAR uni2EB7
ENCODING 11959
BBX 11 9 0 1
BITMAP
2080
1100
7FC0
0400
0400
7FC0
0400
0400
FFE0
ENDCHAR
STARTCHAR uni2EBB
ENCODING 11963
BBX 11 8 0 2
BITMAP
0400
3F80
0480
FFE0
0480
3F80
0400
FFE0
ENDCHAR
STARTCHAR uni2ECA
ENCODING 11978
BBX 5 11 0 -2
BITMAP
78
48
48
78
10
50
58
50
50
58
E0
ENDCHAR
STARTCHAR uni2FF0
ENCODING 12272
BBX 9 10 1 -1
BITMAP
ED80
8800
0880
8080
8800
0880
8080
8800
0880
DB80
ENDCHAR
STARTCHAR uni2FF1
ENCODING 12273
BBX 9 11 1 -1
BITMAP
ED80
0080
8000
8080
0080
B600
8080
0080
8000
8080
DB80
ENDCHAR
STARTCHAR uni2FF2
ENCODING 12274
BBX 10 10 0 0
BITMAP
B6C0
9240
1200
8040
9240
1200
8040
9240
1200
D9C0
ENDCHAR
STARTCHAR uni2FF3
ENCODING 12275
BBX 9 10 1 0
BITMAP
ED80
0080
8000
ED80
0000
8080
B680
0000
8080
B680
ENDCHAR
STARTCHAR uni2FF4
ENCODING 12276
BBX 10 11 0 -1
BITMAP
DB40
8040
0000
9A40
8240
1000
9240
9640
0000
8040
DB40
ENDCHAR
STARTCHAR uni2FF5
ENCODING 12277
BBX 10 10 1 0
BITMAP
EDC0
8040
0000
9640
9240
1200
8040
1240
9200
DB40
ENDCHAR
STARTCHAR uni2FF6
ENCODING 12278
BBX 9 10 1 -1
BITMAP
B680
A280
0000
A280
8080
2200
B680
0080
8000
ED80
ENDCHAR
STARTCHAR uni2FF7
ENCODING 12279
BBX 9 10 1 -1
BITMAP
ED80
8080
0000
B680
A080
0000
A080
B680
0000
B680
ENDCHAR
STARTCHAR uni2FF8
ENCODING 12280
BBX 9 10 1 -1
BITMAP
ED80
8000
0080
9B80
8080
1000
1080
8080
9000
DB80
ENDCHAR
STARTCHAR uni2FF9
ENCODING 12281
BBX 9 10 1 -1
BITMAP
ED80
8080
0000
EE80
8280
0200
8080
8280
0200
ED80
ENDCHAR
STARTCHAR uni2FFA
ENCODING 12282
BBX 9 10 1 -1
BITMAP
DB80
9080
0000
9080
9000
0080
9B80
8000
0080
DB80
ENDCHAR
STARTCHAR uni2FFB
ENCODING 12283
BBX 10 10 0 -1
BITMAP
D700
0100
8000
9B40
0140
9000
DB40
0040
1000
1B40
ENDCHAR
STARTCHAR uni3001
ENCODING 12289
BBX 3 4 3 0
BITMAP
80
40
60
20
ENDCHAR
STARTCHAR uni3002
ENCODING 12290
BBX 4 4 2 1
BITMAP
60
90
90
60
ENDCHAR
STARTCHAR uni3003
ENCODING 12291
BBX 6 4 1 5
BITMAP
24
6C
48
90
ENDCHAR
STARTCHAR uni3005
ENCODING 12293
BBX 9 12 1 -2
BITMAP
1000
1800
3000
2100
7F80
4300
8200
0400
2800
1800
0C00
0400
ENDCHAR
STARTCHAR uni3006
ENCODING 12294
BBX 9 10 2 -1
BITMAP
0780
0180
0100
0E00
3200
4500
8400
8800
9000
6000
ENDCHAR
STARTCHAR uni3007
ENCODING 12295
BBX 11 11 0 -2
BITMAP
0E00
3180
4040
4040
8020
8020
8020
4040
4040
3180
0E00
ENDCHAR
STARTCHAR uni3008
ENCODING 12296
BBX 5 9 5 0
BITMAP
08
10
20
40
80
40
20
10
08
ENDCHAR
STARTCHAR uni3009
ENCODING 12297
BBX 5 9 1 0
BITMAP
80
40
20
10
08
10
20
40
80
ENDCHAR
STARTCHAR uni300A
ENCODING 12298
BBX 6 9 3 0
BITMAP
24
24
48
48
90
48
48
24
24
ENDCHAR
STARTCHAR uni300B
ENCODING 12299
BBX 6 9 2 0
BITMAP
90
90
48
48
24
48
48
90
90
ENDCHAR
STARTCHAR uni300C
ENCODING 12300
BBX 3 7 7 2
BITMAP
E0
80
80
80
80
80
80
ENDCHAR
STARTCHAR uni300D
ENCODING 12301
BBX 3 8 2 -1
BITMAP
20
20
20
20
20
20
20
E0
ENDCHAR
STARTCHAR uni300E
ENCODING 12302
BBX 5 9 5 -1
BITMAP
F8
88
B8
A0
A0
A0
A0
A0
E0
ENDCHAR
STARTCHAR uni300F
ENCODING 12303
BBX 5 9 2 0
BITMAP
38
28
28
28
28
28
E8
88
F8
ENDCHAR
STARTCHAR uni3010
ENCODING 12304
BBX 5 10 5 -1
BITMAP
F8
F0
E0
C0
C0
C0
C0
E0
F0
F8
ENDCHAR
STARTCHAR uni3011
ENCODING 12305
BBX 5 10 2 -1
BITMAP
F8
78
38
18
18
18
18
38
78
F8
ENDCHAR
STARTCHAR uni3012
ENCODING 12306
BBX 11 9 0 -1
BITMAP
FFE0
0000
FFE0
0400
0400
0400
0400
0400
0400
ENDCHAR
STARTCHAR uni3013
ENCODING 12307
BBX 9 6 1 2
BITMAP
FF80
FF80
0000
0000
FF80
FF80
ENDCHAR
STARTCHAR uni3014
ENCODING 12308
BBX 3 10 6 -1
BITMAP
20
40
80
80
80
80
80
80
40
20
ENDCHAR
STARTCHAR uni3015
ENCODING 12309
BBX 3 10 2 -1
BITMAP
80
40
20
20
20
20
20
20
40
80
ENDCHAR
STARTCHAR uni3016
ENCODING 12310
BBX 5 10 5 -1
BITMAP
F8
90
A0
A0
A0
A0
A0
A0
90
F8
ENDCHAR
STARTCHAR uni3017
ENCODING 12311
BBX 5 10 2 -1
BITMAP
F8
48
28
28
28
28
28
28
48
F8
ENDCHAR
STARTCHAR uni301D
ENCODING 12317
BBX 8 4 2 5
BITMAP
CC
66
22
11
ENDCHAR
STARTCHAR uni301E
ENCODING 12318
BBX 8 4 2 5
BITMAP
33
66
44
88
ENDCHAR
STARTCHAR uni3021
ENCODING 12321
BBX 1 10 5 -1
BITMAP
80
80
80
80
80
80
80
80
80
80
ENDCHAR
STARTCHAR uni3022
ENCODING 12322
BBX 5 10 3 -1
BITMAP
08
88
88
88
88
88
88
88
88
08
ENDCHAR
STARTCHAR uni3023
ENCODING 12323
BBX 7 10 2 -1
BITMAP
82
92
92
92
92
92
92
92
92
82
ENDCHAR
STARTCHAR uni3024
ENCODING 12324
BBX 8 10 2 0
BITMAP
02
03
86
44
2C
18
1C
26
42
80
ENDCHAR
STARTCHAR uni3025
ENCODING 12325
BBX 7 11 2 -1
BITMAP
42
42
84
E4
18
24
42
42
42
42
3C
ENDCHAR
STARTCHAR uni3026
ENCODING 12326
BBX 11 6 0 3
BITMAP
0400
0400
0400
0400
0400
FFE0
ENDCHAR
STARTCHAR uni3027
ENCODING 12327
BBX 11 8 0 1
BITMAP
0400
0400
0400
0400
FFE0
0000
0000
FFE0
ENDCHAR
STARTCHAR uni3028
ENCODING 12328
BBX 11 10 0 -1
BITMAP
0400
0400
0400
0400
FFE0
0000
0000
FFE0
0000
FFE0
ENDCHAR
STARTCHAR uni3029
ENCODING 12329
BBX 10 11 1 -1
BITMAP
2000
2000
3FC0
6100
5100
8A00
0400
0A00
1100
2180
4080
ENDCHAR
STARTCHAR uni303E
ENCODING 12350
BBX 10 12 1 -2
BITMAP
B6C0
8040
9940
2600
8040
8240
3F00
8440
BF40
0800
8040
EDC0
ENDCHAR
STARTCHAR uni3041
ENCODING 12353
BBX 7 10 2 -1
BITMAP
20
20
F8
20
28
7C
AA
AA
70
20
ENDCHAR
STARTCHAR uni3042
ENCODING 12354
BBX 9 10 1 -1
BITMAP
1200
FC00
1000
1400
7F00
9480
9480
9480
7900
1000
ENDCHAR
STARTCHAR uni3043
ENCODING 12355
BBX 6 7 3 0
BITMAP
80
90
88
84
A4
C0
40
ENDCHAR
STARTCHAR uni3044
ENCODING 12356
BBX 9 7 2 0
BITMAP
8000
8200
8100
8180
8880
9000
6000
ENDCHAR
STARTCHAR uni3045
ENCODING 12357
BBX 6 10 2 0
BITMAP
30
08
10
80
78
04
04
04
08
30
ENDCHAR
STARTCHAR uni3046
ENCODING 12358
BBX 7 10 2 0
BITMAP
E0
10
20
9C
62
02
02
04
08
10
ENDCHAR
STARTCHAR uni3047
ENCODING 12359
BBX 7 9 2 0
BITMAP
70
08
10
00
78
10
20
50
8E
ENDCHAR
STARTCHAR uni3048
ENCODING 12360
BBX 7 10 2 0
BITMAP
60
10
20
00
F8
08
10
20
50
8E
ENDCHAR
STARTCHAR uni3049
ENCODING 12361
BBX 8 9 2 0
BITMAP
20
26
71
22
3C
62
A2
64
28
ENDCHAR
STARTCHAR uni304A
ENCODING 12362
BBX 9 9 2 0
BITMAP
2000
2300
F880
2100
3E00
6100
A100
B200
6C00
ENDCHAR
STARTCHAR uni304B
ENCODING 12363
BBX 10 10 0 -1
BITMAP
1000
1000
1100
7E80
2240
2280
2200
4200
5400
8800
ENDCHAR
STARTCHAR uni304C
ENCODING 12364
BBX 11 11 0 -1
BITMAP
0040
1020
1040
1120
7E80
2240
2280
2200
4200
5400
8800
ENDCHAR
STARTCHAR uni304D
ENCODING 12365
BBX 6 11 2 -1
BITMAP
20
38
E0
18
F0
08
7C
84
80
40
38
ENDCHAR
STARTCHAR uni304E
ENCODING 12366
BBX 9 11 2 -1
BITMAP
2100
3880
E200
1900
F000
0800
7C00
8400
8000
4000
3800
ENDCHAR
STARTCHAR uni304F
ENCODING 12367
BBX 4 10 3 -1
BITMAP
10
10
20
40
80
80
40
20
10
10
ENDCHAR
STARTCHAR uni3050
ENCODING 12368
BBX 9 10 2 -1
BITMAP
1100
1080
2200
4100
8000
8000
4000
2000
1000
1000
ENDCHAR
STARTCHAR uni3051
ENCODING 12369
BBX 8 10 1 -1
BITMAP
04
44
47
9C
84
84
A4
C8
48
10
ENDCHAR
STARTCHAR uni3052
ENCODING 12370
BBX 10 11 1 -1
BITMAP
0080
0440
4480
4740
9C00
8400
8400
A400
C800
4800
1000
ENDCHAR
STARTCHAR uni3053
ENCODING 12371
BBX 8 8 1 1
BITMAP
7C
08
00
00
40
80
81
7E
ENDCHAR
STARTCHAR uni3054
ENCODING 12372
BBX 10 9 1 1
BITMAP
0080
7C40
0900
0080
0000
4000
8000
8100
7E00
ENDCHAR
STARTCHAR uni3055
ENCODING 12373
BBX 7 9 2 0
BITMAP
40
2C
F0
10
38
4C
80
80
7E
ENDCHAR
STARTCHAR uni3056
ENCODING 12374
BBX 9 9 2 0
BITMAP
4100
2C80
F100
1080
3800
4C00
8000
8000
7E00
ENDCHAR
STARTCHAR uni3057
ENCODING 12375
BBX 5 8 2 0
BITMAP
80
80
80
80
80
80
88
70
ENDCHAR
STARTCHAR uni3058
ENCODING 12376
BBX 8 9 2 0
BITMAP
02
81
84
82
80
80
80
88
70
ENDCHAR
STARTCHAR uni3059
ENCODING 12377
BBX 8 10 1 -1
BITMAP
08
88
7F
08
18
2C
14
04
08
10
ENDCHAR
STARTCHAR uni305A
ENCODING 12378
BBX 10 11 1 -1
BITMAP
0080
0840
8880
7F40
0800
1800
2C00
1400
0400
0800
1000
ENDCHAR
STARTCHAR uni305B
ENCODING 12379
BBX 8 10 1 -1
BITMAP
04
24
24
FF
24
34
2C
20
20
1F
ENDCHAR
STARTCHAR uni305C
ENCODING 12380
BBX 10 11 1 -1
BITMAP
0080
0440
2500
2480
FF00
2400
3400
2C00
2000
2000
1F00
ENDCHAR
STARTCHAR uni305D
ENCODING 12381
BBX 8 9 1 0
BITMAP
38
04
18
67
F8
10
10
10
0E
ENDCHAR
STARTCHAR uni305E
ENCODING 12382
BBX 10 10 1 0
BITMAP
0080
3840
0500
1880
6700
F800
1000
1000
1000
0E00
ENDCHAR
STARTCHAR uni305F
ENCODING 12383
BBX 9 9 1 0
BITMAP
2000
3800
E000
2C00
2200
4400
5000
4800
8780
ENDCHAR
STARTCHAR uni3060
ENCODING 12384
BBX 10 10 1 0
BITMAP
0080
2040
3900
E080
2C00
2200
4400
5000
4800
8780
ENDCHAR
STARTCHAR uni3061
ENCODING 12385
BBX 8 10 1 -1
BITMAP
10
10
FE
20
3E
21
01
01
02
1C
ENDCHAR
STARTCHAR uni3062
ENCODING 12386
BBX 10 11 1 -1
BITMAP
0080
1040
1100
FE80
2000
3E00
2100
0100
0100
0200
1C00
ENDCHAR
STARTCHAR uni3063
ENCODING 12387
BBX 7 5 2 0
BITMAP
3C
C2
02
04
08
ENDCHAR
STARTCHAR uni3064
ENCODING 12388
BBX 8 8 1 0
BITMAP
1C
22
C1
01
01
02
0C
30
ENDCHAR
STARTCHAR uni3065
ENCODING 12389
BBX 9 10 1 0
BITMAP
0100
0080
1D00
2280
C100
0100
0100
0200
0C00
3000
ENDCHAR
STARTCHAR uni3066
ENCODING 12390
BBX 8 8 1 0
BITMAP
07
F8
10
10
20
20
20
1E
ENDCHAR
STARTCHAR uni3067
ENCODING 12391
BBX 11 8 0 0
BITMAP
0700
F840
1020
1080
2040
2000
2000
1E00
ENDCHAR
STARTCHAR uni3068
ENCODING 12392
BBX 7 10 2 -1
BITMAP
20
20
20
26
38
40
80
80
80
7E
ENDCHAR
STARTCHAR uni3069
ENCODING 12393
BBX 9 11 2 -1
BITMAP
0100
2080
2200
2100
2600
3800
4000
8000
8000
8000
7E00
ENDCHAR
STARTCHAR uni306A
ENCODING 12394
BBX 9 10 1 -1
BITMAP
2000
2100
F880
2100
2200
4200
4400
9E00
2500
1800
ENDCHAR
STARTCHAR uni306B
ENCODING 12395
BBX 9 9 1 -1
BITMAP
0F80
5100
4200
8000
8000
8000
A800
C900
4780
ENDCHAR
STARTCHAR uni306C
ENCODING 12396
BBX 10 10 1 -1
BITMAP
8400
8400
4700
5880
2880
6880
B280
9500
A680
4040
ENDCHAR
STARTCHAR uni306D
ENCODING 12397
BBX 9 10 1 -1
BITMAP
2000
2000
7600
2900
3100
6100
A700
6900
2A80
0400
ENDCHAR
STARTCHAR uni306E
ENCODING 12398
BBX 9 9 1 -1
BITMAP
3C00
4A00
8900
8880
9080
9080
6100
0200
0400
ENDCHAR
STARTCHAR uni306F
ENCODING 12399
BBX 8 10 1 -1
BITMAP
04
44
44
9F
84
84
A4
CE
55
18
ENDCHAR
STARTCHAR uni3070
ENCODING 12400
BBX 10 11 1 -1
BITMAP
0080
0440
4500
4480
9F00
8400
8400
A400
CE00
5500
1800
ENDCHAR
STARTCHAR uni3071
ENCODING 12401
BBX 10 11 1 -1
BITMAP
0080
0540
4540
4480
9F00
8400
8400
A400
CE00
5500
1800
ENDCHAR
STARTCHAR uni3072
ENCODING 12402
BBX 9 9 1 -1
BITMAP
7200
1200
2300
4280
4200
8400
8400
4800
3000
ENDCHAR
STARTCHAR uni3073
ENCODING 12403
BBX 10 11 1 -1
BITMAP
0080
0040
7080
1240
2300
4280
4200
8400
8400
4800
3000
ENDCHAR
STARTCHAR uni3074
ENCODING 12404
BBX 10 11 1 -1
BITMAP
0080
0140
7140
1280
2300
4280
4200
8400
8400
4800
3000
ENDCHAR
STARTCHAR uni3075
ENCODING 12405
BBX 9 10 1 -1
BITMAP
1800
0400
0800
1000
0800
0D00
1480
E580
1400
0800
ENDCHAR
STARTCHAR uni3076
ENCODING 12406
BBX 10 11 1 -1
BITMAP
0080
1840
0500
0880
1000
0800
0D00
1480
E580
1400
0800
ENDCHAR
STARTCHAR uni3077
ENCODING 12407
BBX 10 11 1 -1
BITMAP
0080
1940
0540
0880
1000
0800
0D00
1480
E580
1400
0800
ENDCHAR
STARTCHAR uni3078
ENCODING 12408
BBX 10 4 1 3
BITMAP
3000
4C00
8200
01C0
ENDCHAR
STARTCHAR uni3079
ENCODING 12409
BBX 10 6 1 3
BITMAP
0080
0040
3100
4C80
8200
01C0
ENDCHAR
STARTCHAR uni307A
ENCODING 12410
BBX 10 7 1 3
BITMAP
0100
0280
0280
3100
4C00
8200
01C0
ENDCHAR
STARTCHAR uni307B
ENCODING 12411
BBX 8 10 1 -1
BITMAP
0E
44
44
9F
84
84
A4
CE
55
18
ENDCHAR
STARTCHAR uni307C
ENCODING 12412
BBX 10 11 1 -1
BITMAP
0080
0E40
4480
4440
9F00
8400
8400
A400
CE00
5500
1800
ENDCHAR
STARTCHAR uni307D
ENCODING 12413
BBX 11 11 0 -1
BITMAP
0040
0EA0
44A0
4440
9F00
8400
8400
A400
CE00
5500
1800
ENDCHAR
STARTCHAR uni307E
ENCODING 12414
BBX 6 10 2 -1
BITMAP
10
FC
10
10
78
10
10
78
94
60
ENDCHAR
STARTCHAR uni307F
ENCODING 12415
BBX 9 9 1 -1
BITMAP
3C00
0400
0900
0900
7A00
9600
A500
4480
0800
ENDCHAR
STARTCHAR uni3080
ENCODING 12416
BBX 10 10 1 -1
BITMAP
2000
2000
3800
E180
2240
6240
A100
A100
4100
3E00
ENDCHAR
STARTCHAR uni3081
ENCODING 12417
BBX 9 9 0 0
BITMAP
0200
2200
2200
3D00
6480
9880
9880
6480
0100
ENDCHAR
STARTCHAR uni3082
ENCODING 12418
BBX 7 11 2 -1
BITMAP
20
20
A0
70
20
A4
72
22
22
22
1C
ENDCHAR
STARTCHAR uni3083
ENCODING 12419
BBX 9 10 1 -1
BITMAP
0200
1200
1400
1F00
F080
1080
0B00
0800
0400
0200
ENDCHAR
STARTCHAR uni3084
ENCODING 12420
BBX 9 10 1 -1
BITMAP
0400
2400
2800
3F00
E080
2080
1300
1000
0800
0400
ENDCHAR
STARTCHAR uni3085
ENCODING 12421
BBX 8 10 1 -1
BITMAP
04
44
4E
95
95
A5
D9
8E
10
20
ENDCHAR
STARTCHAR uni3086
ENCODING 12422
BBX 10 11 1 -1
BITMAP
0400
4400
4F00
9480
9440
A440
A440
D480
4F00
0800
1000
ENDCHAR
STARTCHAR uni3087
ENCODING 12423
BBX 7 9 2 -1
BITMAP
10
10
1C
10
10
78
94
92
60
ENDCHAR
STARTCHAR uni3088
ENCODING 12424
BBX 8 10 1 -1
BITMAP
08
08
08
0E
08
08
7C
8A
89
70
ENDCHAR
STARTCHAR uni3089
ENCODING 12425
BBX 7 10 2 -1
BITMAP
40
20
20
40
80
BC
C2
02
04
18
ENDCHAR
STARTCHAR uni308A
ENCODING 12426
BBX 5 10 3 -1
BITMAP
80
B0
C8
C8
88
88
90
10
20
40
ENDCHAR
STARTCHAR uni308B
ENCODING 12427
BBX 7 10 3 -1
BITMAP
3C
08
10
20
7C
82
32
4A
44
38
ENDCHAR
STARTCHAR uni308C
ENCODING 12428
BBX 10 9 1 0
BITMAP
2000
2000
7400
2A00
3200
6400
A400
6440
2380
ENDCHAR
STARTCHAR uni308D
ENCODING 12429
BBX 7 10 2 -1
BITMAP
7C
08
10
2C
72
82
02
04
08
10
ENDCHAR
STARTCHAR uni308E
ENCODING 12430
BBX 8 8 1 0
BITMAP
20
20
66
39
61
A1
62
04
ENDCHAR
STARTCHAR uni308F
ENCODING 12431
BBX 9 9 1 0
BITMAP
2000
2000
7000
2E00
3100
6080
A080
6100
2200
ENDCHAR
STARTCHAR uni3090
ENCODING 12432
BBX 9 9 1 -1
BITMAP
E000
2000
3E00
2100
6080
A080
A680
6900
0600
ENDCHAR
STARTCHAR uni3091
ENCODING 12433
BBX 8 10 2 -1
BITMAP
78
10
3C
42
92
3C
20
66
99
03
ENDCHAR
STARTCHAR uni3092
ENCODING 12434
BBX 7 10 2 -1
BITMAP
20
3C
E0
32
4A
8C
18
28
28
1E
ENDCHAR
STARTCHAR uni3093
ENCODING 12435
BBX 9 10 2 0
BITMAP
0800
0800
1000
1000
2000
3800
4400
4400
8480
8300
ENDCHAR
STARTCHAR uni309B
ENCODING 12443
BBX 7 4 1 5
BITMAP
88
44
66
22
ENDCHAR
STARTCHAR uni309C
ENCODING 12444
BBX 4 4 3 5
BITMAP
60
90
90
60
ENDCHAR
STARTCHAR uni309D
ENCODING 12445
BBX 9 8 2 1
BITMAP
8000
6000
1800
0C00
0600
0300
0180
3F80
ENDCHAR
STARTCHAR uni309E
ENCODING 12446
BBX 9 11 1 -1
BITMAP
0800
0600
0300
1100
0C00
C600
3200
0800
0600
0300
3F80
ENDCHAR
STARTCHAR uni30A1
ENCODING 12449
BBX 7 8 2 0
BITMAP
FC
02
2C
10
10
20
20
40
ENDCHAR
STARTCHAR uni30A2
ENCODING 12450
BBX 8 9 1 -1
BITMAP
FE
01
16
08
08
08
10
10
20
ENDCHAR
STARTCHAR uni30A3
ENCODING 12451
BBX 5 8 2 0
BITMAP
08
08
10
30
50
90
10
10
ENDCHAR
STARTCHAR uni30A4
ENCODING 12452
BBX 5 10 2 -1
BITMAP
08
08
10
30
50
90
10
10
10
10
ENDCHAR
STARTCHAR uni30A5
ENCODING 12453
BBX 7 10 2 -1
BITMAP
10
10
FE
82
82
04
04
08
10
20
ENDCHAR
STARTCHAR uni30A6
ENCODING 12454
BBX 9 11 1 -1
BITMAP
0800
0800
FF80
8080
8080
0100
0100
0200
0400
0800
1000
ENDCHAR
STARTCHAR uni30A7
ENCODING 12455
BBX 7 5 2 2
BITMAP
FC
10
10
10
FE
ENDCHAR
STARTCHAR uni30A8
ENCODING 12456
BBX 9 6 1 1
BITMAP
7F00
0800
0800
0800
0800
FF80
ENDCHAR
STARTCHAR uni30A9
ENCODING 12457
BBX 7 9 1 0
BITMAP
08
08
FE
18
28
48
88
28
10
ENDCHAR
STARTCHAR uni30AA
ENCODING 12458
BBX 9 11 1 -2
BITMAP
0400
0400
0400
FF80
0C00
1400
2400
4400
8400
1400
0800
ENDCHAR
STARTCHAR uni30AB
ENCODING 12459
BBX 7 9 1 0
BITMAP
10
10
7E
12
12
22
22
4A
84
ENDCHAR
STARTCHAR uni30AC
ENCODING 12460
BBX 10 10 1 0
BITMAP
0080
1040
1100
7E80
1200
1200
2200
2200
4A00
8400
ENDCHAR
STARTCHAR uni30AD
ENCODING 12461
BBX 6 10 1 -1
BITMAP
40
40
3C
E0
10
1C
F0
08
08
04
ENDCHAR
STARTCHAR uni30AE
ENCODING 12462
BBX 9 11 1 -1
BITMAP
0100
4080
4100
3C80
E000
1000
1C00
F000
0800
0800
0400
ENDCHAR
STARTCHAR uni30AF
ENCODING 12463
BBX 6 9 2 0
BITMAP
20
20
3C
44
84
08
10
20
40
ENDCHAR
STARTCHAR uni30B0
ENCODING 12464
BBX 8 10 2 0
BITMAP
02
21
22
3D
44
84
08
10
20
40
ENDCHAR
STARTCHAR uni30B1
ENCODING 12465
BBX 8 9 1 0
BITMAP
20
20
3F
44
84
08
10
20
40
ENDCHAR
STARTCHAR uni30B2
ENCODING 12466
BBX 10 10 1 0
BITMAP
0080
2040
2080
3F40
4400
8400
0800
1000
2000
4000
ENDCHAR
STARTCHAR uni30B3
ENCODING 12467
BBX 7 5 2 1
BITMAP
7E
02
02
04
FE
ENDCHAR
STARTCHAR uni30B4
ENCODING 12468
BBX 9 9 2 1
BITMAP
0100
0080
0200
0100
7E00
0200
0200
0400
FE00
ENDCHAR
STARTCHAR uni30B5
ENCODING 12469
BBX 9 10 1 -1
BITMAP
0400
2400
2400
2400
FF80
2400
2400
2800
0800
1000
ENDCHAR
STARTCHAR uni30B6
ENCODING 12470
BBX 9 11 1 -1
BITMAP
0100
0480
2500
2480
2400
FF80
2400
2400
2800
0800
1000
ENDCHAR
STARTCHAR uni30B7
ENCODING 12471
BBX 8 9 1 -1
BITMAP
20
10
00
41
22
04
08
90
60
ENDCHAR
STARTCHAR uni30B8
ENCODING 12472
BBX 10 11 1 -1
BITMAP
0080
0040
2100
1080
0000
4100
2200
0400
0800
9000
6000
ENDCHAR
STARTCHAR uni30B9
ENCODING 12473
BBX 7 7 2 0
BITMAP
FC
04
08
10
28
44
82
ENDCHAR
STARTCHAR uni30BA
ENCODING 12474
BBX 8 10 2 0
BITMAP
02
01
02
FD
04
08
10
28
44
82
ENDCHAR
STARTCHAR uni30BB
ENCODING 12475
BBX 9 9 1 0
BITMAP
1000
1000
1000
1F00
F100
1200
1000
1000
0F80
ENDCHAR
STARTCHAR uni30BC
ENCODING 12476
BBX 10 10 1 0
BITMAP
0080
1040
1100
1080
1F00
F100
1200
1000
1000
0F80
ENDCHAR
STARTCHAR uni30BD
ENCODING 12477
BBX 6 8 2 -1
BITMAP
84
44
08
08
10
20
40
80
ENDCHAR
STARTCHAR uni30BE
ENCODING 12478
BBX 9 11 1 -1
BITMAP
0100
0080
0100
8480
4400
0800
0800
1000
2000
4000
8000
ENDCHAR
STARTCHAR uni30BF
ENCODING 12479
BBX 7 10 1 -1
BITMAP
20
20
3E
42
82
14
08
14
22
40
ENDCHAR
STARTCHAR uni30C0
ENCODING 12480
BBX 10 11 1 -1
BITMAP
0080
2040
2100
3E80
4200
8200
1400
0800
1400
2200
4000
ENDCHAR
STARTCHAR uni30C1
ENCODING 12481
BBX 9 10 1 -1
BITMAP
0600
7800
0800
0800
FF80
0800
0800
1000
1000
2000
ENDCHAR
STARTCHAR uni30C2
ENCODING 12482
BBX 10 11 1 -1
BITMAP
0080
0640
7880
0840
0800
FF80
0800
0800
1000
1000
2000
ENDCHAR
STARTCHAR uni30C3
ENCODING 12483
BBX 6 8 2 -1
BITMAP
20
94
44
08
10
20
40
80
ENDCHAR
STARTCHAR uni30C4
ENCODING 12484
BBX 6 9 2 -1
BITMAP
20
94
44
08
08
10
20
40
80
ENDCHAR
STARTCHAR uni30C5
ENCODING 12485
BBX 9 11 1 -1
BITMAP
0100
0080
2100
9480
4400
0800
0800
1000
2000
4000
8000
ENDCHAR
STARTCHAR uni30C6
ENCODING 12486
BBX 9 10 1 -1
BITMAP
3E00
0000
0000
FF80
0800
0800
1000
1000
2000
4000
ENDCHAR
STARTCHAR uni30C7
ENCODING 12487
BBX 11 12 0 -2
BITMAP
0040
0020
3E80
0040
0000
FF80
0800
0800
1000
1000
2000
4000
ENDCHAR
STARTCHAR uni30C8
ENCODING 12488
BBX 5 11 3 -1
BITMAP
80
80
80
C0
B0
98
88
80
80
80
80
ENDCHAR
STARTCHAR uni30C9
ENCODING 12489
BBX 7 11 3 -1
BITMAP
84
82
84
C2
B0
98
88
80
80
80
80
ENDCHAR
STARTCHAR uni30CA
ENCODING 12490
BBX 7 9 2 0
BITMAP
10
10
FE
10
10
20
20
40
80
ENDCHAR
STARTCHAR uni30CB
ENCODING 12491
BBX 9 5 1 2
BITMAP
7E00
0000
0000
0000
FF80
ENDCHAR
STARTCHAR uni30CC
ENCODING 12492
BBX 6 8 3 0
BITMAP
FC
04
48
28
10
28
48
80
ENDCHAR
STARTCHAR uni30CD
ENCODING 12493
BBX 6 11 2 -1
BITMAP
20
10
00
F8
10
38
54
90
10
10
10
ENDCHAR
STARTCHAR uni30CE
ENCODING 12494
BBX 5 8 3 0
BITMAP
08
08
10
10
20
20
40
80
ENDCHAR
STARTCHAR uni30CF
ENCODING 12495
BBX 9 6 1 1
BITMAP
0400
1200
1100
2080
4080
8000
ENDCHAR
STARTCHAR uni30D0
ENCODING 12496
BBX 10 9 1 1
BITMAP
0080
0040
0100
0480
1200
1100
2080
4080
8000
ENDCHAR
STARTCHAR uni30D1
ENCODING 12497
BBX 10 9 1 1
BITMAP
0080
0140
0140
0480
1200
1100
2080
4080
8000
ENDCHAR
STARTCHAR uni30D2
ENCODING 12498
BBX 6 7 2 0
BITMAP
80
90
A0
C0
80
80
7C
ENDCHAR
STARTCHAR uni30D3
ENCODING 12499
BBX 8 10 2 0
BITMAP
02
01
04
82
90
A0
C0
80
80
7C
ENDCHAR
STARTCHAR uni30D4
ENCODING 12500
BBX 8 10 2 0
BITMAP
02
05
05
82
90
A0
C0
80
80
7C
ENDCHAR
STARTCHAR uni30D5
ENCODING 12501
BBX 7 8 1 -1
BITMAP
FE
02
04
04
08
10
20
40
ENDCHAR
STARTCHAR uni30D6
ENCODING 12502
BBX 10 11 1 -1
BITMAP
0080
0040
0100
FE80
0200
0400
0400
0800
1000
2000
4000
ENDCHAR
STARTCHAR uni30D7
ENCODING 12503
BBX 10 11 1 -1
BITMAP
0080
0140
0140
FE80
0200
0400
0400
0800
1000
2000
4000
ENDCHAR
STARTCHAR uni30D8
ENCODING 12504
BBX 10 3 1 2
BITMAP
6000
9800
07C0
ENDCHAR
STARTCHAR uni30D9
ENCODING 12505
BBX 10 8 1 2
BITMAP
0080
0040
0100
0080
0000
6000
9800
07C0
ENDCHAR
STARTCHAR uni30DA
ENCODING 12506
BBX 10 7 1 2
BITMAP
0180
0240
0240
0180
6000
9800
07C0
ENDCHAR
STARTCHAR uni30DB
ENCODING 12507
BBX 9 10 1 -1
BITMAP
0800
0800
0800
FF80
0800
4900
4880
8880
2800
1000
ENDCHAR
STARTCHAR uni30DC
ENCODING 12508
BBX 10 11 1 -1
BITMAP
0080
0840
0900
0880
FF80
0800
4900
4880
8880
2800
1000
ENDCHAR
STARTCHAR uni30DD
ENCODING 12509
BBX 10 11 1 -1
BITMAP
0080
0940
0940
0880
FF80
0800
4900
4880
8880
2800
1000
ENDCHAR
STARTCHAR uni30DE
ENCODING 12510
BBX 7 7 2 0
BITMAP
FE
02
04
28
10
08
08
ENDCHAR
STARTCHAR uni30DF
ENCODING 12511
BBX 6 9 2 0
BITMAP
30
0C
C4
30
10
00
E0
1C
04
ENDCHAR
STARTCHAR uni30E0
ENCODING 12512
BBX 8 8 1 0
BITMAP
08
08
10
10
24
22
4F
F1
ENDCHAR
STARTCHAR uni30E1
ENCODING 12513
BBX 6 8 2 0
BITMAP
04
04
28
18
1C
24
40
80
ENDCHAR
STARTCHAR uni30E2
ENCODING 12514
BBX 9 9 1 0
BITMAP
0400
7800
1000
1F80
F000
1000
1000
1000
0F00
ENDCHAR
STARTCHAR uni30E3
ENCODING 12515
BBX 8 8 1 -1
BITMAP
20
20
FF
11
12
08
08
04
ENDCHAR
STARTCHAR uni30E4
ENCODING 12516
BBX 8 10 1 0
BITMAP
40
40
20
20
FF
11
0A
08
04
04
ENDCHAR
STARTCHAR uni30E5
ENCODING 12517
BBX 8 5 2 1
BITMAP
7C
04
04
08
FF
ENDCHAR
STARTCHAR uni30E6
ENCODING 12518
BBX 10 6 1 2
BITMAP
3F00
0100
0100
0200
0200
FFC0
ENDCHAR
STARTCHAR uni30E7
ENCODING 12519
BBX 7 5 2 1
BITMAP
FE
02
FE
02
FE
ENDCHAR
STARTCHAR uni30E8
ENCODING 12520
BBX 6 7 2 0
BITMAP
FC
04
04
FC
04
04
FC
ENDCHAR
STARTCHAR uni30E9
ENCODING 12521
BBX 6 9 2 0
BITMAP
78
00
00
FC
04
08
08
10
20
ENDCHAR
STARTCHAR uni30EA
ENCODING 12522
BBX 4 10 3 -1
BITMAP
10
90
90
90
90
90
10
20
20
40
ENDCHAR
STARTCHAR uni30EB
ENCODING 12523
BBX 10 8 0 0
BITMAP
0200
1200
1200
2200
2200
4240
8280
0300
ENDCHAR
STARTCHAR uni30EC
ENCODING 12524
BBX 6 7 2 0
BITMAP
80
84
88
90
A0
C0
80
ENDCHAR
STARTCHAR uni30ED
ENCODING 12525
BBX 6 7 2 1
BITMAP
FC
84
84
88
88
FC
80
ENDCHAR
STARTCHAR uni30EE
ENCODING 12526
BBX 7 8 2 -1
BITMAP
FE
82
82
04
04
08
10
20
ENDCHAR
STARTCHAR uni30EF
ENCODING 12527
BBX 9 9 1 -1
BITMAP
FF80
8080
8080
0100
0100
0200
0400
0800
1000
ENDCHAR
STARTCHAR uni30F0
ENCODING 12528
BBX 10 9 0 0
BITMAP
0400
0400
3F00
2400
2400
FFC0
0400
0400
0400
ENDCHAR
STARTCHAR uni30F1
ENCODING 12529
BBX 9 6 1 2
BITMAP
7E00
0400
0800
0800
0800
FF80
ENDCHAR
STARTCHAR uni30F2
ENCODING 12530
BBX 8 9 2 -1
BITMAP
FE
02
FF
04
04
08
08
10
20
ENDCHAR
STARTCHAR uni30F3
ENCODING 12531
BBX 8 9 1 -1
BITMAP
20
10
00
01
02
04
08
90
60
ENDCHAR
STARTCHAR uni30F4
ENCODING 12532
BBX 10 11 1 -1
BITMAP
0080
1040
1100
FE80
8200
8200
0400
0400
0800
1000
2000
ENDCHAR
STARTCHAR uni30F5
ENCODING 12533
BBX 5 8 3 1
BITMAP
20
20
F8
28
28
48
48
98
ENDCHAR
STARTCHAR uni30F6
ENCODING 12534
BBX 7 8 2 0
BITMAP
40
40
7E
88
08
10
20
40
ENDCHAR
STARTCHAR uni30FC
ENCODING 12540
BBX 11 3 0 4
BITMAP
0FC0
F8E0
6000
ENDCHAR
STARTCHAR uni30FD
ENCODING 12541
BBX 5 5 3 4
BITMAP
80
60
30
18
10
ENDCHAR
STARTCHAR uni30FE
ENCODING 12542
BBX 9 12 2 -2
BITMAP
0800
0600
2300
1980
0C80
8600
6400
3000
1800
0C00
0600
0400
ENDCHAR
STARTCHAR uni3105
ENCODING 12549
BBX 8 10 1 -1
BITMAP
20
40
FF
01
01
01
01
01
0A
04
ENDCHAR
STARTCHAR uni3106
ENCODING 12550
BBX 7 10 2 -1
BITMAP
20
40
FE
02
04
14
08
14
20
40
ENDCHAR
STARTCHAR uni3107
ENCODING 12551
BBX 7 6 2 1
BITMAP
FE
82
82
82
82
82
ENDCHAR
STARTCHAR uni3108
ENCODING 12552
BBX 9 8 1 0
BITMAP
FF80
4000
4000
4000
4000
4000
4000
3F80
ENDCHAR
STARTCHAR uni3109
ENCODING 12553
BBX 8 10 1 -1
BITMAP
20
20
7F
09
09
11
11
21
4A
84
ENDCHAR
STARTCHAR uni310A
ENCODING 12554
BBX 7 9 2 0
BITMAP
10
10
FE
10
10
20
44
FE
02
ENDCHAR
STARTCHAR uni310B
ENCODING 12555
BBX 7 10 2 -1
BITMAP
FC
08
10
3E
02
02
02
02
14
08
ENDCHAR
STARTCHAR uni310C
ENCODING 12556
BBX 8 10 1 -1
BITMAP
08
28
28
7F
09
11
11
21
45
82
ENDCHAR
STARTCHAR uni310D
ENCODING 12557
BBX 7 8 2 0
BITMAP
12
24
48
90
90
48
24
12
ENDCHAR
STARTCHAR uni310E
ENCODING 12558
BBX 9 9 1 -1
BITMAP
FF80
1000
2000
3F00
0100
0100
0100
0A00
0400
ENDCHAR
STARTCHAR uni310F
ENCODING 12559
BBX 10 9 0 -1
BITMAP
3FC0
2000
2000
2000
2000
2000
4000
4000
8000
ENDCHAR
STARTCHAR uni3110
ENCODING 12560
BBX 5 10 3 -1
BITMAP
08
88
88
88
98
A8
C8
08
08
08
ENDCHAR
STARTCHAR uni3111
ENCODING 12561
BBX 4 9 2 0
BITMAP
10
10
20
40
80
40
20
10
10
ENDCHAR
STARTCHAR uni3112
ENCODING 12562
BBX 9 8 1 0
BITMAP
FF80
0800
0800
0800
0800
0800
0800
0800
ENDCHAR
STARTCHAR uni3113
ENCODING 12563
BBX 9 9 1 0
BITMAP
0800
4900
4900
4900
4900
7F00
0800
0800
FF80
ENDCHAR
STARTCHAR uni3114
ENCODING 12564
BBX 5 10 2 -1
BITMAP
08
10
20
48
90
30
50
90
10
10
ENDCHAR
STARTCHAR uni3115
ENCODING 12565
BBX 9 9 0 -1
BITMAP
3F80
0080
3F80
2000
2000
2000
4000
4000
8000
ENDCHAR
STARTCHAR uni3116
ENCODING 12566
BBX 5 8 3 0
BITMAP
F8
88
88
C8
A8
88
88
F8
ENDCHAR
STARTCHAR uni3117
ENCODING 12567
BBX 6 9 2 -1
BITMAP
FC
44
44
44
54
48
40
40
40
ENDCHAR
STARTCHAR uni3118
ENCODING 12568
BBX 9 11 1 -2
BITMAP
0800
0800
FF80
1000
2000
3F00
0100
0100
0200
0200
0400
ENDCHAR
STARTCHAR uni3119
ENCODING 12569
BBX 7 9 2 0
BITMAP
10
10
10
20
20
40
44
FE
02
ENDCHAR
STARTCHAR uni311A
ENCODING 12570
BBX 7 10 2 -1
BITMAP
82
44
28
10
10
10
10
10
10
10
ENDCHAR
STARTCHAR uni311B
ENCODING 12571
BBX 7 8 2 0
BITMAP
FE
10
10
70
80
80
80
7C
ENDCHAR
STARTCHAR uni311C
ENCODING 12572
BBX 9 9 1 0
BITMAP
0800
0800
FF80
0800
3800
4000
4000
4100
3E00
ENDCHAR
STARTCHAR uni311D
ENCODING 12573
BBX 10 8 0 0
BITMAP
1200
1200
FFC0
1200
1200
1400
1000
0F80
ENDCHAR
STARTCHAR uni311E
ENCODING 12574
BBX 7 9 2 0
BITMAP
FE
10
90
FE
22
22
44
84
08
ENDCHAR
STARTCHAR uni311F
ENCODING 12575
BBX 7 8 2 0
BITMAP
E0
20
20
20
10
10
08
06
ENDCHAR
STARTCHAR uni3120
ENCODING 12576
BBX 6 9 2 0
BITMAP
20
24
44
48
F0
20
48
FC
04
ENDCHAR
STARTCHAR uni3121
ENCODING 12577
BBX 7 9 2 -1
BITMAP
FE
02
04
44
28
10
28
44
80
ENDCHAR
STARTCHAR uni3122
ENCODING 12578
BBX 7 10 2 -1
BITMAP
FC
44
48
88
FE
02
02
04
04
08
ENDCHAR
STARTCHAR uni3123
ENCODING 12579
BBX 6 9 3 0
BITMAP
80
80
80
80
FC
04
04
08
08
ENDCHAR
STARTCHAR uni3124
ENCODING 12580
BBX 9 9 1 0
BITMAP
1000
1000
1000
FF80
1400
1400
2400
2400
4380
ENDCHAR
STARTCHAR uni3125
ENCODING 12581
BBX 8 9 1 0
BITMAP
08
08
08
10
10
20
20
4F
F0
ENDCHAR
STARTCHAR uni3126
ENCODING 12582
BBX 10 8 1 0
BITMAP
2400
2400
2400
2400
2400
4440
4440
83C0
ENDCHAR
STARTCHAR uni3127
ENCODING 12583
BBX 1 10 5 -1
BITMAP
80
80
80
80
80
80
80
80
80
80
ENDCHAR
STARTCHAR uni3128
ENCODING 12584
BBX 7 8 2 0
BITMAP
04
84
44
28
18
18
24
C2
ENDCHAR
STARTCHAR uni3129
ENCODING 12585
BBX 7 7 2 1
BITMAP
02
82
82
82
82
FE
02
ENDCHAR
STARTCHAR uni3220
ENCODING 12832
BBX 11 11 0 -1
BITMAP
2080
4040
4040
8020
8020
BFA0
8020
8020
4040
4040
2080
ENDCHAR
STARTCHAR uni3221
ENCODING 12833
BBX 11 11 0 -1
BITMAP
2080
4040
4040
9F20
8020
8020
8020
BFA0
4040
4040
2080
ENDCHAR
STARTCHAR uni3222
ENCODING 12834
BBX 11 11 0 -1
BITMAP
2080
4040
5E40
8020
8020
9E20
8020
8020
7F40
4040
2080
ENDCHAR
STARTCHAR uni3223
ENCODING 12835
BBX 11 11 0 -1
BITMAP
2080
4040
7FC0
AAA0
AAA0
ABA0
B0A0
A0A0
7FC0
4040
2080
ENDCHAR
STARTCHAR uni3224
ENCODING 12836
BBX 11 11 0 -1
BITMAP
2080
4040
7F40
8820
8820
BF20
9120
9120
7FC0
4040
2080
ENDCHAR
STARTCHAR uni3225
ENCODING 12837
BBX 11 11 0 -1
BITMAP
2080
4840
4440
8020
BFA0
8020
8A20
9120
60C0
4040
2080
ENDCHAR
STARTCHAR uni3226
ENCODING 12838
BBX 11 11 0 -1
BITMAP
2080
4840
4840
8820
8F20
B820
8820
8920
4940
4740
2080
ENDCHAR
STARTCHAR uni3227
ENCODING 12839
BBX 11 11 0 -1
BITMAP
2080
4040
4240
9220
9220
9120
9120
A0A0
4040
4040
2080
ENDCHAR
STARTCHAR uni3228
ENCODING 12840
BBX 11 11 0 -1
BITMAP
2080
4840
4840
8820
BE20
8A20
8A20
92A0
61C0
4040
2080
ENDCHAR
STARTCHAR uni3229
ENCODING 12841
BBX 11 11 0 -1
BITMAP
2080
4440
4440
8420
8420
BFA0
8420
8420
4440
4440
2080
ENDCHAR
STARTCHAR uni3231
ENCODING 12849
BBX 11 12 0 -2
BITMAP
4040
9120
9520
FFE0
9520
BBE0
B520
D3A0
9560
9120
9120
4040
ENDCHAR
STARTCHAR uni32A3
ENCODING 12963
BBX 9 9 1 0
BITMAP
3E00
4100
BE80
8880
AE80
A880
FF80
4100
3E00
ENDCHAR
STARTCHAR uni338E
ENCODING 13198
BBX 11 9 0 -1
BITMAP
51A0
AA40
AA40
A980
A900
A9C0
AA20
0220
01C0
ENDCHAR
STARTCHAR uni338F
ENCODING 13199
BBX 10 11 1 -1
BITMAP
8000
8000
8340
9480
A480
C300
A200
9380
8440
0440
0380
ENDCHAR
STARTCHAR uni339C
ENCODING 13212
BBX 11 7 0 1
BITMAP
5140
AAA0
AAA0
AAA0
AAA0
AAA0
AAA0
ENDCHAR
STARTCHAR uni339D
ENCODING 13213
BBX 10 7 0 1
BITMAP
6280
9540
8540
8540
8540
9540
6540
ENDCHAR
STARTCHAR uni339E
ENCODING 13214
BBX 10 9 0 1
BITMAP
8000
8000
9280
A540
A540
C540
A540
A540
9540
ENDCHAR
STARTCHAR uni33A1
ENCODING 13217
BBX 9 9 1 1
BITMAP
0300
0480
5080
A900
AB80
A800
A800
A800
A800
ENDCHAR
STARTCHAR uni33C4
ENCODING 13252
BBX 11 6 0 2
BITMAP
71C0
8A20
8200
8200
8A20
71C0
ENDCHAR
STARTCHAR uni33CE
ENCODING 13262
BBX 10 9 1 0
BITMAP
9440
A6C0
A6C0
A6C0
C540
A540
A540
A440
9440
ENDCHAR
STARTCHAR uni33D1
ENCODING 13265
BBX 7 9 2 1
BITMAP
80
80
AC
92
92
92
92
92
92
ENDCHAR
STARTCHAR uni33D2
ENCODING 13266
BBX 11 11 0 -1
BITMAP
8000
8000
91A0
AA40
AA40
A980
A900
A9C0
9220
0220
01C0
ENDCHAR
STARTCHAR uni33D5
ENCODING 13269
BBX 9 9 0 1
BITMAP
0280
0080
5280
AA80
AA80
AA80
AA80
AA80
AA80
ENDCHAR
STARTCHAR uni3400
ENCODING 13312
BBX 11 12 0 -2
BITMAP
1100
1100
1100
1100
1100
F1E0
1100
1100
1100
1100
1100
FFE0
ENDCHAR
STARTCHAR uni3401
ENCODING 13313
BBX 11 12 0 -2
BITMAP
FFE0
0400
0400
7FC0
4440
4440
4A40
5140
6140
4040
7FC0
4040
ENDCHAR
STARTCHAR uni3402
ENCODING 13314
BBX 11 12 0 -2
BITMAP
0800
0800
0FC0
F800
0840
27C0
2100
39E0
E700
2120
2920
30E0
ENDCHAR
STARTCHAR uni3403
ENCODING 13315
BBX 11 12 0 -2
BITMAP
0400
0A00
1100
2080
4040
8020
FFE0
0400
0400
0400
0400
0400
ENDCHAR
STARTCHAR uni3404
ENCODING 13316
BBX 10 12 1 -2
BITMAP
0400
0400
FF80
0400
4400
4400
8400
FFC0
0400
0400
0400
0400
ENDCHAR
STARTCHAR uni3405
ENCODING 13317
BBX 11 12 0 -2
BITMAP
0020
4020
2040
1040
0880
0500
0200
0500
0880
1040
2020
C020
ENDCHAR
STARTCHAR uni3406
ENCODING 13318
BBX 11 12 0 -2
BITMAP
03C0
7C00
4000
7FC0
4040
7FC0
4040
7FC0
4000
7FE0
4020
80C0
ENDCHAR
STARTCHAR uni3407
ENCODING 13319
BBX 11 12 0 -2
BITMAP
0800
7F00
0900
1100
2120
C0E0
0000
7F80
0300
3C20
4020
3FE0
ENDCHAR
STARTCHAR uni3408
ENCODING 13320
BBX 11 12 0 -2
BITMAP
1800
0400
0A00
3180
C060
0000
7FC0
0180
0E00
3020
4020
3FE0
ENDCHAR
STARTCHAR uni3409
ENCODING 13321
BBX 11 12 0 -2
BITMAP
FFE0
0400
0400
0400
1C00
0000
7FC0
0180
0E00
3020
4020
3FE0
ENDCHAR
STARTCHAR uni340A
ENCODING 13322
BBX 11 12 0 -2
BITMAP
0400
0400
FFE0
0400
7FC0
0000
7FC0
0180
0E00
3020
4020
3FE0
ENDCHAR
STARTCHAR uni340B
ENCODING 13323
BBX 11 12 0 -2
BITMAP
0400
0400
7FC0
0400
FFE0
0000
7FC0
0180
0E00
3020
4020
3FE0
ENDCHAR
STARTCHAR uni340C
ENCODING 13324
BBX 11 12 0 -2
BITMAP
2000
2000
3FE0
4400
8400
25C0
2E40
F440
24C0
2400
2020
1FE0
ENDCHAR
STARTCHAR uni340D
ENCODING 13325
BBX 11 12 0 -2
BITMAP
03E0
FC00
0040
4840
2480
0000
7FC0
0180
0E00
3020
4020
3FE0
ENDCHAR
STARTCHAR uni340E
ENCODING 13326
BBX 11 12 0 -2
BITMAP
0400
FFE0
1100
0E00
3180
C060
0000
7F80
0300
3C20
4020
3FE0
ENDCHAR
STARTCHAR uni340F
ENCODING 13327
BBX 11 12 0 -2
BITMAP
7FC0
0800
7F80
1080
FFE0
0000
7FC0
0180
0E00
3020
4020
3FE0
ENDCHAR
STARTCHAR uni3410
ENCODING 13328
BBX 11 12 0 -2
BITMAP
2000
FBC0
4A40
3180
CA60
0000
7FC0
0180
0E00
3020
4020
3FE0
ENDCHAR
STARTCHAR uni3411
ENCODING 13329
BBX 11 12 0 -2
BITMAP
1000
3F80
5100
0E00
3580
D260
0800
7F80
0300
3C20
4020
3FE0
ENDCHAR
STARTCHAR uni3412
ENCODING 13330
BBX 11 12 0 -2
BITMAP
7FC0
2040
40C0
BF80
2080
3F80
0000
7F80
0300
3C20
4020
3FE0
ENDCHAR
STARTCHAR uni3413
ENCODING 13331
BBX 11 12 0 -2
BITMAP
FFE0
0040
7E40
4240
7E40
00C0
0000
7F80
0300
3C20
4020
3FE0
ENDCHAR
STARTCHAR uni3414
ENCODING 13332
BBX 11 12 0 -2
BITMAP
0400
FFE0
0000
7FC0
4040
7FC0
0000
7F80
0300
3C20
4020
3FE0
ENDCHAR
STARTCHAR uni3415
ENCODING 13333
BBX 10 12 1 -2
BITMAP
0800
FF80
8880
FF80
8880
FF80
0000
FF00
0600
7840
8040
7FC0
ENDCHAR
STARTCHAR uni3416
ENCODING 13334
BBX 11 12 0 -2
BITMAP
1100
1100
FF00
1100
1100
7D00
0100
7D00
4500
4520
7D20
44E0
ENDCHAR
STARTCHAR uni3417
ENCODING 13335
BBX 11 12 0 -2
BITMAP
0440
3E80
0500
FFE0
0900
3A20
C7E0
0000
FF80
1E00
6020
3FE0
ENDCHAR
STARTCHAR uni3418
ENCODING 13336
BBX 11 12 0 -2
BITMAP
2480
1500
FFE0
1500
2480
C460
0000
7F80
0300
3C20
4020
3FE0
ENDCHAR
STARTCHAR uni3419
ENCODING 13337
BBX 11 12 0 -2
BITMAP
FFE0
0000
7FC0
4040
7FC0
2080
FFE0
0000
FF80
1E00
6020
3FE0
ENDCHAR
STARTCHAR uni341A
ENCODING 13338
BBX 11 12 0 -2
BITMAP
7FC0
0800
7F80
1080
FFE0
4040
7FC0
0000
FF80
1E00
6020
3FE0
ENDCHAR
STARTCHAR uni341B
ENCODING 13339
BBX 11 12 0 -2
BITMAP
1200
3FE0
6400
AFC0
3440
27C0
0000
7F80
0300
3C20
4020
3FE0
ENDCHAR
STARTCHAR uni341C
ENCODING 13340
BBX 11 12 0 -2
BITMAP
2200
2A00
2200
F780
2280
AA80
7280
2280
7280
AAA0
24A0
6860
ENDCHAR
STARTCHAR uni341D
ENCODING 13341
BBX 11 12 0 -2
BITMAP
2400
F7E0
2820
37A0
E4A0
27A0
6060
7F80
0300
3C20
4020
3FE0
ENDCHAR
STARTCHAR uni341E
ENCODING 13342
BBX 11 12 0 -2
BITMAP
2080
7FC0
2080
3F80
2080
FFE0
2080
5F40
8620
1800
2040
1FC0
ENDCHAR
STARTCHAR uni341F
ENCODING 13343
BBX 11 12 0 -2
BITMAP
1100
F1E0
1100
71C0
1100
F1E0
1100
7F80
0300
3C20
4020
3FE0
ENDCHAR
STARTCHAR uni3420
ENCODING 13344
BBX 11 12 0 -2
BITMAP
0E80
F280
5480
FC80
08A0
FEA0
1060
7F80
0300
3C20
4020
3FE0
ENDCHAR
STARTCHAR uni3421
ENCODING 13345
BBX 11 12 0 -2
BITMAP
4FE0
4100
4FE0
FAA0
5AA0
5860
5100
5FE0
5280
5440
5020
8FE0
ENDCHAR
STARTCHAR uni3422
ENCODING 13346
BBX 11 12 0 -2
BITMAP
40E0
2F20
8540
4FC0
2080
5FE0
8100
0300
FF80
1E00
6020
3FE0
ENDCHAR
STARTCHAR uni3423
ENCODING 13347
BBX 11 12 0 -2
BITMAP
0400
7FE0
4200
7FE0
5240
5FC0
5240
7FE0
4180
4E00
5020
8FE0
ENDCHAR
STARTCHAR uni3424
ENCODING 13348
BBX 11 12 0 -2
BITMAP
4100
4FE0
4100
F7C0
5440
5540
5540
5FE0
5280
5440
5020
8FE0
ENDCHAR
STARTCHAR uni3425
ENCODING 13349
BBX 11 12 0 -2
BITMAP
4E80
AA80
EFE0
4AA0
EEA0
5BA0
EEA0
4160
FF80
1E00
6020
3FE0
ENDCHAR
STARTCHAR uni3426
ENCODING 13350
BBX 11 12 0 -2
BITMAP
2EC0
4840
4E40
62C0
4A40
FFE0
2080
5F40
8620
1800
2040
1FC0
ENDCHAR
STARTCHAR uni3427
ENCODING 13351
BBX 11 12 0 -2
BITMAP
0200
2200
1200
0200
FFE0
0620
0A40
1200
2200
C200
0200
0E00
ENDCHAR
STARTCHAR uni3428
ENCODING 13352
BBX 11 11 0 -2
BITMAP
FBE0
0820
5140
2080
1040
FBE0
28A0
2080
2080
2080
6180
ENDCHAR
STARTCHAR uni3429
ENCODING 13353
BBX 11 12 0 -2
BITMAP
5140
5140
5140
FBE0
5140
5140
5140
FBE0
5140
5140
5240
9440
ENDCHAR
STARTCHAR uni342A
ENCODING 13354
BBX 11 12 0 -2
BITMAP
0800
0400
FFE0
0000
0400
4440
4440
7FC0
0400
0A00
3180
C060
ENDCHAR
STARTCHAR uni342B
ENCODING 13355
BBX 11 12 0 -2
BITMAP
0800
0400
FFE0
0000
1100
4A40
4440
4A40
5140
4040
7FC0
0040
ENDCHAR
STARTCHAR uni342C
ENCODING 13356
BBX 11 12 0 -2
BITMAP
0800
0400
FFE0
1000
2080
7FC0
0040
2480
2480
2480
44A0
8460
ENDCHAR
STARTCHAR uni342D
ENCODING 13357
BBX 11 12 0 -2
BITMAP
0800
0400
FFE0
0000
7FC0
4040
5F40
5140
5140
5F40
4040
7FC0
ENDCHAR
STARTCHAR uni342E
ENCODING 13358
BBX 11 12 0 -2
BITMAP
0400
FFE0
4040
9120
7FC0
1100
7FC0
1100
FFE0
0A40
3180
D860
ENDCHAR
STARTCHAR uni342F
ENCODING 13359
BBX 11 12 0 -2
BITMAP
0400
FFE0
1100
7FC0
4040
7FC0
0400
FFE0
2480
7FC0
A0A0
3F80
ENDCHAR
STARTCHAR uni3430
ENCODING 13360
BBX 11 12 0 -2
BITMAP
1000
17E0
2420
2420
6420
A420
2420
2420
2420
2420
27E0
2420
ENDCHAR
STARTCHAR uni3431
ENCODING 13361
BBX 11 12 0 -2
BITMAP
0400
0A00
1100
2080
C260
0C00
7100
0200
0C40
7080
0300
7C00
ENDCHAR
STARTCHAR uni3432
ENCODING 13362
BBX 11 12 0 -2
BITMAP
1100
1100
2100
2100
6FE0
A100
2280
2280
2280
2440
2440
2820
ENDCHAR
STARTCHAR uni3433
ENCODING 13363
BBX 11 12 0 -2
BITMAP
1000
1FE0
2480
2480
6480
A480
2480
2480
2480
24A0
28A0
3060
ENDCHAR
STARTCHAR uni3434
ENCODING 13364
BBX 11 12 0 -2
BITMAP
1200
1200
23E0
2420
6420
AA40
3140
2080
2080
2100
2200
2400
ENDCHAR
STARTCHAR uni3435
ENCODING 13365
BBX 11 12 0 -2
BITMAP
1000
17C0
2100
2100
6100
AFE0
2100
2100
2100
2100
2100
2700
ENDCHAR
STARTCHAR uni3436
ENCODING 13366
BBX 11 12 0 -2
BITMAP
1000
17C0
2440
2440
6440
A440
27C0
2400
2400
2420
2420
23E0
ENDCHAR
STARTCHAR uni3437
ENCODING 13367
BBX 11 12 0 -2
BITMAP
17C0
1040
2440
2440
6440
A7E0
2020
2020
2FA0
2020
2020
20C0
ENDCHAR
STARTCHAR uni3438
ENCODING 13368
BBX 11 12 0 -2
BITMAP
1200
1200
23E0
2420
6440
A900
2100
2100
2280
2280
2440
2820
ENDCHAR
STARTCHAR uni3439
ENCODING 13369
BBX 11 12 0 -2
BITMAP
1400
1400
27C0
2800
6780
A000
2F80
2080
2080
20A0
2060
2020
ENDCHAR
STARTCHAR uni343A
ENCODING 13370
BBX 11 12 0 -2
BITMAP
2500
2500
4900
4900
D900
6900
4A80
4A80
4A80
4A40
4A40
4C20
ENDCHAR
STARTCHAR uni343B
ENCODING 13371
BBX 11 12 0 -2
BITMAP
1100
1100
2FE0
2920
6920
A920
2AA0
2C60
2820
2820
2820
2860
ENDCHAR
STARTCHAR uni343C
ENCODING 13372
BBX 11 12 0 -2
BITMAP
2280
2C80
4480
4480
C480
5FE0
4480
4480
4480
4880
4880
5080
ENDCHAR
STARTCHAR uni343D
ENCODING 13373
BBX 11 12 0 -2
BITMAP
2000
3FC0
5040
58C0
D540
5240
5240
5540
58C0
5040
5060
6020
ENDCHAR
STARTCHAR uni343E
ENCODING 13374
BBX 11 12 0 -2
BITMAP
2000
2FC0
4000
4000
DFE0
4480
4480
4480
4480
48A0
48A0
5060
ENDCHAR
STARTCHAR uni343F
ENCODING 13375
BBX 11 12 0 -2
BITMAP
10C0
1700
2100
2100
67C0
A100
2100
2FE0
2100
2100
2100
2300
ENDCHAR
STARTCHAR uni3440
ENCODING 13376
BBX 11 12 0 -2
BITMAP
2200
2200
4200
7FE0
C200
4500
4500
4500
4880
4C80
5240
6020
ENDCHAR
STARTCHAR uni3441
ENCODING 13377
BBX 11 12 0 -2
BITMAP
2100
2100
4920
4920
C920
4FE0
4100
4920
4920
4920
4FE0
4020
ENDCHAR
STARTCHAR uni3442
ENCODING 13378
BBX 11 12 0 -2
BITMAP
1000
1FE0
2100
2100
6FE0
A920
2920
2AA0
2C60
2820
2820
2860
ENDCHAR
STARTCHAR uni3443
ENCODING 13379
BBX 11 12 0 -2
BITMAP
1480
1480
2480
29E0
6AA0
AEA0
24A0
24A0
2AA0
2F20
2120
2260
ENDCHAR
STARTCHAR uni3444
ENCODING 13380
BBX 11 12 0 -2
BITMAP
2000
2FC0
4840
4A40
C940
7FE0
5040
5240
5140
5FE0
4040
4180
ENDCHAR
STARTCHAR uni3445
ENCODING 13381
BBX 11 12 0 -2
BITMAP
1400
1400
27E0
2A00
6200
A200
23C0
2200
2200
2200
2200
2FE0
ENDCHAR
STARTCHAR uni3446
ENCODING 13382
BBX 11 12 0 -2
BITMAP
1000
17C0
2440
2440
6440
A440
27C0
2280
2280
2280
24A0
2860
ENDCHAR
STARTCHAR uni3447
ENCODING 13383
BBX 11 12 0 -2
BITMAP
1200
17C0
2840
3080
6FE0
A020
2020
27E0
2020
2020
2FE0
2020
ENDCHAR
STARTCHAR uni3448
ENCODING 13384
BBX 11 12 0 -2
BITMAP
1200
1200
2FE0
2400
6500
A900
2FE0
2100
2940
2920
3120
2300
ENDCHAR
STARTCHAR uni3449
ENCODING 13385
BBX 11 12 0 -2
BITMAP
3FC0
3040
5F40
5440
D440
5740
5940
5540
5240
5240
5460
6820
ENDCHAR
STARTCHAR uni344A
ENCODING 13386
BBX 11 12 0 -2
BITMAP
2200
2100
5FE0
4480
C480
4480
54C0
54A0
64A0
4480
4880
5180
ENDCHAR
STARTCHAR uni344B
ENCODING 13387
BBX 11 12 0 -2
BITMAP
1280
1280
2FE0
2AA0
6AA0
AAA0
2FE0
2AA0
2AA0
2AA0
2FE0
2820
ENDCHAR
STARTCHAR uni344C
ENCODING 13388
BBX 11 12 0 -2
BITMAP
2000
3FE0
5000
57C0
D100
5100
57C0
5100
5100
57C0
5000
5FE0
ENDCHAR
STARTCHAR uni344D
ENCODING 13389
BBX 11 12 0 -2
BITMAP
2200
2200
5FE0
4200
DFC0
4200
7FE0
4700
4A80
5240
6220
4200
ENDCHAR
STARTCHAR uni344E
ENCODING 13390
BBX 11 12 0 -2
BITMAP
2920
2920
5240
4920
C920
4000
4100
4920
4920
4920
4FE0
4020
ENDCHAR
STARTCHAR uni344F
ENCODING 13391
BBX 11 12 0 -2
BITMAP
2200
2100
5FE0
5020
C080
5FE0
4080
4880
4480
4080
4080
4380
ENDCHAR
STARTCHAR uni3450
ENCODING 13392
BBX 11 12 0 -2
BITMAP
2200
2200
43C0
4200
C200
5FE0
4000
4200
4A80
5240
6220
4600
ENDCHAR
STARTCHAR uni3451
ENCODING 13393
BBX 11 12 0 -2
BITMAP
2100
2200
4FE0
4820
C820
4FE0
4820
4820
4FE0
4820
4820
4FE0
ENDCHAR
STARTCHAR uni3452
ENCODING 13394
BBX 11 12 0 -2
BITMAP
0400
0A00
3180
C060
3F80
0400
7FC0
4440
7FC0
0A00
3180
C060
ENDCHAR
STARTCHAR uni3453
ENCODING 13395
BBX 11 12 0 -2
BITMAP
2200
2480
4840
5FE0
C400
7FE0
4800
4FC0
5440
6480
4300
5CE0
ENDCHAR
STARTCHAR uni3454
ENCODING 13396
BBX 11 12 0 -2
BITMAP
2FE0
2100
4200
4FE0
C820
4920
4920
4920
4920
4280
4440
5820
ENDCHAR
STARTCHAR uni3455
ENCODING 13397
BBX 11 12 0 -2
BITMAP
1100
1920
2920
2FE0
6200
A3E0
2420
2A20
2140
2080
2300
2C00
ENDCHAR
STARTCHAR uni3456
ENCODING 13398
BBX 11 12 0 -2
BITMAP
2480
2480
4880
4BE0
DAA0
4AA0
4AA0
4BE0
4AA0
4880
4880
4880
ENDCHAR
STARTCHAR uni3457
ENCODING 13399
BBX 11 12 0 -2
BITMAP
1100
17C0
2440
27C0
6440
A7C0
2460
2FC0
20C0
2340
2C40
21C0
ENDCHAR
STARTCHAR uni3458
ENCODING 13400
BBX 11 12 0 -2
BITMAP
20A0
2080
5FE0
4080
CA80
4AA0
5FA0
4AC0
4AC0
4AA0
5160
4220
ENDCHAR
STARTCHAR uni3459
ENCODING 13401
BBX 11 12 0 -2
BITMAP
2000
3FE0
4A00
4A80
CE80
4A80
4E80
4A80
4B80
5EA0
42A0
4260
ENDCHAR
STARTCHAR uni345A
ENCODING 13402
BBX 11 12 0 -2
BITMAP
2000
3EE0
4AA0
4AA0
DEC0
4AC0
4AA0
5EA0
4AA0
4AC0
5280
6680
ENDCHAR
STARTCHAR uni345B
ENCODING 13403
BBX 11 12 0 -2
BITMAP
1100
1100
2FE0
2100
6FE0
A920
2920
2FE0
2380
2540
2920
2100
ENDCHAR
STARTCHAR uni345C
ENCODING 13404
BBX 11 12 0 -2
BITMAP
2840
2980
4900
5D00
C9E0
4940
4D40
5940
4940
4940
4940
5A40
ENDCHAR
STARTCHAR uni345D
ENCODING 13405
BBX 11 12 0 -2
BITMAP
1000
1FE0
2100
27C0
6100
AFE0
2000
2440
2FE0
2440
2440
2840
ENDCHAR
STARTCHAR uni345E
ENCODING 13406
BBX 11 12 0 -2
BITMAP
1100
1520
2940
2280
6440
A820
2440
2440
2FE0
2440
2440
2840
ENDCHAR
STARTCHAR uni345F
ENCODING 13407
BBX 11 12 0 -2
BITMAP
20C0
2F00
4800
4800
CFE0
4880
4880
4880
7FE0
4000
4840
5020
ENDCHAR
STARTCHAR uni3460
ENCODING 13408
BBX 11 12 0 -2
BITMAP
1200
1BE0
2AA0
2AA0
6AA0
AA40
22A0
2100
27C0
2100
2100
2FE0
ENDCHAR
STARTCHAR uni3461
ENCODING 13409
BBX 11 12 0 -2
BITMAP
1000
1EE0
2AA0
2AA0
6EA0
AAA0
2AA0
2EA0
28E0
2A80
2D80
2880
ENDCHAR
STARTCHAR uni3462
ENCODING 13410
BBX 11 12 0 -2
BITMAP
1400
14E0
2EA0
24A0
64A0
AEA0
24A0
28A0
2AA0
2EE0
2080
2080
ENDCHAR
STARTCHAR uni3463
ENCODING 13411
BBX 11 12 0 -2
BITMAP
2880
2880
4880
7DE0
C880
5880
5DC0
69A0
4A80
4880
4880
4880
ENDCHAR
STARTCHAR uni3464
ENCODING 13412
BBX 11 12 0 -2
BITMAP
1440
1FE0
2440
2000
6FE0
A920
2920
2FE0
2920
2920
2FE0
2820
ENDCHAR
STARTCHAR uni3465
ENCODING 13413
BBX 11 12 0 -2
BITMAP
17C0
1440
27C0
2440
67C0
A200
27E0
2AA0
24A0
2920
2220
24C0
ENDCHAR
STARTCHAR uni3466
ENCODING 13414
BBX 11 12 0 -2
BITMAP
1200
1100
2FE0
2820
6FE0
A900
2940
2FE0
2900
2A80
3440
2820
ENDCHAR
STARTCHAR uni3467
ENCODING 13415
BBX 11 12 0 -2
BITMAP
10C0
1700
2100
2FE0
6380
A540
2BA0
2080
2100
2FE0
2100
2300
ENDCHAR
STARTCHAR uni3468
ENCODING 13416
BBX 11 12 0 -2
BITMAP
2FC0
2840
4840
4FC0
C400
4FC0
5200
4200
7FE0
4500
4880
7060
ENDCHAR
STARTCHAR uni3469
ENCODING 13417
BBX 11 12 0 -2
BITMAP
1000
1FE0
2AA0
2AA0
6FE0
A200
23E0
2420
2A40
2180
2300
2C00
ENDCHAR
STARTCHAR uni346A
ENCODING 13418
BBX 11 12 0 -2
BITMAP
2200
2100
5FE0
4480
C300
5CE0
4840
4FC0
4840
4FC0
4840
5040
ENDCHAR
STARTCHAR uni346B
ENCODING 13419
BBX 11 12 0 -2
BITMAP
1100
1280
2440
2920
67C0
A040
2080
2200
2940
2A20
32A0
2180
ENDCHAR
STARTCHAR uni346C
ENCODING 13420
BBX 11 12 0 -2
BITMAP
2440
2440
4440
5EE0
CA40
4A40
4AE0
52A0
4AA0
44A0
4AE0
52A0
ENDCHAR
STARTCHAR uni346D
ENCODING 13421
BBX 11 12 0 -2
BITMAP
2FE0
2920
4920
4FE0
C920
4920
4FE0
4000
5FE0
4440
4440
4840
ENDCHAR
STARTCHAR uni346E
ENCODING 13422
BBX 11 12 0 -2
BITMAP
3FE0
2220
5FC0
4200
DFC0
5240
5FC0
5240
5FC0
4200
5FE0
4200
ENDCHAR
STARTCHAR uni346F
ENCODING 13423
BBX 11 12 0 -2
BITMAP
1000
1FE0
2100
2FE0
6820
AFE0
2820
2FE0
2820
2FE0
2440
2820
ENDCHAR
STARTCHAR uni3470
ENCODING 13424
BBX 11 12 0 -2
BITMAP
2400
27C0
4840
4F80
C080
5FE0
4400
4A40
4580
4B40
4540
5B20
ENDCHAR
STARTCHAR uni3471
ENCODING 13425
BBX 11 12 0 -2
BITMAP
2FC0
2240
4180
5FE0
C520
4940
5300
4200
5FE0
4700
4A80
7260
ENDCHAR
STARTCHAR uni3472
ENCODING 13426
BBX 11 12 0 -2
BITMAP
1100
1FE0
2100
2FE0
6AA0
A920
2BA0
2920
2FE0
2920
2920
2860
ENDCHAR
STARTCHAR uni3473
ENCODING 13427
BBX 11 12 0 -2
BITMAP
2400
2FE0
5220
4AA0
CFA0
4440
4FE0
5220
4AA0
4FA0
4420
48C0
ENDCHAR
STARTCHAR uni3474
ENCODING 13428
BBX 11 12 0 -2
BITMAP
2FC0
2040
4FC0
4040
FFE0
6220
5FC0
5240
7FE0
4840
4780
5860
ENDCHAR
STARTCHAR uni3475
ENCODING 13429
BBX 11 12 0 -2
BITMAP
2100
2080
47E0
5500
CD00
45E0
4680
4C80
57E0
4480
4940
5220
ENDCHAR
STARTCHAR uni3476
ENCODING 13430
BBX 11 12 0 -2
BITMAP
2800
2FC0
5000
6F80
C000
5F80
5580
4E80
5FA0
44A0
4E60
5520
ENDCHAR
STARTCHAR uni3477
ENCODING 13431
BBX 11 12 0 -2
BITMAP
2880
32A0
5EC0
4080
DEA0
5260
5E00
52A0
5EC0
5280
52A0
5660
ENDCHAR
STARTCHAR uni3478
ENCODING 13432
BBX 11 12 0 -2
BITMAP
2200
3FE0
4200
5FC0
D040
5FC0
4000
7FE0
4040
5E40
5240
5EC0
ENDCHAR
STARTCHAR uni3479
ENCODING 13433
BBX 11 12 0 -2
BITMAP
0400
0A00
3180
DF60
0400
7FC0
4440
7FC0
4440
7FC0
2080
3F80
ENDCHAR
STARTCHAR uni347A
ENCODING 13434
BBX 11 12 0 -2
BITMAP
1280
17E0
2C80
27E0
6480
A7E0
2480
2FE0
2240
22E0
2420
28C0
ENDCHAR
STARTCHAR uni347B
ENCODING 13435
BBX 11 12 0 -2
BITMAP
2100
2FE0
4A20
4140
CC80
5520
46A0
4B80
4000
4920
4920
4FE0
ENDCHAR
STARTCHAR uni347C
ENCODING 13436
BBX 11 12 0 -2
BITMAP
2100
21C0
7E40
5540
D480
7D40
5620
55C0
5540
7D40
45C0
4140
ENDCHAR
STARTCHAR uni347D
ENCODING 13437
BBX 11 12 0 -2
BITMAP
1920
1540
2FE0
2820
67C0
A440
2440
27C0
2100
27C0
2100
2FE0
ENDCHAR
STARTCHAR uni347E
ENCODING 13438
BBX 11 12 0 -2
BITMAP
2400
27E0
4920
54C0
C380
5E00
4100
5FE0
4000
5FE0
4840
4FC0
ENDCHAR
STARTCHAR uni347F
ENCODING 13439
BBX 11 12 0 -2
BITMAP
2920
3240
4920
5FC0
D240
5FC0
5240
5FC0
4200
5FE0
4A80
5240
ENDCHAR
STARTCHAR uni3480
ENCODING 13440
BBX 11 12 0 -2
BITMAP
1100
1FE0
2440
2280
6FE0
A920
2BA0
2920
2BA0
2AA0
2BA0
2860
ENDCHAR
STARTCHAR uni3481
ENCODING 13441
BBX 11 12 0 -2
BITMAP
3FE0
3120
57A0
5120
DFE0
5460
52A0
57E0
5120
5FE0
5120
5FE0
ENDCHAR
STARTCHAR uni3482
ENCODING 13442
BBX 11 12 0 -2
BITMAP
1440
1FE0
2540
23A0
6140
AFE0
2200
27C0
2C40
27C0
2440
27C0
ENDCHAR
STARTCHAR uni3483
ENCODING 13443
BBX 11 12 0 -2
BITMAP
10A0
1FE0
2080
2E80
6080
AE80
2A80
2E80
2A80
2EA0
2460
2A20
ENDCHAR
STARTCHAR uni3484
ENCODING 13444
BBX 11 12 0 -2
BITMAP
1480
14A0
2680
2BE0
6E80
B280
2D40
2540
2A20
3000
2AA0
2AA0
ENDCHAR
STARTCHAR uni3485
ENCODING 13445
BBX 11 12 0 -2
BITMAP
1100
1FE0
2200
2780
6D00
A280
25C0
2A40
2180
2EA0
2640
2B20
ENDCHAR
STARTCHAR uni3486
ENCODING 13446
BBX 11 12 0 -2
BITMAP
2200
2500
4F80
7060
CF80
4880
4F80
4000
5DC0
5540
4CC0
5540
ENDCHAR
STARTCHAR uni3487
ENCODING 13447
BBX 11 12 0 -2
BITMAP
2800
2800
5FE0
7540
D540
7FE0
5540
5540
7FE0
4000
5540
62A0
ENDCHAR
STARTCHAR uni3488
ENCODING 13448
BBX 11 12 0 -2
BITMAP
2E40
2240
4480
5EE0
CB20
4EA0
4AA0
4EA0
4B40
5E40
42A0
4320
ENDCHAR
STARTCHAR uni3489
ENCODING 13449
BBX 11 12 0 -2
BITMAP
1920
1540
2FE0
2820
67C0
A440
27C0
2100
2FE0
2380
2540
2920
ENDCHAR
STARTCHAR uni348A
ENCODING 13450
BBX 11 12 0 -2
BITMAP
3FE0
2AA0
5BA0
4AA0
D760
4000
4440
4660
5540
5540
5740
59E0
ENDCHAR
STARTCHAR uni348B
ENCODING 13451
BBX 11 12 0 -2
BITMAP
2A20
2AC0
5F80
4A80
CEE0
4AA0
4EA0
4AA0
5FA0
40A0
4AA0
5120
ENDCHAR
STARTCHAR uni348C
ENCODING 13452
BBX 11 12 0 -2
BITMAP
2880
3AA0
6DC0
4880
D540
7FE0
6020
4F80
4880
4880
50A0
6060
ENDCHAR
STARTCHAR uni348D
ENCODING 13453
BBX 11 12 0 -2
BITMAP
2480
2FC0
4880
5520
DDE0
4400
4880
5F00
4440
7FE0
5240
6620
ENDCHAR
STARTCHAR uni348E
ENCODING 13454
BBX 11 12 0 -2
BITMAP
2FC0
2200
5FE0
4480
D860
4500
7DE0
4500
5DC0
4500
7DE0
4500
ENDCHAR
STARTCHAR uni348F
ENCODING 13455
BBX 11 12 0 -2
BITMAP
2100
3FE0
54A0
4FC0
C480
4FC0
4480
5FE0
4A40
5120
4600
4180
ENDCHAR
STARTCHAR uni3490
ENCODING 13456
BBX 11 12 0 -2
BITMAP
2880
2EE0
5540
4800
CFE0
5020
6FA0
48A0
4FA0
48A0
4FA0
4860
ENDCHAR
STARTCHAR uni3491
ENCODING 13457
BBX 11 12 0 -2
BITMAP
3FE0
3100
5A80
57E0
D280
5BC0
5680
53C0
5680
5BE0
5200
5FE0
ENDCHAR
STARTCHAR uni3492
ENCODING 13458
BBX 11 12 0 -2
BITMAP
1AA0
1280
2FE0
2440
6280
AFE0
2100
27C0
2100
2FE0
2540
2920
ENDCHAR
STARTCHAR uni3493
ENCODING 13459
BBX 11 12 0 -2
BITMAP
2100
37C0
4100
4FE0
C280
77C0
5100
57C0
5100
5FE0
5100
6FE0
ENDCHAR
STARTCHAR uni3494
ENCODING 13460
BBX 11 12 0 -2
BITMAP
2FE0
2AA0
4FE0
4400
CFE0
5220
4FA0
4AA0
4FA0
4220
4FA0
40C0
ENDCHAR
STARTCHAR uni3495
ENCODING 13461
BBX 11 12 0 -2
BITMAP
2100
3FE0
4880
5140
D5E0
5B40
49E0
5540
5DE0
4540
49E0
5100
ENDCHAR
STARTCHAR uni3496
ENCODING 13462
BBX 11 12 0 -2
BITMAP
2480
3FE0
4480
4FC0
CA40
4FC0
4A40
4FC0
4200
5FE0
52A0
57A0
ENDCHAR
STARTCHAR uni3497
ENCODING 13463
BBX 11 12 0 -2
BITMAP
2840
3FE0
4840
4FC0
C840
5FE0
54A0
4FC0
4200
4FC0
4200
5FE0
ENDCHAR
STARTCHAR uni3498
ENCODING 13464
BBX 11 12 0 -2
BITMAP
3EE0
34A0
5EA0
52A0
DE40
5440
5EA0
4100
5FE0
4840
4480
5FE0
ENDCHAR
STARTCHAR uni3499
ENCODING 13465
BBX 11 12 0 -2
BITMAP
2900
2BE0
5220
57E0
DA20
4BE0
5480
5FE0
42A0
56A0
6AE0
4080
ENDCHAR
STARTCHAR uni349A
ENCODING 13466
BBX 11 12 0 -2
BITMAP
2FE0
2540
4FE0
4100
DFE0
4040
4FC0
4040
4FC0
4100
4AA0
53A0
ENDCHAR
STARTCHAR uni349B
ENCODING 13467
BBX 11 12 0 -2
BITMAP
2EE0
2AA0
4660
4AA0
C840
5FE0
6880
4FE0
4880
4FE0
4880
4FE0
ENDCHAR
STARTCHAR uni349C
ENCODING 13468
BBX 11 12 0 -2
BITMAP
2AC0
3340
5240
5AC0
D340
5140
59C0
5540
7FE0
4000
4880
5040
ENDCHAR
STARTCHAR uni349D
ENCODING 13469
BBX 11 12 0 -2
BITMAP
2840
3FE0
4840
5FE0
D4A0
5FE0
4240
5FE0
5200
5940
54A0
6160
ENDCHAR
STARTCHAR uni349E
ENCODING 13470
BBX 11 12 0 -2
BITMAP
2920
2FE0
4480
4FE0
D900
4FC0
4900
4FE0
4000
4EE0
4BA0
4860
ENDCHAR
STARTCHAR uni349F
ENCODING 13471
BBX 11 12 0 -2
BITMAP
1100
1FE0
2000
2FE0
6900
AFC0
2900
2FE0
2AA0
2540
2C80
3660
ENDCHAR
STARTCHAR uni34A0
ENCODING 13472
BBX 11 12 0 -2
BITMAP
2800
2DC0
4940
5D40
F480
4960
5500
5DC0
4500
5DC0
4500
7FE0
ENDCHAR
STARTCHAR uni34A1
ENCODING 13473
BBX 11 12 0 -2
BITMAP
2260
3D80
4A80
6520
D1C0
5C40
68A0
5DE0
4880
6AC0
7EA0
4180
ENDCHAR
STARTCHAR uni34A2
ENCODING 13474
BBX 11 12 0 -2
BITMAP
2200
2D80
7060
5FC0
D540
5FC0
4000
5FC0
5540
5FC0
5540
50C0
ENDCHAR
STARTCHAR uni34A3
ENCODING 13475
BBX 11 12 0 -2
BITMAP
2100
3FE0
5280
5540
DDE0
5740
55E0
5540
55E0
5200
6D40
57A0
ENDCHAR
STARTCHAR uni34A4
ENCODING 13476
BBX 11 12 0 -2
BITMAP
3FC0
2880
4F80
48C0
DF80
4080
7FE0
5540
5DC0
5560
7FC0
4440
ENDCHAR
STARTCHAR uni34A5
ENCODING 13477
BBX 11 12 0 -2
BITMAP
1280
17C0
2AA0
2FE0
6AA0
AFE0
2000
2FE0
2440
27C0
2280
2FE0
ENDCHAR
STARTCHAR uni34A6
ENCODING 13478
BBX 11 12 0 -2
BITMAP
2FC0
2A40
4FC0
4A40
DFE0
54A0
5FE0
54A0
4200
4FC0
4200
5FE0
ENDCHAR
STARTCHAR uni34A7
ENCODING 13479
BBX 11 12 0 -2
BITMAP
2480
3F40
4BE0
5540
DB40
51E0
5F40
4540
5FE0
5540
5740
51E0
ENDCHAR
STARTCHAR uni34A8
ENCODING 13480
BBX 11 12 0 -2
BITMAP
2AC0
3740
5DC0
5740
D540
7FE0
4840
5FA0
6880
4F80
4820
47E0
ENDCHAR
STARTCHAR uni34A9
ENCODING 13481
BBX 11 12 0 -2
BITMAP
2780
2880
5FE0
4440
DA80
4540
4520
5FC0
5540
5FC0
4520
5FE0
ENDCHAR
STARTCHAR uni34AA
ENCODING 13482
BBX 11 12 0 -2
BITMAP
0E00
3180
FFE0
5280
7BC0
4A40
7FE0
1100
5AA0
55C0
5AA0
E580
ENDCHAR
STARTCHAR uni34AB
ENCODING 13483
BBX 11 12 0 -2
BITMAP
3FC0
2000
2000
3FC0
2000
2000
FFE0
1100
1100
1120
2120
C0E0
ENDCHAR
STARTCHAR uni34AC
ENCODING 13484
BBX 11 12 0 -2
BITMAP
07C0
7100
0100
0100
FB80
5100
5100
5100
57C0
5020
5020
8FE0
ENDCHAR
STARTCHAR uni34AD
ENCODING 13485
BBX 11 11 0 -2
BITMAP
F7C0
9440
9440
9440
9440
F7C0
5280
5280
5A80
54A0
8860
ENDCHAR
STARTCHAR uni34AE
ENCODING 13486
BBX 11 12 0 -2
BITMAP
07C0
7100
02A0
04C0
F980
5280
54C0
51A0
5280
54A0
5320
8FE0
ENDCHAR
STARTCHAR uni34AF
ENCODING 13487
BBX 11 12 0 -2
BITMAP
2280
2FE0
B280
6FE0
2540
FFE0
5540
5FE0
5100
5FE0
5100
8100
ENDCHAR
STARTCHAR uni34B0
ENCODING 13488
BBX 11 12 0 -2
BITMAP
1800
0400
0A00
3180
C060
0000
7FC0
0400
0400
0400
0400
FFE0
ENDCHAR
STARTCHAR uni34B1
ENCODING 13489
BBX 11 12 0 -2
BITMAP
1800
0400
0A00
3180
C860
0800
1FC0
6040
1080
0B00
1C00
E000
ENDCHAR
STARTCHAR uni34B2
ENCODING 13490
BBX 11 12 0 -2
BITMAP
1800
0400
0A00
3180
C060
7FC0
4040
4040
7FC0
4040
4040
7FC0
ENDCHAR
STARTCHAR uni34B3
ENCODING 13491
BBX 11 11 0 -2
BITMAP
FFE0
8420
8420
A520
94A0
AD60
CE60
8420
8420
8420
84E0
ENDCHAR
STARTCHAR uni34B4
ENCODING 13492
BBX 11 12 0 -2
BITMAP
1800
0400
0A00
3180
C460
4440
4440
7FC0
0400
8420
8420
FFE0
ENDCHAR
STARTCHAR uni34B5
ENCODING 13493
BBX 11 12 0 -2
BITMAP
0800
1000
7FC0
4040
4040
7FC0
4040
4040
7FC0
2080
4040
8020
ENDCHAR
STARTCHAR uni34B6
ENCODING 13494
BBX 11 12 0 -2
BITMAP
1100
1100
2080
4840
9020
7FC0
4040
4040
7FC0
4040
4040
7FC0
ENDCHAR
STARTCHAR uni34B7
ENCODING 13495
BBX 11 12 0 -2
BITMAP
7FC0
4040
4440
4440
4440
4A40
5140
4040
FFE0
2080
4040
8020
ENDCHAR
STARTCHAR uni34B8
ENCODING 13496
BBX 11 12 0 -2
BITMAP
2080
1100
FFE0
0800
3440
C680
0B00
3280
C680
0A40
3220
CC00
ENDCHAR
STARTCHAR uni34B9
ENCODING 13497
BBX 11 12 0 -2
BITMAP
1080
7BC0
1080
7BC0
4A40
7BC0
4A40
7BC0
4A40
FFE0
4A40
8420
ENDCHAR
STARTCHAR uni34BA
ENCODING 13498
BBX 11 12 0 -2
BITMAP
FFE0
8020
9120
8A20
FFE0
8420
A420
AA20
B120
A020
BFA0
80E0
ENDCHAR
STARTCHAR uni34BB
ENCODING 13499
BBX 11 12 0 -2
BITMAP
FFE0
8020
BFA0
0000
7FC0
4040
7FC0
4040
7FC0
1100
2120
C0E0
ENDCHAR
STARTCHAR uni34BC
ENCODING 13500
BBX 11 12 0 -2
BITMAP
2080
FFE0
2080
3F80
0400
FFE0
8420
A520
94A0
AD60
8420
8460
ENDCHAR
STARTCHAR uni34BD
ENCODING 13501
BBX 11 12 0 -2
BITMAP
7FC0
4040
5F40
2480
7FC0
0800
FFE0
2080
5F40
9120
1340
0FC0
ENDCHAR
STARTCHAR uni34BE
ENCODING 13502
BBX 11 12 0 -2
BITMAP
7FC0
4040
5F40
4400
27E0
F900
45C0
7740
5D40
55C0
5420
B3E0
ENDCHAR
STARTCHAR uni34BF
ENCODING 13503
BBX 11 12 0 -2
BITMAP
7FC0
4040
5F40
2100
FA80
57E0
AA80
FBC0
2280
FBC0
AA80
9BE0
ENDCHAR
STARTCHAR uni34C0
ENCODING 13504
BBX 11 12 0 -2
BITMAP
FFE0
8020
0800
0800
0800
0A00
0900
0880
0840
0840
0800
0800
ENDCHAR
STARTCHAR uni34C1
ENCODING 13505
BBX 11 6 0 3
BITMAP
FFE0
8020
A0A0
2040
4020
8020
ENDCHAR
STARTCHAR uni34C2
ENCODING 13506
BBX 11 11 0 -2
BITMAP
FFE0
8020
0100
7100
07E0
0240
FA40
5180
5240
5420
8FE0
ENDCHAR
STARTCHAR uni34C3
ENCODING 13507
BBX 11 12 0 -2
BITMAP
FFE0
8020
20C0
F700
0100
F100
01E0
F700
0100
F120
9120
F0E0
ENDCHAR
STARTCHAR uni34C4
ENCODING 13508
BBX 11 12 0 -2
BITMAP
2080
4880
FC80
47E0
AAA0
FE80
2900
4580
9180
62A0
0AA0
7460
ENDCHAR
STARTCHAR uni34C5
ENCODING 13509
BBX 11 11 0 -2
BITMAP
9FE0
4100
0100
0100
0100
0100
2100
4100
8100
0100
0700
ENDCHAR
STARTCHAR uni34C6
ENCODING 13510
BBX 11 12 0 -2
BITMAP
0200
0200
8500
4880
1060
0800
0880
0B00
2C00
4840
8840
07C0
ENDCHAR
STARTCHAR uni34C7
ENCODING 13511
BBX 11 12 0 -2
BITMAP
01C0
9E00
4200
0200
0200
1FE0
0500
2500
4880
8880
1040
2020
ENDCHAR
STARTCHAR uni34C8
ENCODING 13512
BBX 11 11 0 -2
BITMAP
3FE0
8400
4400
0800
0FC0
1840
2840
0840
4840
8FC0
0840
ENDCHAR
STARTCHAR uni34C9
ENCODING 13513
BBX 11 12 0 -2
BITMAP
01C0
1E00
8200
4200
3FE0
0200
0200
1FC0
5040
9040
1FC0
1040
ENDCHAR
STARTCHAR uni34CA
ENCODING 13514
BBX 11 11 0 -2
BITMAP
1FE0
9020
57A0
1020
17A0
14A0
14A0
57A0
9020
1020
1060
ENDCHAR
STARTCHAR uni34CB
ENCODING 13515
BBX 11 12 0 -2
BITMAP
0880
0880
8880
5FC0
0880
0880
0880
3FE0
4000
8880
1040
2020
ENDCHAR
STARTCHAR uni34CC
ENCODING 13516
BBX 11 12 0 -2
BITMAP
0200
0200
8500
4880
1060
0F80
0200
0200
5FC0
8200
0200
3FE0
ENDCHAR
STARTCHAR uni34CD
ENCODING 13517
BBX 11 12 0 -2
BITMAP
0200
0100
8FE0
4200
0400
0840
0FE0
04A0
2480
4480
88A0
1060
ENDCHAR
STARTCHAR uni34CE
ENCODING 13518
BBX 11 12 0 -2
BITMAP
0FC0
0040
87C0
4040
0FC0
0000
1FE0
1020
4FC0
8440
0380
1C60
ENDCHAR
STARTCHAR uni34CF
ENCODING 13519
BBX 11 11 0 -2
BITMAP
1FE0
9020
54A0
1860
1020
17A0
14A0
54A0
97A0
1020
1060
ENDCHAR
STARTCHAR uni34D0
ENCODING 13520
BBX 11 12 0 -2
BITMAP
0200
0200
9FC0
4200
3FE0
0880
1240
2220
1FC0
4200
8200
3FE0
ENDCHAR
STARTCHAR uni34D1
ENCODING 13521
BBX 11 12 0 -2
BITMAP
0200
0200
9FC0
4200
3FE0
0880
0500
1FC0
4200
BFE0
0200
0200
ENDCHAR
STARTCHAR uni34D2
ENCODING 13522
BBX 11 12 0 -2
BITMAP
4100
21E0
0F00
2120
44E0
8A00
3180
C460
0400
1540
64A0
0C00
ENDCHAR
STARTCHAR uni34D3
ENCODING 13523
BBX 11 12 0 -2
BITMAP
0200
3FE0
8200
5FE0
18A0
1520
17A0
1220
5FE0
9220
1220
1060
ENDCHAR
STARTCHAR uni34D4
ENCODING 13524
BBX 11 12 0 -2
BITMAP
0840
1E40
9240
5EE0
1240
1E40
1340
3EC0
4A40
9240
2240
06C0
ENDCHAR
STARTCHAR uni34D5
ENCODING 13525
BBX 11 12 0 -2
BITMAP
00A0
0080
9FE0
5080
1FA0
14A0
1DC0
16C0
5480
9AA0
1160
2220
ENDCHAR
STARTCHAR uni34D6
ENCODING 13526
BBX 11 12 0 -2
BITMAP
1FC0
1240
9FC0
5240
1FC0
0A80
3FE0
0A80
5FC0
8200
3FE0
0200
ENDCHAR
STARTCHAR uni34D7
ENCODING 13527
BBX 11 12 0 -2
BITMAP
0400
9FE0
44A0
0EA0
04A0
1F60
0480
2F00
4240
9FE0
0A80
1640
ENDCHAR
STARTCHAR uni34D8
ENCODING 13528
BBX 11 12 0 -2
BITMAP
7FC0
4040
5F40
4840
4F40
5240
4C40
7FC0
4440
5F40
4560
BFA0
ENDCHAR
STARTCHAR uni34D9
ENCODING 13529
BBX 11 12 0 -2
BITMAP
0800
0400
BFA0
8220
9220
8A20
8420
8A20
B120
8020
FFE0
0020
ENDCHAR
STARTCHAR uni34DA
ENCODING 13530
BBX 11 12 0 -2
BITMAP
0020
7C20
1120
1120
1120
1120
1120
1120
1D20
E020
0020
00E0
ENDCHAR
STARTCHAR uni34DB
ENCODING 13531
BBX 11 11 0 -2
BITMAP
03E0
F920
2120
2120
2120
2120
2120
3920
C220
0220
04C0
ENDCHAR
STARTCHAR uni34DC
ENCODING 13532
BBX 11 12 0 -2
BITMAP
2000
23E0
4920
4920
9120
F120
2120
4120
9120
FA20
0A20
04C0
ENDCHAR
STARTCHAR uni34DD
ENCODING 13533
BBX 11 12 0 -2
BITMAP
2420
2420
24A0
7EA0
24A0
24A0
24A0
FFA0
24A0
2420
4420
8460
ENDCHAR
STARTCHAR uni34DE
ENCODING 13534
BBX 11 12 0 -2
BITMAP
1000
13E0
FD20
1120
1120
7920
1120
1120
FD20
1220
1220
14C0
ENDCHAR
STARTCHAR uni34DF
ENCODING 13535
BBX 11 12 0 -2
BITMAP
1020
1020
7D20
5520
5120
7D20
4520
5520
4920
5420
A420
40E0
ENDCHAR
STARTCHAR uni34E0
ENCODING 13536
BBX 11 12 0 -2
BITMAP
2020
2020
2120
3D20
2120
2120
FD20
8520
8520
8420
FC20
84E0
ENDCHAR
STARTCHAR uni34E1
ENCODING 13537
BBX 11 12 0 -2
BITMAP
4020
4020
7D20
9120
1120
FF20
1120
5520
5520
5C20
6420
00E0
ENDCHAR
STARTCHAR uni34E2
ENCODING 13538
BBX 11 12 0 -2
BITMAP
2020
3C20
4520
A920
1120
2920
4520
FD20
4520
4420
7C20
44E0
ENDCHAR
STARTCHAR uni34E3
ENCODING 13539
BBX 11 12 0 -2
BITMAP
1020
1020
28A0
44A0
82A0
7CA0
00A0
7CA0
44A0
4420
7C20
4460
ENDCHAR
STARTCHAR uni34E4
ENCODING 13540
BBX 11 12 0 -2
BITMAP
1020
1020
FEA0
10A0
10A0
7CA0
00A0
7CA0
44A0
4420
7C20
4460
ENDCHAR
STARTCHAR uni34E5
ENCODING 13541
BBX 11 12 0 -2
BITMAP
1020
9220
54A0
10A0
FEA0
02A0
02A0
7EA0
02A0
0220
FE20
0260
ENDCHAR
STARTCHAR uni34E6
ENCODING 13542
BBX 11 12 0 -2
BITMAP
0020
FE20
10A0
20A0
7EA0
42A0
42A0
7EA0
42A0
4220
7E20
4260
ENDCHAR
STARTCHAR uni34E7
ENCODING 13543
BBX 11 12 0 -2
BITMAP
1020
2820
4520
9320
7D20
0520
0920
7D20
4520
4420
7C20
44E0
ENDCHAR
STARTCHAR uni34E8
ENCODING 13544
BBX 11 12 0 -2
BITMAP
1020
1020
FEA0
10A0
54A0
54A0
54A0
BAA0
10A0
2820
4420
8260
ENDCHAR
STARTCHAR uni34E9
ENCODING 13545
BBX 11 12 0 -2
BITMAP
2020
3C20
44A0
08A0
7EA0
52A0
7EA0
52A0
7EA0
5220
5220
8660
ENDCHAR
STARTCHAR uni34EA
ENCODING 13546
BBX 11 12 0 -2
BITMAP
4000
23E0
F920
8920
F920
8920
F920
A120
9120
AA20
CA20
84C0
ENDCHAR
STARTCHAR uni34EB
ENCODING 13547
BBX 11 12 0 -2
BITMAP
1020
FE20
28A0
44A0
82A0
FCA0
48A0
48A0
FEA0
4820
4820
8860
ENDCHAR
STARTCHAR uni34EC
ENCODING 13548
BBX 11 12 0 -2
BITMAP
9220
5420
FEA0
20A0
FEA0
44A0
82A0
7CA0
24A0
2420
4420
9860
ENDCHAR
STARTCHAR uni34ED
ENCODING 13549
BBX 11 12 0 -2
BITMAP
7C20
4420
7CA0
44A0
7CA0
20A0
7EA0
92A0
2AA0
4220
7220
0C60
ENDCHAR
STARTCHAR uni34EE
ENCODING 13550
BBX 11 12 0 -2
BITMAP
FE20
8220
92A0
BAA0
92A0
FEA0
82A0
BAA0
AAA0
BA20
8220
0E60
ENDCHAR
STARTCHAR uni34EF
ENCODING 13551
BBX 11 12 0 -2
BITMAP
2A20
5420
A8A0
54A0
2AA0
00A0
FEA0
92A0
FEA0
9220
FE20
8260
ENDCHAR
STARTCHAR uni34F0
ENCODING 13552
BBX 11 12 0 -2
BITMAP
FF20
0820
3EA0
2AA0
AAA0
BEA0
AAA0
AAA0
BEA0
80A0
87A0
F860
ENDCHAR
STARTCHAR uni34F1
ENCODING 13553
BBX 11 12 0 -2
BITMAP
1020
2820
44A0
BAA0
00A0
E2A0
AAA0
EAA0
AAA0
EA20
A220
A660
ENDCHAR
STARTCHAR uni34F2
ENCODING 13554
BBX 11 12 0 -2
BITMAP
1020
FE20
82A0
FEA0
80A0
FEA0
AAA0
AAA0
FEA0
AA20
AA20
8660
ENDCHAR
STARTCHAR uni34F3
ENCODING 13555
BBX 11 12 0 -2
BITMAP
7840
4840
7A40
4A40
7A40
0240
FE40
1240
5840
51C0
5000
BFE0
ENDCHAR
STARTCHAR uni34F4
ENCODING 13556
BBX 11 12 0 -2
BITMAP
FE20
1020
FEA0
AAA0
AAA0
AAA0
86A0
10A0
FEA0
2820
4420
8260
ENDCHAR
STARTCHAR uni34F5
ENCODING 13557
BBX 11 12 0 -2
BITMAP
EE20
AA20
EEA0
00A0
7CA0
00A0
FEA0
40A0
7CA0
0420
0420
1860
ENDCHAR
STARTCHAR uni34F6
ENCODING 13558
BBX 11 12 0 -2
BITMAP
4020
FE20
4AA0
EAA0
4AA0
EAA0
56A0
10A0
FEA0
2820
4420
8260
ENDCHAR
STARTCHAR uni34F7
ENCODING 13559
BBX 11 12 0 -2
BITMAP
1020
7C20
44A0
7CA0
44A0
7CA0
44A0
7CA0
10A0
FE20
5420
9260
ENDCHAR
STARTCHAR uni34F8
ENCODING 13560
BBX 11 12 0 -2
BITMAP
EE20
AA20
AAA0
EEA0
28A0
EEA0
82A0
82A0
EEA0
2820
3E20
E060
ENDCHAR
STARTCHAR uni34F9
ENCODING 13561
BBX 11 12 0 -2
BITMAP
7F20
4820
5AA0
6CA0
48A0
54A0
62A0
48A0
6AA0
4820
5420
A260
ENDCHAR
STARTCHAR uni34FA
ENCODING 13562
BBX 11 12 0 -2
BITMAP
1E20
1020
7EA0
52A0
5CA0
72A0
4EA0
48A0
7EA0
5420
4820
B460
ENDCHAR
STARTCHAR uni34FB
ENCODING 13563
BBX 11 12 0 -2
BITMAP
FE20
AA20
AAA0
FEA0
00A0
FEA0
10A0
10A0
5CA0
5020
5E20
F060
ENDCHAR
STARTCHAR uni34FC
ENCODING 13564
BBX 11 12 0 -2
BITMAP
1020
FE20
54A0
92A0
28A0
44A0
92A0
54A0
38A0
5420
9220
3060
ENDCHAR
STARTCHAR uni34FD
ENCODING 13565
BBX 11 12 0 -2
BITMAP
1020
9220
FEA0
10A0
FEA0
82A0
7CA0
00A0
FEA0
1020
5420
B260
ENDCHAR
STARTCHAR uni34FE
ENCODING 13566
BBX 11 12 0 -2
BITMAP
FE20
8220
FEA0
AAA0
9CA0
AAA0
80A0
A8A0
BEA0
C820
BE20
0860
ENDCHAR
STARTCHAR uni34FF
ENCODING 13567
BBX 11 12 0 -2
BITMAP
0C20
7020
10A0
FEA0
54A0
AAA0
44A0
92A0
54A0
3820
5420
B260
ENDCHAR
STARTCHAR uni3500
ENCODING 13568
BBX 11 12 0 -2
BITMAP
7C20
4420
7CA0
44A0
7CA0
10A0
FEA0
44A0
7CA0
1020
5420
B260
ENDCHAR
STARTCHAR uni3501
ENCODING 13569
BBX 11 12 0 -2
BITMAP
6A20
A420
46A0
7CA0
80A0
7CA0
44A0
7CA0
44A0
2820
1C20
E060
ENDCHAR
STARTCHAR uni3502
ENCODING 13570
BBX 11 12 0 -2
BITMAP
9220
5420
FEA0
54A0
92A0
44A0
6EA0
A4A0
B4A0
5E20
4420
8460
ENDCHAR
STARTCHAR uni3503
ENCODING 13571
BBX 11 12 0 -2
BITMAP
4200
9780
E880
47C0
9540
F7C0
0420
ABE0
0000
7FC0
1040
E180
ENDCHAR
STARTCHAR uni3504
ENCODING 13572
BBX 11 12 0 -2
BITMAP
FE20
2820
FEA0
AAA0
FEA0
10A0
54A0
10A0
FEA0
3820
5420
9260
ENDCHAR
STARTCHAR uni3505
ENCODING 13573
BBX 11 12 0 -2
BITMAP
1020
7E20
12A0
FFA0
12A0
7EA0
55A0
77A0
51A0
7720
5520
9560
ENDCHAR
STARTCHAR uni3506
ENCODING 13574
BBX 11 12 0 -2
BITMAP
7720
2220
AAA0
FFA0
56A0
9BA0
7EA0
42A0
7EA0
4220
7E20
4260
ENDCHAR
STARTCHAR uni3507
ENCODING 13575
BBX 11 12 0 -2
BITMAP
7520
1620
55A0
22A0
41A0
EEA0
2AA0
73A0
4EA0
6A20
2420
6A60
ENDCHAR
STARTCHAR uni3508
ENCODING 13576
BBX 11 12 0 -2
BITMAP
4420
FE20
44A0
28A0
28A0
EEA0
28A0
EEA0
28A0
EE20
2820
2860
ENDCHAR
STARTCHAR uni3509
ENCODING 13577
BBX 11 12 0 -2
BITMAP
7E20
4220
7EA0
48A0
7EA0
6AA0
7EA0
48A0
7FA0
A920
BD20
2360
ENDCHAR
STARTCHAR uni350A
ENCODING 13578
BBX 11 12 0 -2
BITMAP
1020
FE20
00A0
FEA0
AAA0
BAA0
82A0
FEA0
44A0
7C20
4420
FE60
ENDCHAR
STARTCHAR uni350B
ENCODING 13579
BBX 11 12 0 -2
BITMAP
F420
A420
F7A0
94A0
FAA0
A2A0
F0A0
00A0
FEA0
AA20
AF20
F060
ENDCHAR
STARTCHAR uni350C
ENCODING 13580
BBX 11 12 0 -2
BITMAP
F820
5620
72A0
5AA0
F4A0
1AA0
F0A0
5AA0
94A0
3420
5220
9060
ENDCHAR
STARTCHAR uni350D
ENCODING 13581
BBX 11 12 0 -2
BITMAP
4420
7720
AAA0
7EA0
42A0
7EA0
42A0
7EA0
24A0
FF20
2420
4460
ENDCHAR
STARTCHAR uni350E
ENCODING 13582
BBX 11 12 0 -2
BITMAP
A880
FBE0
5000
F940
4BE0
7C80
45C0
7C80
0000
7FC0
1040
E180
ENDCHAR
STARTCHAR uni350F
ENCODING 13583
BBX 11 12 0 -2
BITMAP
FF20
2020
7EA0
A2A0
3EA0
00A0
F7A0
42A0
77A0
DD20
5520
7760
ENDCHAR
STARTCHAR uni3510
ENCODING 13584
BBX 11 12 0 -2
BITMAP
4420
7720
AAA0
FEA0
28A0
EEA0
28A0
EEA0
28A0
EE20
2820
FE60
ENDCHAR
STARTCHAR uni3511
ENCODING 13585
BBX 11 12 0 -2
BITMAP
1100
FFE0
2080
73E0
5140
7BE0
4880
79C0
0080
7FC0
1040
E180
ENDCHAR
STARTCHAR uni3512
ENCODING 13586
BBX 11 12 0 -2
BITMAP
1020
9220
FEA0
48A0
FEA0
88A0
FEA0
AAA0
C6A0
BA20
AA20
BA60
ENDCHAR
STARTCHAR uni3513
ENCODING 13587
BBX 11 12 0 -2
BITMAP
1900
7100
1100
13E0
1120
FD20
1120
1120
1120
1220
1220
14C0
ENDCHAR
STARTCHAR uni3514
ENCODING 13588
BBX 11 12 0 -2
BITMAP
2000
FDE0
2520
4520
4520
99E0
0000
3F80
4040
4040
4040
3F80
ENDCHAR
STARTCHAR uni3515
ENCODING 13589
BBX 11 12 0 -2
BITMAP
4080
4080
7C80
81E0
78A0
00A0
F8A0
08A0
08A0
0AA0
06A0
0360
ENDCHAR
STARTCHAR uni3516
ENCODING 13590
BBX 11 12 0 -2
BITMAP
2000
FDE0
2520
2520
4520
4520
99E0
0000
7FC0
0040
0040
0040
ENDCHAR
STARTCHAR uni3517
ENCODING 13591
BBX 11 12 0 -2
BITMAP
2880
FE80
2A80
2BE0
FEA0
A8A0
A8A0
FEA0
2AA0
2AA0
4EA0
8960
ENDCHAR
STARTCHAR uni3518
ENCODING 13592
BBX 11 12 0 -2
BITMAP
2100
2100
A900
ABE0
A920
F920
2120
A920
A920
BA20
CA20
04C0
ENDCHAR
STARTCHAR uni3519
ENCODING 13593
BBX 11 12 0 -2
BITMAP
4480
2880
7C80
29E0
28A0
28A0
FEA0
28A0
28A0
4920
4920
8AC0
ENDCHAR
STARTCHAR uni351A
ENCODING 13594
BBX 11 12 0 -2
BITMAP
0C80
7080
1080
11E0
FEA0
10A0
10A0
7CA0
44A0
44A0
7CA0
4560
ENDCHAR
STARTCHAR uni351B
ENCODING 13595
BBX 11 12 0 -2
BITMAP
0400
FFE0
0400
7FC0
0000
7FC0
4040
7FC0
0800
FFC0
1040
6180
ENDCHAR
STARTCHAR uni351C
ENCODING 13596
BBX 11 12 0 -2
BITMAP
0E80
F080
2280
95E0
40A0
FCA0
08A0
10A0
1EA0
F120
1120
32C0
ENDCHAR
STARTCHAR uni351D
ENCODING 13597
BBX 11 12 0 -2
BITMAP
0080
FE80
1080
11E0
FEA0
92A0
DAA0
B6A0
DAA0
92A0
92A0
8760
ENDCHAR
STARTCHAR uni351E
ENCODING 13598
BBX 11 12 0 -2
BITMAP
0C80
7080
11E0
FEA0
10A0
54A0
D6A0
54A0
D6A0
54A0
1120
1260
ENDCHAR
STARTCHAR uni351F
ENCODING 13599
BBX 11 12 0 -2
BITMAP
5100
7BC0
9140
7B40
1140
1AE0
6420
0800
FFC0
1040
2040
C180
ENDCHAR
STARTCHAR uni3520
ENCODING 13600
BBX 11 12 0 -2
BITMAP
7C80
4480
7C80
45E0
7CA0
20A0
3EA0
52A0
AAA0
42A0
7AA0
0D60
ENDCHAR
STARTCHAR uni3521
ENCODING 13601
BBX 11 12 0 -2
BITMAP
1080
FE80
AA80
93E0
AAA0
FEA0
00A0
88A0
EEA0
8920
AD20
CAC0
ENDCHAR
STARTCHAR uni3522
ENCODING 13602
BBX 11 12 0 -2
BITMAP
4200
9780
E880
47C0
9540
F7C0
0420
ABE0
0800
FFC0
1040
6180
ENDCHAR
STARTCHAR uni3523
ENCODING 13603
BBX 11 12 0 -2
BITMAP
7C80
5480
7C80
55E0
7CA0
00A0
FEA0
AAA0
FEA0
AAA0
FEA0
8360
ENDCHAR
STARTCHAR uni3524
ENCODING 13604
BBX 11 12 0 -2
BITMAP
1080
FE80
8A80
71E0
54A0
10A0
FEA0
54A0
92A0
7CA0
54A0
7D60
ENDCHAR
STARTCHAR uni3525
ENCODING 13605
BBX 11 12 0 -2
BITMAP
FE80
AA80
FE80
4BE0
ACA0
EAA0
06A0
E0A0
AAA0
ECA0
AAA0
A760
ENDCHAR
STARTCHAR uni3526
ENCODING 13606
BBX 11 12 0 -2
BITMAP
2880
FE80
1080
7DE0
20A0
FEA0
54A0
FAA0
48A0
7920
5520
6EC0
ENDCHAR
STARTCHAR uni3527
ENCODING 13607
BBX 11 12 0 -2
BITMAP
1080
1E80
1080
7FE0
52A0
7CA0
52A0
5EA0
54A0
BEA0
AAA0
7F60
ENDCHAR
STARTCHAR uni3528
ENCODING 13608
BBX 11 12 0 -2
BITMAP
4000
7FE0
8020
12A0
7320
12A0
61A0
3F20
2120
3F20
2120
2360
ENDCHAR
STARTCHAR uni3529
ENCODING 13609
BBX 11 12 0 -2
BITMAP
4000
7FE0
8820
7F20
0820
7FA0
2220
7F20
0020
7F20
5520
FFE0
ENDCHAR
STARTCHAR uni352A
ENCODING 13610
BBX 11 12 0 -2
BITMAP
2000
3FE0
4820
8FA0
0820
FFA0
AAA0
94A0
C9A0
94A0
AAA0
FFC0
ENDCHAR
STARTCHAR uni352B
ENCODING 13611
BBX 11 12 0 -2
BITMAP
0800
0800
0800
FFE0
0A00
1220
1240
1380
2200
2220
4220
81E0
ENDCHAR
STARTCHAR uni352C
ENCODING 13612
BBX 11 12 0 -2
BITMAP
80C0
FF00
8020
7FE0
4040
7FC0
4040
7FC0
0400
FFE0
0400
0400
ENDCHAR
STARTCHAR uni352D
ENCODING 13613
BBX 11 12 0 -2
BITMAP
9FC0
9040
9FC0
F040
9FC0
8000
BFE0
8200
B3C0
D200
9200
2FE0
ENDCHAR
STARTCHAR uni352E
ENCODING 13614
BBX 11 12 0 -2
BITMAP
5240
FD60
5740
7040
2720
FD00
AF40
FD40
2760
FD40
5540
8D20
ENDCHAR
STARTCHAR uni352F
ENCODING 13615
BBX 10 12 1 -2
BITMAP
FFC0
8000
9F00
9100
9100
A0C0
DF00
9100
9100
9F00
8000
FFC0
ENDCHAR
STARTCHAR uni3530
ENCODING 13616
BBX 10 12 1 -2
BITMAP
FFC0
9100
9100
9D00
A580
A540
D540
8900
8900
9100
A100
FFC0
ENDCHAR
STARTCHAR uni3531
ENCODING 13617
BBX 10 12 1 -2
BITMAP
FFC0
8400
9580
A480
B580
A480
BF80
8A00
8900
9080
A080
FFC0
ENDCHAR
STARTCHAR uni3532
ENCODING 13618
BBX 11 12 0 -2
BITMAP
FFE0
8900
9500
ABC0
FD40
A540
BD40
A540
BE40
AA60
B420
FFE0
ENDCHAR
STARTCHAR uni3533
ENCODING 13619
BBX 11 12 0 -2
BITMAP
FFE0
8800
95C0
AB40
FD40
A540
BD40
A540
BD40
AA60
B400
FFE0
ENDCHAR
STARTCHAR uni3534
ENCODING 13620
BBX 10 12 1 -2
BITMAP
FFC0
A480
BF80
A480
BF80
9100
BF80
9100
FFC0
9100
A080
FFC0
ENDCHAR
STARTCHAR uni3535
ENCODING 13621
BBX 11 12 0 -2
BITMAP
FFE0
A940
B9C0
A520
9CE0
9080
BFC0
9080
FFE0
9080
A040
FFE0
ENDCHAR
STARTCHAR uni3536
ENCODING 13622
BBX 11 12 0 -2
BITMAP
FFE0
9100
FDC0
AB40
FD80
AE60
BBC0
AA40
FFC0
9180
9240
FFE0
ENDCHAR
STARTCHAR uni3537
ENCODING 13623
BBX 11 12 0 -2
BITMAP
FFE0
8000
BFE0
8200
BFE0
A220
A520
A8A0
A020
A060
8000
FFE0
ENDCHAR
STARTCHAR uni3538
ENCODING 13624
BBX 11 12 0 -2
BITMAP
FFE0
8600
BB80
A200
AFC0
AB40
AE80
A980
AF00
D540
A8C0
FFE0
ENDCHAR
STARTCHAR uni3539
ENCODING 13625
BBX 11 12 0 -2
BITMAP
2100
2100
2100
23E0
F920
2120
2120
2120
2120
2220
2220
24C0
ENDCHAR
STARTCHAR uni353A
ENCODING 13626
BBX 11 12 0 -2
BITMAP
0400
0400
7FC0
0400
0400
2080
2080
FFE0
2080
20A0
2020
1FE0
ENDCHAR
STARTCHAR uni353B
ENCODING 13627
BBX 11 12 0 -2
BITMAP
FFE0
0400
0D80
3440
C420
0400
0000
0400
0400
FFE0
0400
0400
ENDCHAR
STARTCHAR uni353C
ENCODING 13628
BBX 11 12 0 -2
BITMAP
2280
F7E0
2C80
37E0
E480
27E0
2480
67E0
0400
FFE0
0400
0400
ENDCHAR
STARTCHAR uni353D
ENCODING 13629
BBX 10 12 1 -2
BITMAP
0800
0FC0
0800
FFC0
8040
BF40
A140
A140
BF40
8040
FFC0
8040
ENDCHAR
STARTCHAR uni353E
ENCODING 13630
BBX 10 11 1 -2
BITMAP
FF00
8100
8100
8100
8100
8100
8E00
8040
8040
8040
7FC0
ENDCHAR
STARTCHAR uni353F
ENCODING 13631
BBX 11 11 0 -2
BITMAP
FFE0
2080
2080
2080
2080
2080
2380
2C80
3080
0080
0080
ENDCHAR
STARTCHAR uni3540
ENCODING 13632
BBX 10 12 1 -2
BITMAP
0800
FF80
8880
FF80
8880
FF80
0000
FF80
8080
8300
8040
7FC0
ENDCHAR
STARTCHAR uni3541
ENCODING 13633
BBX 11 12 0 -2
BITMAP
6400
18E0
24A0
42A0
10A0
FEA0
20A0
48A0
90A0
24E0
7E80
0280
ENDCHAR
STARTCHAR uni3542
ENCODING 13634
BBX 11 11 0 -2
BITMAP
7FE0
4200
4500
4880
5440
6220
4F80
4080
4100
4100
8200
ENDCHAR
STARTCHAR uni3543
ENCODING 13635
BBX 11 12 0 -2
BITMAP
7FE0
4000
4000
5FE0
4480
4480
4480
5FE0
4480
4480
4880
9080
ENDCHAR
STARTCHAR uni3544
ENCODING 13636
BBX 11 12 0 -2
BITMAP
7FE0
4000
5FC0
4200
4400
4880
5F00
4200
4400
4880
5FC0
8040
ENDCHAR
STARTCHAR uni3545
ENCODING 13637
BBX 11 12 0 -2
BITMAP
7FE0
4000
5FC0
5240
5240
5FC0
5240
5240
5FC0
5240
4200
8200
ENDCHAR
STARTCHAR uni3546
ENCODING 13638
BBX 11 12 0 -2
BITMAP
7FE0
4200
4200
7FE0
4200
4200
5FC0
5040
5040
5040
5FC0
9040
ENDCHAR
STARTCHAR uni3547
ENCODING 13639
BBX 11 12 0 -2
BITMAP
7FE0
4400
4200
4000
5FC0
4000
4880
4480
4500
4100
4200
BFE0
ENDCHAR
STARTCHAR uni3548
ENCODING 13640
BBX 11 12 0 -2
BITMAP
7FE0
4000
4400
4200
7FE0
4400
4A40
5A80
6900
4880
4C60
8800
ENDCHAR
STARTCHAR uni3549
ENCODING 13641
BBX 11 12 0 -2
BITMAP
7FE0
4200
4500
4880
7060
4F80
4000
5FC0
5040
5040
5FC0
9040
ENDCHAR
STARTCHAR uni354A
ENCODING 13642
BBX 11 12 0 -2
BITMAP
7FE0
4200
4240
7FE0
4200
5FC0
5240
5FC0
5240
5FC0
5240
90C0
ENDCHAR
STARTCHAR uni354B
ENCODING 13643
BBX 11 12 0 -2
BITMAP
7FE0
4200
4500
4880
5040
6FA0
4200
5FC0
4200
5240
4A80
BFE0
ENDCHAR
STARTCHAR uni354C
ENCODING 13644
BBX 11 12 0 -2
BITMAP
7FE0
4000
5FC0
5040
5FC0
5040
7FE0
4080
7FE0
4880
4480
8180
ENDCHAR
STARTCHAR uni354D
ENCODING 13645
BBX 11 12 0 -2
BITMAP
7FE0
4900
4880
5FE0
7100
5FC0
5100
5FC0
5100
5100
5FE0
9000
ENDCHAR
STARTCHAR uni354E
ENCODING 13646
BBX 11 12 0 -2
BITMAP
7FE0
4000
4200
5FC0
4200
5FE0
4880
5FC0
4000
5FC0
5540
BFE0
ENDCHAR
STARTCHAR uni354F
ENCODING 13647
BBX 11 11 0 -2
BITMAP
7FE0
4040
5D40
40C0
5C40
5540
5CC0
4060
55C0
4E40
B040
ENDCHAR
STARTCHAR uni3550
ENCODING 13648
BBX 11 12 0 -2
BITMAP
7FE0
4400
59C0
5040
5DC0
5040
5FC0
4800
5FE0
6020
5520
AAC0
ENDCHAR
STARTCHAR uni3551
ENCODING 13649
BBX 11 11 0 -2
BITMAP
7FE0
4840
7E40
49E0
5C40
4140
7EC0
6240
7E40
5440
BEC0
ENDCHAR
STARTCHAR uni3552
ENCODING 13650
BBX 11 12 0 -2
BITMAP
7FE0
4880
5FC0
4200
5FC0
4200
7FE0
4940
7FE0
4940
5CA0
8B60
ENDCHAR
STARTCHAR uni3553
ENCODING 13651
BBX 11 11 0 -2
BITMAP
7FE0
5AC0
5740
5FC0
4200
7FE0
5540
4200
5FC0
4200
BFE0
ENDCHAR
STARTCHAR uni3554
ENCODING 13652
BBX 11 12 0 -2
BITMAP
7FE0
4080
7FE0
5480
5FE0
56A0
7FE0
5400
7DC0
54A0
7D40
86C0
ENDCHAR
STARTCHAR uni3555
ENCODING 13653
BBX 10 12 1 -2
BITMAP
0800
1000
2100
4080
FFC0
0040
0800
1000
2100
4080
FFC0
0040
ENDCHAR
STARTCHAR uni3556
ENCODING 13654
BBX 11 12 0 -2
BITMAP
1000
2080
7FC0
2080
4100
9240
FBE0
0820
0400
FFE0
2480
C460
ENDCHAR
STARTCHAR uni3557
ENCODING 13655
BBX 11 12 0 -2
BITMAP
4480
FE80
1080
7C80
1100
FF00
4140
7A20
8BE0
1020
2C00
C3E0
ENDCHAR
STARTCHAR uni3558
ENCODING 13656
BBX 11 12 0 -2
BITMAP
1000
2080
7FC0
4080
9120
F5E0
0A00
3580
C460
1500
2480
4C40
ENDCHAR
STARTCHAR uni3559
ENCODING 13657
BBX 11 12 0 -2
BITMAP
2100
49C0
FA40
0080
4BE0
A6A0
3AA0
4BE0
A940
1100
2AA0
C460
ENDCHAR
STARTCHAR uni355A
ENCODING 13658
BBX 11 11 0 -2
BITMAP
7FC0
2040
2440
2280
1080
9100
4A00
0400
0A00
3180
C060
ENDCHAR
STARTCHAR uni355B
ENCODING 13659
BBX 11 12 0 -2
BITMAP
7FC0
0080
3100
0E00
3180
C040
0000
7F80
2080
1100
0E00
F1E0
ENDCHAR
STARTCHAR uni355C
ENCODING 13660
BBX 11 12 0 -2
BITMAP
0400
0400
7FC0
4440
4440
7FC0
0400
7F80
2080
1100
0E00
F1E0
ENDCHAR
STARTCHAR uni355D
ENCODING 13661
BBX 11 12 0 -2
BITMAP
0400
FFE0
0400
7FC0
4040
7FC0
0000
7F80
2080
1100
0E00
F1E0
ENDCHAR
STARTCHAR uni355E
ENCODING 13662
BBX 11 12 0 -2
BITMAP
7E00
42E0
42A0
7EA0
48A0
48A0
7EA0
6AA0
AA40
2A40
2EA0
0920
ENDCHAR
STARTCHAR uni355F
ENCODING 13663
BBX 11 12 0 -2
BITMAP
1000
1E00
11E0
10A0
FEA0
AAA0
AAA0
FEA0
AA40
AA40
AAA0
8720
ENDCHAR
STARTCHAR uni3560
ENCODING 13664
BBX 11 12 0 -2
BITMAP
8900
5FE0
3100
5FC0
1100
5FE0
9000
7F80
2080
1100
0E00
F1E0
ENDCHAR
STARTCHAR uni3561
ENCODING 13665
BBX 11 12 0 -2
BITMAP
2000
39C0
2140
FD40
8540
7940
4940
B540
4880
FC80
4940
7A20
ENDCHAR
STARTCHAR uni3562
ENCODING 13666
BBX 11 12 0 -2
BITMAP
1000
1E00
11E0
FEA0
82A0
7CA0
44A0
7CA0
4440
7C40
28A0
4520
ENDCHAR
STARTCHAR uni3563
ENCODING 13667
BBX 11 12 0 -2
BITMAP
1100
1100
2080
2080
4040
BFA0
2080
2080
2080
2080
3F80
2080
ENDCHAR
STARTCHAR uni3564
ENCODING 13668
BBX 11 12 0 -2
BITMAP
0400
E400
A400
BF80
A480
A480
A480
A480
E480
A8A0
08A0
1060
ENDCHAR
STARTCHAR uni3565
ENCODING 13669
BBX 11 12 0 -2
BITMAP
0100
F100
9100
9100
9100
9100
9280
9280
F280
9440
0440
0820
ENDCHAR
STARTCHAR uni3566
ENCODING 13670
BBX 11 12 0 -2
BITMAP
7FC0
4040
4040
7FC0
0400
0400
FFE0
0400
0A00
1100
2080
C060
ENDCHAR
STARTCHAR uni3567
ENCODING 13671
BBX 11 11 0 -2
BITMAP
0FE0
E820
A820
A820
AFE0
A820
A800
E800
A800
0800
1000
ENDCHAR
STARTCHAR uni3568
ENCODING 13672
BBX 11 11 0 -2
BITMAP
F780
9480
9480
9480
9680
9580
9480
F480
94A0
08A0
1060
ENDCHAR
STARTCHAR uni3569
ENCODING 13673
BBX 11 12 0 -2
BITMAP
0100
E100
AFE0
A100
A100
A7C0
A100
A100
EFE0
A100
0100
0100
ENDCHAR
STARTCHAR uni356A
ENCODING 13674
BBX 11 12 0 -2
BITMAP
0100
E100
AFE0
A920
A920
A100
A280
A280
E280
A480
04A0
0860
ENDCHAR
STARTCHAR uni356B
ENCODING 13675
BBX 11 12 0 -2
BITMAP
0400
E200
BFE0
A400
A400
A7C0
A440
A440
E440
A840
0840
1180
ENDCHAR
STARTCHAR uni356C
ENCODING 13676
BBX 11 12 0 -2
BITMAP
0480
E480
A480
A840
A840
B220
A200
A400
E480
A840
0FC0
0040
ENDCHAR
STARTCHAR uni356D
ENCODING 13677
BBX 11 12 0 -2
BITMAP
00C0
E700
A100
A100
A100
AFE0
A100
A100
E280
A280
0440
0820
ENDCHAR
STARTCHAR uni356E
ENCODING 13678
BBX 11 12 0 -2
BITMAP
0480
E440
A820
B020
A440
A440
A440
A280
E100
A280
0440
1820
ENDCHAR
STARTCHAR uni356F
ENCODING 13679
BBX 11 12 0 -2
BITMAP
0400
0400
FFE0
8A20
9120
A0A0
9F20
9120
9120
9F20
8020
80E0
ENDCHAR
STARTCHAR uni3570
ENCODING 13680
BBX 11 12 0 -2
BITMAP
01C0
1E00
E200
A380
BE00
A200
A3E0
BE00
E200
A220
0220
01E0
ENDCHAR
STARTCHAR uni3571
ENCODING 13681
BBX 11 12 0 -2
BITMAP
0480
E440
A400
BFE0
A500
A500
A500
A500
E900
A920
1120
20E0
ENDCHAR
STARTCHAR uni3572
ENCODING 13682
BBX 11 12 0 -2
BITMAP
0100
E100
A100
AFE0
A100
A380
A380
A540
E540
A920
0100
0100
ENDCHAR
STARTCHAR uni3573
ENCODING 13683
BBX 11 12 0 -2
BITMAP
0040
E440
A280
AAA0
A920
A920
AAA0
AAA0
ECA0
A820
0FE0
0020
ENDCHAR
STARTCHAR uni3574
ENCODING 13684
BBX 11 11 0 -2
BITMAP
EFE0
A820
A000
A780
A480
A480
A480
E480
A4A0
08A0
1060
ENDCHAR
STARTCHAR uni3575
ENCODING 13685
BBX 11 11 0 -2
BITMAP
EFE0
A100
A100
A100
A100
AFE0
A100
E100
A100
0100
0FE0
ENDCHAR
STARTCHAR uni3576
ENCODING 13686
BBX 11 11 0 -2
BITMAP
EFC0
A200
A200
A200
AFC0
A240
A240
E440
A440
0440
1FE0
ENDCHAR
STARTCHAR uni3577
ENCODING 13687
BBX 11 12 0 -2
BITMAP
0080
F100
97E0
9420
9420
9420
97E0
9420
F420
9420
07E0
0420
ENDCHAR
STARTCHAR uni3578
ENCODING 13688
BBX 11 12 0 -2
BITMAP
0200
0100
E000
BFE0
A000
A840
A840
A440
E480
A480
0100
1FE0
ENDCHAR
STARTCHAR uni3579
ENCODING 13689
BBX 11 12 0 -2
BITMAP
0480
0440
E400
BFE0
A400
A7C0
AA40
AA40
F280
9100
2280
0C60
ENDCHAR
STARTCHAR uni357A
ENCODING 13690
BBX 11 12 0 -2
BITMAP
7BC0
4A40
4A40
7BC0
0000
FFE0
1000
2000
3FC0
0040
0040
0380
ENDCHAR
STARTCHAR uni357B
ENCODING 13691
BBX 11 12 0 -2
BITMAP
0400
0200
FFE0
0400
0D80
3440
C420
0000
7FC0
4040
4040
7FC0
ENDCHAR
STARTCHAR uni357C
ENCODING 13692
BBX 11 12 0 -2
BITMAP
0400
E7E0
A820
B2A0
A120
A920
AAA0
A820
EFA0
A020
0020
00C0
ENDCHAR
STARTCHAR uni357D
ENCODING 13693
BBX 11 12 0 -2
BITMAP
0040
EA40
A940
A940
A840
A880
A880
AA80
ED40
A940
0220
0420
ENDCHAR
STARTCHAR uni357E
ENCODING 13694
BBX 11 12 0 -2
BITMAP
0400
2480
4440
8420
0400
0000
FA20
8A40
8B80
8A20
FA20
89E0
ENDCHAR
STARTCHAR uni357F
ENCODING 13695
BBX 11 12 0 -2
BITMAP
0380
3C00
0400
FFE0
1500
2480
C460
3F80
2080
2080
3F80
2080
ENDCHAR
STARTCHAR uni3580
ENCODING 13696
BBX 11 12 0 -2
BITMAP
0200
0FC0
E240
BFE0
A240
AFC0
A200
AFC0
E200
9FE0
0200
0200
ENDCHAR
STARTCHAR uni3581
ENCODING 13697
BBX 11 12 0 -2
BITMAP
0640
0180
E240
A420
A100
AFE0
A200
A480
E900
9240
07E0
0020
ENDCHAR
STARTCHAR uni3582
ENCODING 13698
BBX 11 12 0 -2
BITMAP
0100
E100
AFE0
A920
AFE0
A920
AFE0
A140
E080
A1A0
0260
0C20
ENDCHAR
STARTCHAR uni3583
ENCODING 13699
BBX 11 12 0 -2
BITMAP
00C0
EF00
A800
A800
AFE0
A800
A800
ABE0
EA20
AA20
0BE0
1220
ENDCHAR
STARTCHAR uni3584
ENCODING 13700
BBX 11 12 0 -2
BITMAP
0820
E920
A920
A920
BDA0
AB60
A920
A920
E920
A920
1120
2020
ENDCHAR
STARTCHAR uni3585
ENCODING 13701
BBX 11 12 0 -2
BITMAP
00A0
0080
EFE0
A880
A880
A8A0
AEA0
A8C0
E880
90A0
1160
2220
ENDCHAR
STARTCHAR uni3586
ENCODING 13702
BBX 11 12 0 -2
BITMAP
0280
E280
AFE0
AAA0
AAA0
AAA0
AFE0
AAA0
EAA0
AAA0
0FE0
0820
ENDCHAR
STARTCHAR uni3587
ENCODING 13703
BBX 11 11 0 -2
BITMAP
0FE0
E100
A200
AFE0
AAA0
AAA0
AAA0
EAA0
AAA0
0AA0
0860
ENDCHAR
STARTCHAR uni3588
ENCODING 13704
BBX 11 12 0 -2
BITMAP
0440
3E80
0500
FFE0
0880
1F00
2820
C7E0
0000
7FC0
4040
7FC0
ENDCHAR
STARTCHAR uni3589
ENCODING 13705
BBX 11 12 0 -2
BITMAP
0100
E100
A280
A280
A440
A920
A100
A5E0
E500
A500
0500
1FE0
ENDCHAR
STARTCHAR uni358A
ENCODING 13706
BBX 11 11 0 -2
BITMAP
EFC0
A040
A7C0
A040
AFC0
A080
AFE0
E480
A280
0080
0180
ENDCHAR
STARTCHAR uni358B
ENCODING 13707
BBX 11 12 0 -2
BITMAP
0400
0A00
3180
D160
1100
1100
2100
0000
7A40
4B80
4A20
79E0
ENDCHAR
STARTCHAR uni358C
ENCODING 13708
BBX 11 12 0 -2
BITMAP
1200
1200
2F80
6280
A480
24A0
2860
0000
7A40
4B80
4A20
79E0
ENDCHAR
STARTCHAR uni358D
ENCODING 13709
BBX 11 12 0 -2
BITMAP
1100
0900
4100
21E0
FF00
0100
0100
7A40
4B80
4A00
7A20
49E0
ENDCHAR
STARTCHAR uni358E
ENCODING 13710
BBX 11 12 0 -2
BITMAP
7A40
4B80
4A20
79E0
0400
0A00
3180
C060
1100
1100
1100
2100
ENDCHAR
STARTCHAR uni358F
ENCODING 13711
BBX 11 12 0 -2
BITMAP
0FE0
E820
A820
AFE0
A820
A820
AFE0
A100
EFE0
A100
0100
1FE0
ENDCHAR
STARTCHAR uni3590
ENCODING 13712
BBX 11 12 0 -2
BITMAP
7BC0
4A40
7BC0
0000
7FC0
0440
FFE0
0440
7FC0
0840
1000
6000
ENDCHAR
STARTCHAR uni3591
ENCODING 13713
BBX 11 12 0 -2
BITMAP
00A0
E080
BFE0
A080
AA80
AAA0
BFA0
AAC0
EAC0
AAA0
1160
0220
ENDCHAR
STARTCHAR uni3592
ENCODING 13714
BBX 11 12 0 -2
BITMAP
0440
E280
AFE0
A120
AFE0
A900
AFE0
A320
E520
A9C0
1100
0100
ENDCHAR
STARTCHAR uni3593
ENCODING 13715
BBX 11 12 0 -2
BITMAP
0200
07C0
EC40
A380
AC60
A100
A7C0
A100
E7C0
A100
0FE0
0100
ENDCHAR
STARTCHAR uni3594
ENCODING 13716
BBX 11 11 0 -2
BITMAP
EFC0
A200
A200
BFE0
A480
A840
BFE0
E840
A840
0FC0
0840
ENDCHAR
STARTCHAR uni3595
ENCODING 13717
BBX 11 12 0 -2
BITMAP
0200
0100
F7C0
9000
9440
9280
9FE0
9100
F7C0
9100
0100
0100
ENDCHAR
STARTCHAR uni3596
ENCODING 13718
BBX 11 12 0 -2
BITMAP
0400
7FC0
2080
1100
FFE0
0400
7FC0
0400
7FC0
4040
4040
7FC0
ENDCHAR
STARTCHAR uni3597
ENCODING 13719
BBX 11 12 0 -2
BITMAP
0100
E920
AFE0
A100
A280
A440
A920
A080
E7C0
A040
0080
0100
ENDCHAR
STARTCHAR uni3598
ENCODING 13720
BBX 11 11 0 -2
BITMAP
EFE0
A800
ABC0
A800
AFE0
AA80
AAA0
EAC0
AA80
0B40
1220
ENDCHAR
STARTCHAR uni3599
ENCODING 13721
BBX 11 12 0 -2
BITMAP
2000
FDE0
2520
2520
4520
99E0
0000
7A40
4B80
4A00
7A20
49E0
ENDCHAR
STARTCHAR uni359A
ENCODING 13722
BBX 11 12 0 -2
BITMAP
1080
2FE0
6480
A280
2080
2180
0000
7A40
4B80
4A00
7A20
49E0
ENDCHAR
STARTCHAR uni359B
ENCODING 13723
BBX 11 12 0 -2
BITMAP
0400
FFE0
0400
7FC0
4040
7FC0
0000
7A40
4B80
4A00
7A20
49E0
ENDCHAR
STARTCHAR uni359C
ENCODING 13724
BBX 11 12 0 -2
BITMAP
0400
FFE0
0000
7FC0
4040
7FC0
0000
7A40
4B80
4A00
7A20
49E0
ENDCHAR
STARTCHAR uni359D
ENCODING 13725
BBX 11 12 0 -2
BITMAP
0400
7FC0
0400
FFE0
1500
2480
C460
0000
7A40
4B80
4A20
79E0
ENDCHAR
STARTCHAR uni359E
ENCODING 13726
BBX 11 12 0 -2
BITMAP
07C0
E440
A440
A7C0
A100
AFE0
A920
A920
EAA0
AC60
0820
0860
ENDCHAR
STARTCHAR uni359F
ENCODING 13727
BBX 11 12 0 -2
BITMAP
0060
EF80
A520
A2C0
AFE0
A820
A7C0
A440
E280
A100
0280
0C60
ENDCHAR
STARTCHAR uni35A0
ENCODING 13728
BBX 11 12 0 -2
BITMAP
0100
E100
AFE0
A280
A440
ABA0
A000
AFE0
E100
A540
0920
0300
ENDCHAR
STARTCHAR uni35A1
ENCODING 13729
BBX 11 12 0 -2
BITMAP
0200
0100
EFE0
A500
A5E0
A920
AAA0
BA40
ED40
A880
0940
0A20
ENDCHAR
STARTCHAR uni35A2
ENCODING 13730
BBX 11 12 0 -2
BITMAP
0200
3FE0
E000
A280
A2A0
AAC0
AB80
AA80
EA80
AAA0
2BA0
5C60
ENDCHAR
STARTCHAR uni35A3
ENCODING 13731
BBX 11 12 0 -2
BITMAP
0100
0FC0
E000
A840
A480
BFE0
A000
AFC0
E840
A840
0FC0
0840
ENDCHAR
STARTCHAR uni35A4
ENCODING 13732
BBX 11 12 0 -2
BITMAP
07C0
0040
E080
A920
AD60
ABA0
A920
ABA0
ED60
A920
0B20
0FE0
ENDCHAR
STARTCHAR uni35A5
ENCODING 13733
BBX 11 12 0 -2
BITMAP
0FE0
E8A0
AB20
A920
AFE0
A920
ABA0
AD60
E920
A920
0FE0
0820
ENDCHAR
STARTCHAR uni35A6
ENCODING 13734
BBX 11 12 0 -2
BITMAP
0100
EFE0
A100
AFE0
A920
AFE0
A920
AFE0
E380
A540
0920
0100
ENDCHAR
STARTCHAR uni35A7
ENCODING 13735
BBX 11 12 0 -2
BITMAP
0040
EF80
A900
AFC0
A8A0
AE60
A020
AFC0
E840
AFC0
0840
0FC0
ENDCHAR
STARTCHAR uni35A8
ENCODING 13736
BBX 11 12 0 -2
BITMAP
07C0
E040
A7C0
A040
AFE0
A100
A920
A540
E380
A540
0920
0300
ENDCHAR
STARTCHAR uni35A9
ENCODING 13737
BBX 11 12 0 -2
BITMAP
1F00
0AE0
EAA0
AEA0
AAA0
AAA0
AEA0
AAA0
EB40
9E40
02A0
0320
ENDCHAR
STARTCHAR uni35AA
ENCODING 13738
BBX 11 12 0 -2
BITMAP
00A0
E080
AFE0
A080
AE80
AAA0
AAA0
AEC0
E0C0
A2A0
0D60
0220
ENDCHAR
STARTCHAR uni35AB
ENCODING 13739
BBX 11 12 0 -2
BITMAP
0100
E7C0
A100
AFE0
A440
AA20
A3C0
A440
EA80
A100
0280
0C60
ENDCHAR
STARTCHAR uni35AC
ENCODING 13740
BBX 11 12 0 -2
BITMAP
0200
ECE0
A820
AEE0
A820
AFE0
A000
AFE0
E420
A440
0380
1C60
ENDCHAR
STARTCHAR uni35AD
ENCODING 13741
BBX 11 12 0 -2
BITMAP
0FC0
E200
A200
BFE0
A480
A840
B220
A200
E340
AAA0
12A0
0600
ENDCHAR
STARTCHAR uni35AE
ENCODING 13742
BBX 11 12 0 -2
BITMAP
0100
E280
A440
ABA0
A000
AFE0
AAA0
AAA0
EFE0
AAA0
0AA0
0860
ENDCHAR
STARTCHAR uni35AF
ENCODING 13743
BBX 10 12 1 -2
BITMAP
FF80
8080
BE80
8080
BE80
A280
BE80
8180
0480
F700
9440
F3C0
ENDCHAR
STARTCHAR uni35B0
ENCODING 13744
BBX 10 12 1 -2
BITMAP
F480
9700
F440
03C0
FF80
8080
BE80
8080
BE80
A280
BE80
8180
ENDCHAR
STARTCHAR uni35B1
ENCODING 13745
BBX 11 12 0 -2
BITMAP
0400
FFE0
1400
27C0
6940
B480
2300
2CE0
0000
7FC0
4040
7FC0
ENDCHAR
STARTCHAR uni35B2
ENCODING 13746
BBX 11 12 0 -2
BITMAP
2000
23C0
FA40
4A40
4A40
3240
4BC0
8000
7A40
4B80
4A20
79E0
ENDCHAR
STARTCHAR uni35B3
ENCODING 13747
BBX 11 12 0 -2
BITMAP
4200
2FE0
8440
4C80
2300
4CE0
8000
7A40
4B80
4A00
7A20
49E0
ENDCHAR
STARTCHAR uni35B4
ENCODING 13748
BBX 11 12 0 -2
BITMAP
0480
EFE0
A480
A800
AFE0
AAA0
B2A0
A4A0
E520
A920
1220
05C0
ENDCHAR
STARTCHAR uni35B5
ENCODING 13749
BBX 11 12 0 -2
BITMAP
0FC0
E840
AFC0
A840
AFC0
A840
AFC0
A840
FFE0
A000
0480
0840
ENDCHAR
STARTCHAR uni35B6
ENCODING 13750
BBX 11 11 0 -2
BITMAP
EFE0
A280
AFE0
AAA0
AAA0
AFE0
A100
EFE0
A100
0100
1FE0
ENDCHAR
STARTCHAR uni35B7
ENCODING 13751
BBX 11 12 0 -2
BITMAP
0FC0
E840
AFC0
A840
AFC0
A000
BFE0
A100
E9C0
A900
0900
17E0
ENDCHAR
STARTCHAR uni35B8
ENCODING 13752
BBX 11 12 0 -2
BITMAP
03C0
E200
AFE0
AAA0
AF40
A9C0
A800
ABC0
EA00
AFE0
0A00
13C0
ENDCHAR
STARTCHAR uni35B9
ENCODING 13753
BBX 11 12 0 -2
BITMAP
0480
E840
B020
AFC0
A440
A840
B180
A000
FFC0
B540
1540
3FE0
ENDCHAR
STARTCHAR uni35BA
ENCODING 13754
BBX 11 12 0 -2
BITMAP
0100
EFE0
A100
A7C0
A200
AFE0
A440
AFE0
E440
A7C0
0440
07C0
ENDCHAR
STARTCHAR uni35BB
ENCODING 13755
BBX 11 12 0 -2
BITMAP
07C0
E240
A180
AFE0
A2A0
A480
A980
A100
EFE0
A380
0540
0920
ENDCHAR
STARTCHAR uni35BC
ENCODING 13756
BBX 11 12 0 -2
BITMAP
0440
EFE0
A440
A7C0
A440
A7C0
A100
AFE0
E380
A540
0920
0100
ENDCHAR
STARTCHAR uni35BD
ENCODING 13757
BBX 11 11 0 -2
BITMAP
07E0
F100
97E0
9420
97E0
9420
97E0
F420
97E0
0240
0420
ENDCHAR
STARTCHAR uni35BE
ENCODING 13758
BBX 11 12 0 -2
BITMAP
7BC0
4A40
7BC0
2080
1100
FFE0
0400
4440
4440
7FC0
0840
7000
ENDCHAR
STARTCHAR uni35BF
ENCODING 13759
BBX 11 11 0 -2
BITMAP
1FE0
EAA0
AAA0
AEC0
AAC0
AEA0
AAA0
EBA0
9EC0
0280
0280
ENDCHAR
STARTCHAR uni35C0
ENCODING 13760
BBX 11 12 0 -2
BITMAP
0200
2AA0
EAA0
B760
BBA0
AAA0
AAA0
B320
FFE0
A660
2220
3FE0
ENDCHAR
STARTCHAR uni35C1
ENCODING 13761
BBX 11 12 0 -2
BITMAP
0EE0
EAA0
AEE0
A000
A7C0
A000
AFE0
A400
E7C0
A040
0040
0180
ENDCHAR
STARTCHAR uni35C2
ENCODING 13762
BBX 11 12 0 -2
BITMAP
0200
EA40
AA20
B2A0
A100
AFC0
B840
AFC0
E840
AFC0
0840
0FC0
ENDCHAR
STARTCHAR uni35C3
ENCODING 13763
BBX 11 12 0 -2
BITMAP
0FC0
E840
AFC0
A900
AFC0
A8A0
AC60
A7C0
E440
A7C0
0440
07C0
ENDCHAR
STARTCHAR uni35C4
ENCODING 13764
BBX 11 12 0 -2
BITMAP
0FE0
EAA0
AAA0
AFE0
A100
AFE0
A200
A3E0
E220
A420
0420
08C0
ENDCHAR
STARTCHAR uni35C5
ENCODING 13765
BBX 11 12 0 -2
BITMAP
0400
E4E0
AEA0
A4A0
A4E0
AEA0
AAA0
AAE0
EAA0
AEA0
08A0
0160
ENDCHAR
STARTCHAR uni35C6
ENCODING 13766
BBX 11 12 0 -2
BITMAP
0440
EFE0
A440
A7C0
A100
AFE0
A920
AFE0
E100
AFE0
0100
0100
ENDCHAR
STARTCHAR uni35C7
ENCODING 13767
BBX 11 12 0 -2
BITMAP
0EE0
EA20
AA20
AEE0
A800
A800
AEE0
A8A0
E8A0
AE40
08A0
0920
ENDCHAR
STARTCHAR uni35C8
ENCODING 13768
BBX 11 12 0 -2
BITMAP
0FC0
0280
EFE0
A920
AFE0
A920
AFE0
A920
E200
9FE0
0420
18C0
ENDCHAR
STARTCHAR uni35C9
ENCODING 13769
BBX 11 12 0 -2
BITMAP
2000
FBE0
2120
F920
2260
1F80
2080
1F00
E0E0
3F80
2080
3F80
ENDCHAR
STARTCHAR uni35CA
ENCODING 13770
BBX 11 11 0 -2
BITMAP
FBE0
8A20
8A20
FBE0
0000
FBE0
8A20
8A20
8A20
FBE0
8A20
ENDCHAR
STARTCHAR uni35CB
ENCODING 13771
BBX 11 12 0 -2
BITMAP
0200
E7C0
A840
AFE0
A900
A9C0
AA80
A880
EBE0
A880
0940
1220
ENDCHAR
STARTCHAR uni35CC
ENCODING 13772
BBX 11 12 0 -2
BITMAP
0100
EFE0
A820
A7C0
A200
A440
AFE0
A100
E7C0
A100
0100
0FE0
ENDCHAR
STARTCHAR uni35CD
ENCODING 13773
BBX 11 12 0 -2
BITMAP
0040
E780
A100
BFE0
A540
A920
B100
AFE0
E820
AFE0
0820
0FE0
ENDCHAR
STARTCHAR uni35CE
ENCODING 13774
BBX 11 12 0 -2
BITMAP
0800
1EE0
EAA0
AAA0
AAE0
B600
A100
AFE0
E380
A540
1920
0100
ENDCHAR
STARTCHAR uni35CF
ENCODING 13775
BBX 11 12 0 -2
BITMAP
0FE0
E100
A340
AD20
A100
A000
AFE0
A100
E9E0
A900
0900
1FE0
ENDCHAR
STARTCHAR uni35D0
ENCODING 13776
BBX 11 12 0 -2
BITMAP
0100
E100
AFE0
A280
A440
AA20
A100
A000
EFE0
AAA0
0AA0
1FE0
ENDCHAR
STARTCHAR uni35D1
ENCODING 13777
BBX 11 12 0 -2
BITMAP
06E0
1C40
E440
A4E0
BE40
A4E0
A440
BE40
E4E0
A440
0840
1040
ENDCHAR
STARTCHAR uni35D2
ENCODING 13778
BBX 11 12 0 -2
BITMAP
0200
EFE0
A000
AFC0
A840
A840
AFC0
A220
E540
AC80
1660
0400
ENDCHAR
STARTCHAR uni35D3
ENCODING 13779
BBX 11 12 0 -2
BITMAP
1080
0900
E3E0
A220
BBE0
AA00
ABE0
AA20
EA20
ABE0
1400
23E0
ENDCHAR
STARTCHAR uni35D4
ENCODING 13780
BBX 11 12 0 -2
BITMAP
01C0
E100
AFE0
A920
A9C0
AF20
A8E0
A900
EFE0
AA40
0980
1660
ENDCHAR
STARTCHAR uni35D5
ENCODING 13781
BBX 11 12 0 -2
BITMAP
0480
0FC0
E480
BFE0
A200
AFC0
AA40
AFC0
EA40
9FE0
0840
08C0
ENDCHAR
STARTCHAR uni35D6
ENCODING 13782
BBX 11 12 0 -2
BITMAP
00E0
EF00
A200
A920
A440
A200
ACE0
A820
EEE0
A820
0FE0
0820
ENDCHAR
STARTCHAR uni35D7
ENCODING 13783
BBX 11 12 0 -2
BITMAP
0080
7900
4BE0
4AA0
7BE0
22A0
23E0
F900
2A80
4FE0
4880
9880
ENDCHAR
STARTCHAR uni35D8
ENCODING 13784
BBX 11 12 0 -2
BITMAP
0140
EFE0
A100
AFE0
A920
AFE0
A920
A920
E040
AFE0
0440
02C0
ENDCHAR
STARTCHAR uni35D9
ENCODING 13785
BBX 11 12 0 -2
BITMAP
0400
EFE0
B220
AAA0
AFA0
A440
AFE0
B220
EAA0
AFA0
0420
08C0
ENDCHAR
STARTCHAR uni35DA
ENCODING 13786
BBX 11 12 0 -2
BITMAP
0FE0
E280
AFE0
AAA0
AAA0
AFE0
A100
AFE0
E380
A540
0920
0100
ENDCHAR
STARTCHAR uni35DB
ENCODING 13787
BBX 11 12 0 -2
BITMAP
0880
EEE0
B540
A000
A180
AE00
A200
BFE0
E200
A500
0880
3060
ENDCHAR
STARTCHAR uni35DC
ENCODING 13788
BBX 11 12 0 -2
BITMAP
0100
EFE0
A240
A780
A120
AFE0
A000
AFE0
E920
AFE0
0920
0FE0
ENDCHAR
STARTCHAR uni35DD
ENCODING 13789
BBX 11 12 0 -2
BITMAP
0440
E280
AFE0
A100
A100
A7C0
A100
A100
EFE0
A000
0AA0
0AA0
ENDCHAR
STARTCHAR uni35DE
ENCODING 13790
BBX 11 12 0 -2
BITMAP
0080
1C80
EBE0
AAA0
AE80
BBC0
AA40
AB40
EF40
A280
0540
0A20
ENDCHAR
STARTCHAR uni35DF
ENCODING 13791
BBX 11 12 0 -2
BITMAP
0200
4100
2FE0
8100
47C0
2100
4FE0
8000
7A40
4B80
4A20
79E0
ENDCHAR
STARTCHAR uni35E0
ENCODING 13792
BBX 11 12 0 -2
BITMAP
2100
2240
FFE0
4820
4BC0
3240
CBC0
0000
7A40
4B80
4A20
79E0
ENDCHAR
STARTCHAR uni35E1
ENCODING 13793
BBX 11 12 0 -2
BITMAP
1100
FFE0
1100
2F80
6480
A4E0
2820
30C0
0240
7B80
4A20
79E0
ENDCHAR
STARTCHAR uni35E2
ENCODING 13794
BBX 11 12 0 -2
BITMAP
0680
1880
E880
BFE0
AAA0
BEA0
AAA0
BEA0
E8A0
9EA0
0920
3E60
ENDCHAR
STARTCHAR uni35E3
ENCODING 13795
BBX 11 12 0 -2
BITMAP
0540
EFE0
A540
AB60
A000
AFE0
A920
A7C0
E540
A540
05C0
0100
ENDCHAR
STARTCHAR uni35E4
ENCODING 13796
BBX 11 12 0 -2
BITMAP
0140
7FE0
4900
4D00
4940
7F40
4880
AAA0
5960
7FC0
4040
7FC0
ENDCHAR
STARTCHAR uni35E5
ENCODING 13797
BBX 11 12 0 -2
BITMAP
0400
0EE0
E0A0
AEA0
AAC0
AEC0
A0A0
AEA0
E2A0
9FC0
0480
0C80
ENDCHAR
STARTCHAR uni35E6
ENCODING 13798
BBX 11 12 0 -2
BITMAP
7D00
2A60
EAA0
BAA0
AAA0
AAA0
BAA0
ABA0
EEE0
B940
6940
0A40
ENDCHAR
STARTCHAR uni35E7
ENCODING 13799
BBX 11 12 0 -2
BITMAP
0100
1FE0
F4A0
A840
AFC0
A200
A480
AFC0
E200
AFC0
0200
1FE0
ENDCHAR
STARTCHAR uni35E8
ENCODING 13800
BBX 11 12 0 -2
BITMAP
FDC0
A140
B960
D200
FDC0
9140
A880
FD60
0000
7FC0
4040
7FC0
ENDCHAR
STARTCHAR uni35E9
ENCODING 13801
BBX 11 12 0 -2
BITMAP
0EE0
E220
AAA0
A660
AAA0
A100
AFE0
A820
EFE0
A820
0FE0
0820
ENDCHAR
STARTCHAR uni35EA
ENCODING 13802
BBX 11 12 0 -2
BITMAP
02A0
EBC0
AA80
ABA0
BE60
A480
AF00
A240
EFE0
A100
0940
1320
ENDCHAR
STARTCHAR uni35EB
ENCODING 13803
BBX 11 12 0 -2
BITMAP
0880
EEE0
AAA0
B640
AC40
ABA0
B000
AFE0
E100
A540
0920
0300
ENDCHAR
STARTCHAR uni35EC
ENCODING 13804
BBX 11 12 0 -2
BITMAP
2480
FFE0
A0A0
3F80
0800
1F00
6600
1900
E7C0
1880
0700
7800
ENDCHAR
STARTCHAR uni35ED
ENCODING 13805
BBX 11 12 0 -2
BITMAP
00C0
EF00
A540
A100
AFE0
A540
A920
A200
E140
AA20
0AA0
1180
ENDCHAR
STARTCHAR uni35EE
ENCODING 13806
BBX 11 12 0 -2
BITMAP
4100
4080
77E0
9480
55E0
24A0
47E0
F4A0
55E0
5480
7540
5A20
ENDCHAR
STARTCHAR uni35EF
ENCODING 13807
BBX 11 12 0 -2
BITMAP
0840
3E80
0900
FFE0
1080
3F80
D080
1F80
0240
7B80
4A20
79E0
ENDCHAR
STARTCHAR uni35F0
ENCODING 13808
BBX 11 12 0 -2
BITMAP
0540
E940
B140
A540
AAA0
B800
A880
AA80
EAE0
AA80
0A80
0DE0
ENDCHAR
STARTCHAR uni35F1
ENCODING 13809
BBX 11 12 0 -2
BITMAP
0280
E7E0
AC80
A7E0
A480
A7E0
A480
A7E0
E100
AFE0
0540
0920
ENDCHAR
STARTCHAR uni35F2
ENCODING 13810
BBX 11 12 0 -2
BITMAP
0200
EFC0
A240
BFE0
A240
AFE0
A000
AFC0
EA40
AFC0
0A40
1FE0
ENDCHAR
STARTCHAR uni35F3
ENCODING 13811
BBX 11 12 0 -2
BITMAP
0880
EEE0
B540
A300
A480
A840
B7A0
A000
EFC0
A840
0FC0
0840
ENDCHAR
STARTCHAR uni35F4
ENCODING 13812
BBX 11 12 0 -2
BITMAP
0EE0
EAA0
AEE0
AAA0
AEE0
ABA0
AAA0
ABA0
EAA0
ABA0
0AA0
0DA0
ENDCHAR
STARTCHAR uni35F5
ENCODING 13813
BBX 11 12 0 -2
BITMAP
0480
ED80
B6E0
A4A0
AB20
B100
A440
AD40
F640
A4A0
0AA0
1120
ENDCHAR
STARTCHAR uni35F6
ENCODING 13814
BBX 11 12 0 -2
BITMAP
0EA0
E2C0
AAA0
A440
A820
BDC0
A540
AE60
E9C0
AD40
0480
0D40
ENDCHAR
STARTCHAR uni35F7
ENCODING 13815
BBX 11 12 0 -2
BITMAP
0100
EFE0
AAA0
A7C0
A280
A7C0
A280
AFE0
E440
A540
0280
0440
ENDCHAR
STARTCHAR uni35F8
ENCODING 13816
BBX 11 12 0 -2
BITMAP
0400
EC60
B700
A200
AA60
AFA0
BA20
AA20
EAA0
ABA0
0E20
0860
ENDCHAR
STARTCHAR uni35F9
ENCODING 13817
BBX 11 12 0 -2
BITMAP
0500
EFE0
B900
AFE0
A900
AFE0
A900
AFE0
E200
B540
14A0
23A0
ENDCHAR
STARTCHAR uni35FA
ENCODING 13818
BBX 11 12 0 -2
BITMAP
07C0
E100
AFE0
A280
AC60
A280
AEE0
A280
EEE0
A280
0EE0
0280
ENDCHAR
STARTCHAR uni35FB
ENCODING 13819
BBX 11 12 0 -2
BITMAP
11C0
0940
E140
A3E0
BA20
ABA0
AAA0
ABA0
EA20
AA60
0800
17E0
ENDCHAR
STARTCHAR uni35FC
ENCODING 13820
BBX 11 12 0 -2
BITMAP
0AA0
E280
AFE0
A440
A280
AFE0
A100
A7C0
E100
AFE0
0540
0920
ENDCHAR
STARTCHAR uni35FD
ENCODING 13821
BBX 11 12 0 -2
BITMAP
4400
4EE0
AAA0
EEC0
4AA0
AEA0
E8C0
4A80
8D80
7FC0
4040
7FC0
ENDCHAR
STARTCHAR uni35FE
ENCODING 13822
BBX 11 12 0 -2
BITMAP
0A80
1F80
EA80
AEA0
A4C0
BE80
B580
BE80
E480
9EA0
04A0
0460
ENDCHAR
STARTCHAR uni35FF
ENCODING 13823
BBX 11 12 0 -2
BITMAP
0EE0
0AA0
EEE0
AAA0
AEE0
A820
AFE0
A8A0
EEA0
AAA0
0EA0
09E0
ENDCHAR
STARTCHAR uni3600
ENCODING 13824
BBX 11 12 0 -2
BITMAP
06E0
E820
AEE0
A820
AFE0
A100
A540
A100
EFE0
A380
0540
0920
ENDCHAR
STARTCHAR uni3601
ENCODING 13825
BBX 11 12 0 -2
BITMAP
0FE0
EAA0
AFE0
A100
A7C0
A100
AFE0
A280
E7C0
A100
0FE0
0100
ENDCHAR
STARTCHAR uni3602
ENCODING 13826
BBX 11 12 0 -2
BITMAP
0440
0280
EFE0
A440
AAA0
AEE0
A440
AAA0
EEE0
A100
0AA0
13A0
ENDCHAR
STARTCHAR uni3603
ENCODING 13827
BBX 11 12 0 -2
BITMAP
0880
1FE0
EA80
BFE0
A400
AFC0
B440
A7C0
E200
9540
14A0
23A0
ENDCHAR
STARTCHAR uni3604
ENCODING 13828
BBX 11 12 0 -2
BITMAP
0BE0
EAA0
BEA0
ABE0
A880
BC40
BBE0
A900
E9E0
A920
0920
0A60
ENDCHAR
STARTCHAR uni3605
ENCODING 13829
BBX 11 12 0 -2
BITMAP
0500
EAE0
B000
A780
A960
BBA0
A920
ADA0
EB20
A9A0
0B20
0860
ENDCHAR
STARTCHAR uni3606
ENCODING 13830
BBX 11 12 0 -2
BITMAP
0100
EFE0
A100
AFE0
A440
AFE0
A820
A7C0
E280
A7C0
0100
0FE0
ENDCHAR
STARTCHAR uni3607
ENCODING 13831
BBX 11 12 0 -2
BITMAP
0440
0D40
F6E0
A440
AAA0
AFE0
A820
A100
EFE0
A380
0540
0920
ENDCHAR
STARTCHAR uni3608
ENCODING 13832
BBX 11 12 0 -2
BITMAP
0AE0
EC20
AAA0
A640
A9E0
AE60
B440
A560
EF40
A540
0B40
12E0
ENDCHAR
STARTCHAR uni3609
ENCODING 13833
BBX 11 12 0 -2
BITMAP
0880
EEE0
B540
A000
AEE0
AAA0
AEA0
AAA0
EEA0
AAE0
0D80
0880
ENDCHAR
STARTCHAR uni360A
ENCODING 13834
BBX 11 12 0 -2
BITMAP
0FE0
E100
AFE0
A920
A540
A000
A100
AFE0
E000
AFE0
0440
07C0
ENDCHAR
STARTCHAR uni360B
ENCODING 13835
BBX 11 12 0 -2
BITMAP
0FE0
EAA0
AFA0
A940
AF40
AAA0
AFC0
A540
E4C0
A7C0
0280
0440
ENDCHAR
STARTCHAR uni360C
ENCODING 13836
BBX 11 12 0 -2
BITMAP
0E20
E820
BEA0
AAA0
BCA0
AAA0
BEA0
A8A0
F6A0
AC20
3620
4C60
ENDCHAR
STARTCHAR uni360D
ENCODING 13837
BBX 11 12 0 -2
BITMAP
0440
EE40
B560
A640
BAE0
AF40
AA40
AF40
EA60
AF40
0A60
0FA0
ENDCHAR
STARTCHAR uni360E
ENCODING 13838
BBX 11 12 0 -2
BITMAP
09E0
E420
A120
AD20
A5E0
BEA0
AAA0
AEA0
EBA0
BF60
2220
2260
ENDCHAR
STARTCHAR uni360F
ENCODING 13839
BBX 11 12 0 -2
BITMAP
8480
5FE0
0200
CFC0
4840
4FC0
4840
BFE0
0240
7B80
4A20
79E0
ENDCHAR
STARTCHAR uni3610
ENCODING 13840
BBX 11 12 0 -2
BITMAP
1E80
1440
FEE0
B400
BEA0
B500
BEA0
A2A0
EAA0
8A40
12A0
0D20
ENDCHAR
STARTCHAR uni3611
ENCODING 13841
BBX 11 12 0 -2
BITMAP
0900
1FC0
E940
BFE0
A140
BBC0
A100
BD40
EB80
9D40
2920
1B00
ENDCHAR
STARTCHAR uni3612
ENCODING 13842
BBX 11 12 0 -2
BITMAP
17C0
E100
2FE0
F540
27C0
7540
AFE0
2100
2FE0
7A80
4B20
79E0
ENDCHAR
STARTCHAR uni3613
ENCODING 13843
BBX 11 12 0 -2
BITMAP
0EE0
EAA0
AEE0
A920
AFE0
A920
AFE0
AD60
E920
AFE0
0BA0
0D60
ENDCHAR
STARTCHAR uni3614
ENCODING 13844
BBX 11 12 0 -2
BITMAP
0100
1FE0
F4A0
AFC0
A480
BFE0
A840
BFE0
E840
AFC0
0480
0840
ENDCHAR
STARTCHAR uni3615
ENCODING 13845
BBX 11 12 0 -2
BITMAP
0440
1FE0
E440
AF40
AA60
AF40
A9A0
AF20
EA00
9FE0
14A0
3FE0
ENDCHAR
STARTCHAR uni3616
ENCODING 13846
BBX 11 12 0 -2
BITMAP
02E0
EF40
A540
A2E0
AFA0
A8E0
AAA0
ACE0
EAA0
B4E0
1240
24A0
ENDCHAR
STARTCHAR uni3617
ENCODING 13847
BBX 11 12 0 -2
BITMAP
0EE0
EAA0
AEE0
AAA0
AEE0
A280
A440
AFE0
F480
A7E0
0480
07E0
ENDCHAR
STARTCHAR uni3618
ENCODING 13848
BBX 11 12 0 -2
BITMAP
4440
8E80
E0E0
4E40
A0A0
EEE0
0000
AEA0
AAA0
7FC0
4040
7FC0
ENDCHAR
STARTCHAR uni3619
ENCODING 13849
BBX 11 12 0 -2
BITMAP
0EE0
EAA0
AFE0
A840
AB40
A960
AFA0
AAA0
EBA0
AAC0
0FA0
1080
ENDCHAR
STARTCHAR uni361A
ENCODING 13850
BBX 11 12 0 -2
BITMAP
38E0
28A0
F8E0
A020
AEA0
A2A0
BFE0
AA60
EF60
AAA0
3F60
2220
ENDCHAR
STARTCHAR uni361B
ENCODING 13851
BBX 11 12 0 -2
BITMAP
0300
ECC0
B7A0
A480
A780
A8E0
BF80
AAE0
FF20
B2E0
1E80
1260
ENDCHAR
STARTCHAR uni361C
ENCODING 13852
BBX 11 12 0 -2
BITMAP
4480
AF40
F1E0
AF40
F1E0
AF40
FBE0
8E00
7FC0
4040
4040
7FC0
ENDCHAR
STARTCHAR uni361D
ENCODING 13853
BBX 11 12 0 -2
BITMAP
FFE0
8020
BFA0
80A0
9120
8A20
8420
8A20
B120
8020
FFE0
8020
ENDCHAR
STARTCHAR uni361E
ENCODING 13854
BBX 11 12 0 -2
BITMAP
FFE0
8820
8820
BFA0
88A0
88A0
90A0
90A0
A0A0
C720
8020
FFE0
ENDCHAR
STARTCHAR uni361F
ENCODING 13855
BBX 11 12 0 -2
BITMAP
FFE0
8020
8920
8920
8920
BFE0
8920
9120
9120
A120
8020
FFE0
ENDCHAR
STARTCHAR uni3620
ENCODING 13856
BBX 11 12 0 -2
BITMAP
FFE0
8820
84A0
80A0
A920
AA20
ACA0
C860
9920
A720
8020
FFE0
ENDCHAR
STARTCHAR uni3621
ENCODING 13857
BBX 11 12 0 -2
BITMAP
FFE0
8020
BFA0
A4A0
A4A0
BFA0
A4A0
A4A0
BFA0
8420
8420
FFE0
ENDCHAR
STARTCHAR uni3622
ENCODING 13858
BBX 11 12 0 -2
BITMAP
FFE0
8020
8420
A4A0
9520
BFA0
8A20
8A20
92A0
A1A0
8020
FFE0
ENDCHAR
STARTCHAR uni3623
ENCODING 13859
BBX 10 12 1 -2
BITMAP
FFC0
8040
9E40
9240
BF40
A140
BF40
A140
BF40
A140
A340
FFC0
ENDCHAR
STARTCHAR uni3624
ENCODING 13860
BBX 11 12 0 -2
BITMAP
FFE0
8AA0
CAA0
ADA0
88A0
CFA0
A8A0
8DA0
AAA0
CAA0
90A0
FFE0
ENDCHAR
STARTCHAR uni3625
ENCODING 13861
BBX 11 12 0 -2
BITMAP
FFE0
8C60
F3A0
D520
AA60
BBA0
D160
BBE0
D520
FD60
8320
FFE0
ENDCHAR
STARTCHAR uni3626
ENCODING 13862
BBX 11 12 0 -2
BITMAP
2100
2100
2100
F7E0
2120
2120
2120
2120
3220
C220
0420
08C0
ENDCHAR
STARTCHAR uni3627
ENCODING 13863
BBX 11 12 0 -2
BITMAP
2000
27C0
2040
2280
F100
2FE0
2120
2100
2100
3100
C100
0700
ENDCHAR
STARTCHAR uni3628
ENCODING 13864
BBX 11 12 0 -2
BITMAP
4100
4100
4FE0
4920
E920
4920
4AA0
4C60
4820
6820
C820
0860
ENDCHAR
STARTCHAR uni3629
ENCODING 13865
BBX 11 12 0 -2
BITMAP
4900
4900
4920
4920
EF40
4980
4900
4900
4900
6B20
CD20
08E0
ENDCHAR
STARTCHAR uni362A
ENCODING 13866
BBX 11 12 0 -2
BITMAP
20C0
2700
2100
21C0
F700
2100
21E0
2700
2100
3120
C120
00E0
ENDCHAR
STARTCHAR uni362B
ENCODING 13867
BBX 11 12 0 -2
BITMAP
4480
4480
4480
5FE0
E480
4480
4480
5FE0
4480
6480
C880
1080
ENDCHAR
STARTCHAR uni362C
ENCODING 13868
BBX 11 12 0 -2
BITMAP
2200
2200
27E0
F420
2920
2120
2220
24A0
37A0
C0A0
0020
00C0
ENDCHAR
STARTCHAR uni362D
ENCODING 13869
BBX 11 12 0 -2
BITMAP
2200
22E0
2420
F520
2920
2F20
2220
2220
3520
CFA0
00A0
0060
ENDCHAR
STARTCHAR uni362E
ENCODING 13870
BBX 11 12 0 -2
BITMAP
2000
27C0
2440
F440
2440
27C0
2500
2500
3480
C480
0840
1020
ENDCHAR
STARTCHAR uni362F
ENCODING 13871
BBX 11 12 0 -2
BITMAP
2200
2200
23E0
F400
2900
2100
27E0
2120
2220
3220
C420
08C0
ENDCHAR
STARTCHAR uni3630
ENCODING 13872
BBX 11 12 0 -2
BITMAP
2080
2480
2280
2080
F480
2280
2080
20E0
2780
3080
C080
0080
ENDCHAR
STARTCHAR uni3631
ENCODING 13873
BBX 11 12 0 -2
BITMAP
2100
2100
27C0
2540
F540
27C0
2540
2540
2FE0
3440
C440
04C0
ENDCHAR
STARTCHAR uni3632
ENCODING 13874
BBX 11 12 0 -2
BITMAP
5FC0
5040
5040
5FC0
F200
5200
5780
5280
7280
D280
14A0
2860
ENDCHAR
STARTCHAR uni3633
ENCODING 13875
BBX 11 12 0 -2
BITMAP
1220
F2C0
1300
1200
3220
D220
11E0
0400
7FC0
0400
0400
FFE0
ENDCHAR
STARTCHAR uni3634
ENCODING 13876
BBX 11 12 0 -2
BITMAP
0400
0480
7480
5480
5480
5540
7620
0400
7FC0
0400
0400
FFE0
ENDCHAR
STARTCHAR uni3635
ENCODING 13877
BBX 11 12 0 -2
BITMAP
4200
4200
5FE0
4400
E900
5FE0
6920
4920
4920
6920
C960
0100
ENDCHAR
STARTCHAR uni3636
ENCODING 13878
BBX 11 12 0 -2
BITMAP
2080
3BE0
4880
AA80
13E0
2080
C080
0400
7FC0
0400
0400
FFE0
ENDCHAR
STARTCHAR uni3637
ENCODING 13879
BBX 11 12 0 -2
BITMAP
2440
2440
2FE0
2440
F000
2440
2440
2280
2280
3100
C280
0C60
ENDCHAR
STARTCHAR uni3638
ENCODING 13880
BBX 11 12 0 -2
BITMAP
FFE0
2200
7A40
8B80
5220
2220
C1E0
0400
7FC0
0400
0400
FFE0
ENDCHAR
STARTCHAR uni3639
ENCODING 13881
BBX 11 12 0 -2
BITMAP
1100
5120
5D40
5180
5120
5D20
E0E0
0400
7FC0
0400
0400
FFE0
ENDCHAR
STARTCHAR uni363A
ENCODING 13882
BBX 11 12 0 -2
BITMAP
4280
42A0
4480
44E0
ED80
54A0
44A0
44C0
44C0
64A0
C560
0620
ENDCHAR
STARTCHAR uni363B
ENCODING 13883
BBX 11 12 0 -2
BITMAP
4000
4FE0
4820
4920
E920
4FE0
4920
4AA0
4C60
6820
CFE0
0820
ENDCHAR
STARTCHAR uni363C
ENCODING 13884
BBX 11 12 0 -2
BITMAP
2100
2100
27A0
F140
2FE0
2100
23E0
2600
3BE0
C020
0020
00C0
ENDCHAR
STARTCHAR uni363D
ENCODING 13885
BBX 11 12 0 -2
BITMAP
1100
7D40
1120
1100
FFE0
0100
1120
7D40
1180
1D20
E2A0
0460
ENDCHAR
STARTCHAR uni363E
ENCODING 13886
BBX 11 12 0 -2
BITMAP
2100
2FE0
2820
2000
F7C0
2100
2100
2FE0
2100
3100
C100
0700
ENDCHAR
STARTCHAR uni363F
ENCODING 13887
BBX 11 12 0 -2
BITMAP
27C0
2440
2440
27C0
F440
2440
27C0
2100
27C0
3100
C100
0FE0
ENDCHAR
STARTCHAR uni3640
ENCODING 13888
BBX 11 12 0 -2
BITMAP
4200
5FE0
5020
4480
E840
5420
4F80
4480
4480
6880
C8A0
1060
ENDCHAR
STARTCHAR uni3641
ENCODING 13889
BBX 11 12 0 -2
BITMAP
4400
47E0
4800
57C0
E440
4540
5FE0
4840
4940
6FE0
C040
0180
ENDCHAR
STARTCHAR uni3642
ENCODING 13890
BBX 11 12 0 -2
BITMAP
4840
4480
4000
4FC0
E840
4840
4840
4FC0
4480
6480
C8A0
1060
ENDCHAR
STARTCHAR uni3643
ENCODING 13891
BBX 11 12 0 -2
BITMAP
20C0
2700
2400
F400
27E0
2480
2480
2480
3FE0
C000
0440
0820
ENDCHAR
STARTCHAR uni3644
ENCODING 13892
BBX 11 12 0 -2
BITMAP
4880
48A0
4EC0
4880
EAA0
4C60
4100
4100
47C0
6100
C100
0FE0
ENDCHAR
STARTCHAR uni3645
ENCODING 13893
BBX 11 12 0 -2
BITMAP
2000
27C0
2440
2440
F7C0
2100
2FE0
2100
2380
3540
C920
0100
ENDCHAR
STARTCHAR uni3646
ENCODING 13894
BBX 11 12 0 -2
BITMAP
2100
2080
27E0
F420
2100
27E0
2100
2240
3280
C520
05E0
0820
ENDCHAR
STARTCHAR uni3647
ENCODING 13895
BBX 11 12 0 -2
BITMAP
4000
4FE0
4200
E500
49A0
46C0
4480
4BC0
62A0
C480
0880
0300
ENDCHAR
STARTCHAR uni3648
ENCODING 13896
BBX 11 12 0 -2
BITMAP
4100
41C0
4100
4FE0
E920
49C0
4F20
48E0
4B80
6A80
CAA0
1460
ENDCHAR
STARTCHAR uni3649
ENCODING 13897
BBX 11 12 0 -2
BITMAP
4500
4500
5FC0
F540
5540
5FC0
5540
5540
7FE0
C000
0880
1040
ENDCHAR
STARTCHAR uni364A
ENCODING 13898
BBX 11 12 0 -2
BITMAP
47C0
4400
4780
4400
E780
4400
5FE0
4900
4940
6880
CA40
0C20
ENDCHAR
STARTCHAR uni364B
ENCODING 13899
BBX 11 12 0 -2
BITMAP
2440
2440
2FE0
2440
F7C0
2440
27C0
2440
2FE0
3000
C440
0820
ENDCHAR
STARTCHAR uni364C
ENCODING 13900
BBX 11 12 0 -2
BITMAP
4200
4FC0
4240
5FE0
E240
4FC0
4200
4A40
4F40
6AC0
CA40
1240
ENDCHAR
STARTCHAR uni364D
ENCODING 13901
BBX 11 12 0 -2
BITMAP
4000
4EE0
4220
4AA0
E440
4AA0
4000
4EE0
42A0
6AA0
C440
1AA0
ENDCHAR
STARTCHAR uni364E
ENCODING 13902
BBX 11 12 0 -2
BITMAP
40A0
4080
4FE0
4880
EF80
48A0
4AA0
4FA0
4D40
6D40
CAA0
1520
ENDCHAR
STARTCHAR uni364F
ENCODING 13903
BBX 11 12 0 -2
BITMAP
4FE0
5000
4FC0
E840
4FC0
4840
4FC0
4400
6FC0
D440
0380
1C60
ENDCHAR
STARTCHAR uni3650
ENCODING 13904
BBX 11 12 0 -2
BITMAP
4100
4920
4920
4FE0
E000
4FE0
4100
4FE0
4AA0
6AA0
CAA0
0860
ENDCHAR
STARTCHAR uni3651
ENCODING 13905
BBX 11 12 0 -2
BITMAP
01C0
7E00
0400
7FC0
4440
FFE0
8520
BF60
0400
7FC0
0400
FFE0
ENDCHAR
STARTCHAR uni3652
ENCODING 13906
BBX 11 12 0 -2
BITMAP
FBE0
A920
A8C0
FBE0
A8A0
A880
F980
0400
7FC0
0400
0400
FFE0
ENDCHAR
STARTCHAR uni3653
ENCODING 13907
BBX 11 12 0 -2
BITMAP
0400
7FC0
0400
FFE0
2080
7BC0
2080
FBE0
0400
7FC0
0400
FFE0
ENDCHAR
STARTCHAR uni3654
ENCODING 13908
BBX 11 12 0 -2
BITMAP
4100
47C0
4240
EFE0
4440
47C0
4100
4FC0
6100
C900
0FE0
0100
ENDCHAR
STARTCHAR uni3655
ENCODING 13909
BBX 11 12 0 -2
BITMAP
4FE0
4920
4FE0
4920
EFE0
4440
47C0
4440
47C0
6440
C440
04C0
ENDCHAR
STARTCHAR uni3656
ENCODING 13910
BBX 11 12 0 -2
BITMAP
41C0
5E00
4200
5FC0
F240
5FC0
4200
5FE0
5220
77A0
D0A0
1060
ENDCHAR
STARTCHAR uni3657
ENCODING 13911
BBX 11 12 0 -2
BITMAP
4FE0
4920
4FE0
4920
EFE0
4000
5FE0
4900
4920
68C0
CA40
0C20
ENDCHAR
STARTCHAR uni3658
ENCODING 13912
BBX 11 12 0 -2
BITMAP
4000
5FE0
4500
5FC0
F540
5FC0
4200
5FE0
4480
6C80
C300
1CC0
ENDCHAR
STARTCHAR uni3659
ENCODING 13913
BBX 11 12 0 -2
BITMAP
4480
2FE0
0540
8580
4540
05A0
2940
49A0
96E0
7FC0
0400
FFE0
ENDCHAR
STARTCHAR uni365A
ENCODING 13914
BBX 11 12 0 -2
BITMAP
2280
2FE0
2100
F7C0
2100
2FE0
2000
2500
37C0
C900
0FE0
0100
ENDCHAR
STARTCHAR uni365B
ENCODING 13915
BBX 11 12 0 -2
BITMAP
4140
4FE0
4100
4FE0
E920
4FE0
4920
4920
4040
6FE0
C440
02C0
ENDCHAR
STARTCHAR uni365C
ENCODING 13916
BBX 11 12 0 -2
BITMAP
0400
FFE0
2080
3F80
0000
FFE0
9120
9F60
0400
7FC0
0400
FFE0
ENDCHAR
STARTCHAR uni365D
ENCODING 13917
BBX 11 12 0 -2
BITMAP
4400
4FC0
4440
E880
5FE0
4AA0
5760
4FC0
6840
CFC0
0840
08C0
ENDCHAR
STARTCHAR uni365E
ENCODING 13918
BBX 11 12 0 -2
BITMAP
2100
27C0
2440
F7C0
2440
27C0
2440
27C0
3100
CFE0
0540
0920
ENDCHAR
STARTCHAR uni365F
ENCODING 13919
BBX 11 12 0 -2
BITMAP
4400
4EE0
4AA0
4AA0
EEE0
4AA0
4AA0
4EE0
48A0
6CA0
CAA0
0D60
ENDCHAR
STARTCHAR uni3660
ENCODING 13920
BBX 11 12 0 -2
BITMAP
FDC0
A140
B960
D200
FDC0
9140
A880
FD60
0400
7FC0
0400
FFE0
ENDCHAR
STARTCHAR uni3661
ENCODING 13921
BBX 11 12 0 -2
BITMAP
4540
4940
5140
4540
EAA0
5800
4880
4A80
4AE0
6A80
CA80
0DE0
ENDCHAR
STARTCHAR uni3662
ENCODING 13922
BBX 11 12 0 -2
BITMAP
4440
4FE0
4440
47C0
E100
4FE0
4920
4DA0
4B60
6DA0
C920
0960
ENDCHAR
STARTCHAR uni3663
ENCODING 13923
BBX 11 12 0 -2
BITMAP
5DE0
4500
45C0
E500
5DC0
5100
53E0
5D80
65A0
C540
0540
19A0
ENDCHAR
STARTCHAR uni3664
ENCODING 13924
BBX 11 12 0 -2
BITMAP
41C0
4100
4FE0
E920
49C0
4F20
48E0
4F80
6AA0
CFE0
0880
1180
ENDCHAR
STARTCHAR uni3665
ENCODING 13925
BBX 11 12 0 -2
BITMAP
2100
27E0
2240
2420
F100
2240
27E0
2100
22A0
3640
CB40
0220
ENDCHAR
STARTCHAR uni3666
ENCODING 13926
BBX 11 12 0 -2
BITMAP
1140
28C0
4540
B8C0
1060
FDC0
5440
B240
0400
7FC0
0400
FFE0
ENDCHAR
STARTCHAR uni3667
ENCODING 13927
BBX 11 12 0 -2
BITMAP
4FE0
4280
4EE0
4AA0
EEE0
4280
4FE0
4920
4FE0
6920
CFE0
0820
ENDCHAR
STARTCHAR uni3668
ENCODING 13928
BBX 11 12 0 -2
BITMAP
4940
4940
55A0
E940
55A0
5DE0
4940
5FE0
6940
CCA0
0960
1220
ENDCHAR
STARTCHAR uni3669
ENCODING 13929
BBX 11 12 0 -2
BITMAP
4100
4FE0
4100
4AA0
E440
4FE0
4440
47C0
4440
67C0
C540
0B20
ENDCHAR
STARTCHAR uni366A
ENCODING 13930
BBX 11 12 0 -2
BITMAP
2100
2FE0
2100
F7C0
2000
2FE0
2820
27C0
3440
C7C0
0280
0FE0
ENDCHAR
STARTCHAR uni366B
ENCODING 13931
BBX 11 12 0 -2
BITMAP
4500
4FE0
5900
EFE0
4900
4FE0
4900
4FE0
6200
DFE0
0A80
1260
ENDCHAR
STARTCHAR uni366C
ENCODING 13932
BBX 11 12 0 -2
BITMAP
1080
FEA0
5480
BBE0
1080
3880
5540
9220
0400
7FC0
0400
FFE0
ENDCHAR
STARTCHAR uni366D
ENCODING 13933
BBX 11 12 0 -2
BITMAP
4000
5FE0
5040
F540
5260
5FA0
5240
5AC0
7FC0
D240
12A0
2520
ENDCHAR
STARTCHAR uni366E
ENCODING 13934
BBX 11 12 0 -2
BITMAP
4880
4EE0
5540
4300
E480
4840
57A0
4000
4FC0
6840
CFC0
0840
ENDCHAR
STARTCHAR uni366F
ENCODING 13935
BBX 11 12 0 -2
BITMAP
2100
73C0
2140
FB40
51C0
A960
2220
7FC0
0000
FFE0
2080
7FC0
ENDCHAR
STARTCHAR uni3670
ENCODING 13936
BBX 11 12 0 -2
BITMAP
3BE0
4920
FD60
5600
7D40
55E0
7E40
55E0
8C40
7FC0
0400
FFE0
ENDCHAR
STARTCHAR uni3671
ENCODING 13937
BBX 11 12 0 -2
BITMAP
0100
71C0
5100
FFE0
2520
75C0
1940
3260
0400
7FC0
0400
FFE0
ENDCHAR
STARTCHAR uni3672
ENCODING 13938
BBX 11 12 0 -2
BITMAP
4100
5FE0
4880
5140
F5E0
5B40
49E0
5540
5DE0
6540
C9E0
1100
ENDCHAR
STARTCHAR uni3673
ENCODING 13939
BBX 11 12 0 -2
BITMAP
40A0
4FE0
4880
EEA0
48A0
4EC0
4AA0
4F60
6A20
D100
0440
0BA0
ENDCHAR
STARTCHAR uni3674
ENCODING 13940
BBX 11 12 0 -2
BITMAP
4780
4880
4FE0
EA40
4D20
4BC0
4800
4BC0
6800
CBC0
0A40
13C0
ENDCHAR
STARTCHAR uni3675
ENCODING 13941
BBX 11 12 0 -2
BITMAP
4100
4FE0
4440
47C0
E000
4FE0
4AA0
4BA0
4960
67C0
C100
0FE0
ENDCHAR
STARTCHAR uni3676
ENCODING 13942
BBX 11 12 0 -2
BITMAP
0400
FFE0
2080
3F80
1500
FFE0
A0A0
3F80
0400
7FC0
0400
FFE0
ENDCHAR
STARTCHAR uni3677
ENCODING 13943
BBX 11 12 0 -2
BITMAP
4FE0
4820
4FE0
E820
4FE0
4440
4AA0
4440
6AA0
CEE0
0000
0AA0
ENDCHAR
STARTCHAR uni3678
ENCODING 13944
BBX 11 12 0 -2
BITMAP
4540
4760
4940
EBE0
5940
4BE0
4880
4BE0
6880
CFE0
0940
0A20
ENDCHAR
STARTCHAR uni3679
ENCODING 13945
BBX 11 12 0 -2
BITMAP
4440
4FE0
4440
4FE0
EAA0
4FE0
4000
4FE0
4920
67C0
C280
0F00
ENDCHAR
STARTCHAR uni367A
ENCODING 13946
BBX 11 12 0 -2
BITMAP
5FE0
5100
57C0
F540
5FE0
5440
57C0
5440
77C0
D280
1440
1FE0
ENDCHAR
STARTCHAR uni367B
ENCODING 13947
BBX 11 12 0 -2
BITMAP
4200
5FE0
5540
F7C0
5540
57C0
5100
5FE0
7540
DBA0
1100
27C0
ENDCHAR
STARTCHAR uni367C
ENCODING 13948
BBX 11 12 0 -2
BITMAP
47C0
4540
47C0
4540
E7C0
4000
4FE0
4AA0
4FE0
6AA0
CFE0
0820
ENDCHAR
STARTCHAR uni367D
ENCODING 13949
BBX 11 12 0 -2
BITMAP
4200
5FE0
4200
5EE0
EA40
5EE0
52A0
5EE0
52A0
7EE0
C500
18E0
ENDCHAR
STARTCHAR uni367E
ENCODING 13950
BBX 11 12 0 -2
BITMAP
4DC0
5240
5540
FAC0
5540
7FE0
6020
4F80
6100
DFC0
0200
0600
ENDCHAR
STARTCHAR uni367F
ENCODING 13951
BBX 11 12 0 -2
BITMAP
4280
4FE0
4100
4FE0
E4A0
5FE0
4E80
55A0
4EC0
6AA0
C960
1220
ENDCHAR
STARTCHAR uni3680
ENCODING 13952
BBX 11 12 0 -2
BITMAP
4340
4260
4F40
EAE0
4F40
4A40
4F60
4DC0
6F40
D540
1260
2FA0
ENDCHAR
STARTCHAR uni3681
ENCODING 13953
BBX 11 12 0 -2
BITMAP
2080
71C0
2080
FBE0
5140
FBE0
5140
FBE0
0000
FBE0
5140
9A60
ENDCHAR
STARTCHAR uni3682
ENCODING 13954
BBX 11 12 0 -2
BITMAP
2100
2FE0
2540
F7C0
2100
2FE0
2AA0
27C0
3280
CFE0
0640
0B20
ENDCHAR
STARTCHAR uni3683
ENCODING 13955
BBX 11 12 0 -2
BITMAP
0400
FFE0
0400
7FC0
0000
FFE0
9120
4E40
5140
7FC0
2080
FFE0
ENDCHAR
STARTCHAR uni3684
ENCODING 13956
BBX 11 12 0 -2
BITMAP
0400
FFE0
0400
FFE0
A4A0
3F80
2480
7FE0
0420
2780
5400
8FE0
ENDCHAR
STARTCHAR uni3685
ENCODING 13957
BBX 11 12 0 -2
BITMAP
1000
3F80
5100
0E00
3180
DF60
4400
7FC0
8400
3F80
0400
FFE0
ENDCHAR
STARTCHAR uni3686
ENCODING 13958
BBX 11 12 0 -2
BITMAP
0400
FFE0
2080
3F80
2080
3F80
1000
3F80
5100
0E00
3180
C060
ENDCHAR
STARTCHAR uni3687
ENCODING 13959
BBX 11 12 0 -2
BITMAP
0A00
4440
4A40
7FC0
2080
4840
9FA0
2080
5100
0E00
3180
C060
ENDCHAR
STARTCHAR uni3688
ENCODING 13960
BBX 11 12 0 -2
BITMAP
2080
2080
3C80
4480
4480
ABE0
2880
1080
1080
2080
4080
8080
ENDCHAR
STARTCHAR uni3689
ENCODING 13961
BBX 11 12 0 -2
BITMAP
FF80
2080
28E0
2E20
5220
ACC0
0A00
3780
C880
1500
0600
3800
ENDCHAR
STARTCHAR uni368A
ENCODING 13962
BBX 11 12 0 -2
BITMAP
4100
7080
97E0
5100
2220
57C0
B880
4920
AE40
1080
2140
C620
ENDCHAR
STARTCHAR uni368B
ENCODING 13963
BBX 11 12 0 -2
BITMAP
47E0
7420
94A0
55E0
24A0
57E0
BC20
4DE0
AD60
15E0
2420
C8E0
ENDCHAR
STARTCHAR uni368C
ENCODING 13964
BBX 11 12 0 -2
BITMAP
47C0
7540
97C0
5540
27C0
5100
BFE0
4900
AB80
1540
2920
C100
ENDCHAR
STARTCHAR uni368D
ENCODING 13965
BBX 11 12 0 -2
BITMAP
4080
73E0
92A0
53E0
2080
57E0
BA20
4BE0
AA20
13E0
2140
C220
ENDCHAR
STARTCHAR uni368E
ENCODING 13966
BBX 11 12 0 -2
BITMAP
0400
0400
FFE0
0A00
3180
C060
0000
4040
4040
4040
7FC0
0040
ENDCHAR
STARTCHAR uni368F
ENCODING 13967
BBX 11 12 0 -2
BITMAP
0400
FFE0
0A00
3180
C060
1100
1100
FFE0
1100
1100
2100
4100
ENDCHAR
STARTCHAR uni3690
ENCODING 13968
BBX 11 12 0 -2
BITMAP
0400
FFE0
0400
0B00
3080
C040
0400
FFE0
0A00
1100
2080
C060
ENDCHAR
STARTCHAR uni3691
ENCODING 13969
BBX 11 12 0 -2
BITMAP
7FC0
0040
3FC0
0040
7FC0
0000
0400
FFE0
0A00
1100
2080
C060
ENDCHAR
STARTCHAR uni3692
ENCODING 13970
BBX 11 12 0 -2
BITMAP
0400
0400
FFE0
0400
4480
2440
54A0
9520
0A00
1100
2080
C060
ENDCHAR
STARTCHAR uni3693
ENCODING 13971
BBX 11 12 0 -2
BITMAP
0400
FFE0
0400
0B00
3080
C040
0400
FFE0
1500
2480
C460
0400
ENDCHAR
STARTCHAR uni3694
ENCODING 13972
BBX 11 12 0 -2
BITMAP
0400
FFE0
0A00
3180
D160
0A00
7FC0
0400
0400
FFE0
0400
0400
ENDCHAR
STARTCHAR uni3695
ENCODING 13973
BBX 11 12 0 -2
BITMAP
0400
FFE0
0A00
3180
CA60
7FC0
0A40
7FC0
4A00
7FE0
1220
62C0
ENDCHAR
STARTCHAR uni3696
ENCODING 13974
BBX 11 12 0 -2
BITMAP
0400
0800
7FC0
4040
7FC0
4040
7FC0
0400
FFE0
0A00
3180
C060
ENDCHAR
STARTCHAR uni3697
ENCODING 13975
BBX 11 12 0 -2
BITMAP
0400
FFE0
0A00
3180
C060
3F80
2080
3F80
2080
3F80
2080
FFE0
ENDCHAR
STARTCHAR uni3698
ENCODING 13976
BBX 11 12 0 -2
BITMAP
2100
2100
2100
77C0
2100
2100
F7E0
2100
2280
5280
5440
8820
ENDCHAR
STARTCHAR uni3699
ENCODING 13977
BBX 11 12 0 -2
BITMAP
2000
FDE0
2520
2520
4520
99E0
0400
FFE0
0A00
1100
2080
C060
ENDCHAR
STARTCHAR uni369A
ENCODING 13978
BBX 11 12 0 -2
BITMAP
0400
FFE0
0A00
3180
C860
1F80
6100
1600
3FC0
E040
2040
3FC0
ENDCHAR
STARTCHAR uni369B
ENCODING 13979
BBX 11 12 0 -2
BITMAP
0800
FFE0
2080
7E40
A0A0
1F80
0000
7FC0
4040
7FC0
4040
7FC0
ENDCHAR
STARTCHAR uni369C
ENCODING 13980
BBX 11 12 0 -2
BITMAP
0800
FFE0
2080
C060
0240
FFE0
0200
7A40
4940
78A0
0160
FA20
ENDCHAR
STARTCHAR uni369D
ENCODING 13981
BBX 11 12 0 -2
BITMAP
0800
FFE0
2080
D260
3FC0
6200
BFE0
2200
3FC0
2200
3FE0
2000
ENDCHAR
STARTCHAR uni369E
ENCODING 13982
BBX 11 12 0 -2
BITMAP
0400
FFE0
0A00
3180
C060
2080
FBE0
2080
71C0
AAA0
2080
2080
ENDCHAR
STARTCHAR uni369F
ENCODING 13983
BBX 11 12 0 -2
BITMAP
2000
3F00
4100
FFC0
4040
7FC0
4220
79E0
0400
FFE0
1100
E0E0
ENDCHAR
STARTCHAR uni36A0
ENCODING 13984
BBX 11 12 0 -2
BITMAP
0800
FFE0
2080
C060
2080
7FC0
0400
7FC0
0400
FFE0
5240
8920
ENDCHAR
STARTCHAR uni36A1
ENCODING 13985
BBX 11 12 0 -2
BITMAP
2080
FBE0
5140
8A20
FFE0
0820
EBA0
AAA0
AAA0
EBA0
8A20
1860
ENDCHAR
STARTCHAR uni36A2
ENCODING 13986
BBX 11 12 0 -2
BITMAP
1100
1100
2100
2FE0
6240
A240
2440
2280
2100
2280
2440
2820
ENDCHAR
STARTCHAR uni36A3
ENCODING 13987
BBX 11 12 0 -2
BITMAP
0800
FFE0
1080
3100
0E00
F1C0
0800
FFE0
1080
3100
0E00
F1C0
ENDCHAR
STARTCHAR uni36A4
ENCODING 13988
BBX 11 12 0 -2
BITMAP
2280
2240
2200
F2E0
5F00
5200
5200
9200
5120
20A0
5060
8820
ENDCHAR
STARTCHAR uni36A5
ENCODING 13989
BBX 11 12 0 -2
BITMAP
2000
27C0
2100
F100
5100
5FE0
5100
9100
5100
2100
5100
9700
ENDCHAR
STARTCHAR uni36A6
ENCODING 13990
BBX 11 12 0 -2
BITMAP
2000
27E0
2240
F240
5240
5240
5240
9240
5240
2240
5240
9440
ENDCHAR
STARTCHAR uni36A7
ENCODING 13991
BBX 11 12 0 -2
BITMAP
2100
2080
27E0
F400
5400
5400
5400
9400
5400
2400
5400
8800
ENDCHAR
STARTCHAR uni36A8
ENCODING 13992
BBX 11 12 0 -2
BITMAP
2000
2F80
2480
F480
5480
5F80
5480
9480
5480
24A0
5460
9420
ENDCHAR
STARTCHAR uni36A9
ENCODING 13993
BBX 11 12 0 -2
BITMAP
2000
27C0
2440
F440
5FE0
5440
5440
9FE0
5440
2440
5440
94C0
ENDCHAR
STARTCHAR uni36AA
ENCODING 13994
BBX 11 12 0 -2
BITMAP
20C0
2700
2100
F1C0
5700
5100
51E0
9700
5100
2120
5120
88E0
ENDCHAR
STARTCHAR uni36AB
ENCODING 13995
BBX 11 12 0 -2
BITMAP
2000
27C0
2240
F240
5280
52E0
5220
9220
5540
2480
5940
9220
ENDCHAR
STARTCHAR uni36AC
ENCODING 13996
BBX 11 12 0 -2
BITMAP
2200
2200
23E0
F420
5A20
5120
5060
90A0
5120
2620
5020
88C0
ENDCHAR
STARTCHAR uni36AD
ENCODING 13997
BBX 11 12 0 -2
BITMAP
2280
2240
2200
F7E0
5280
5280
5280
9280
5280
24A0
54A0
8860
ENDCHAR
STARTCHAR uni36AE
ENCODING 13998
BBX 11 12 0 -2
BITMAP
2000
27E0
2420
F000
5380
5280
5280
9280
5280
22A0
54A0
8860
ENDCHAR
STARTCHAR uni36AF
ENCODING 13999
BBX 11 12 0 -2
BITMAP
2000
27C0
2440
F440
56C0
5540
5540
96C0
5440
2440
5460
8820
ENDCHAR
STARTCHAR uni36B0
ENCODING 14000
BBX 11 12 0 -2
BITMAP
2000
27E0
2080
F100
5100
5340
5520
9920
5100
2100
5000
97E0
ENDCHAR
STARTCHAR uni36B1
ENCODING 14001
BBX 11 12 0 -2
BITMAP
20C0
2700
2400
F400
5400
57E0
5480
9480
5480
2480
5480
9FE0
ENDCHAR
STARTCHAR uni36B2
ENCODING 14002
BBX 11 12 0 -2
BITMAP
2100
2100
2100
F1E0
5100
5100
57E0
9420
5420
2420
57E0
9420
ENDCHAR
STARTCHAR uni36B3
ENCODING 14003
BBX 11 12 0 -2
BITMAP
4800
4800
48E0
FEA0
AAA0
AAA0
AAA0
AAA0
AAA0
4AA0
B2E0
A6A0
ENDCHAR
STARTCHAR uni36B4
ENCODING 14004
BBX 11 12 0 -2
BITMAP
2100
2100
2FE0
F200
5500
5FE0
5520
9520
5520
2520
5560
8900
ENDCHAR
STARTCHAR uni36B5
ENCODING 14005
BBX 11 12 0 -2
BITMAP
2200
23C0
2440
FA80
5100
5280
5C60
9300
5080
2600
5180
8840
ENDCHAR
STARTCHAR uni36B6
ENCODING 14006
BBX 11 12 0 -2
BITMAP
2000
27C0
2440
F440
57C0
5400
5400
97E0
5420
2420
57E0
9420
ENDCHAR
STARTCHAR uni36B7
ENCODING 14007
BBX 11 12 0 -2
BITMAP
2100
2100
2280
F440
5920
5100
5540
9520
5520
2920
5100
9300
ENDCHAR
STARTCHAR uni36B8
ENCODING 14008
BBX 11 12 0 -2
BITMAP
2000
27E0
2020
F7A0
5020
57A0
54A0
94A0
57A0
2420
5020
88C0
ENDCHAR
STARTCHAR uni36B9
ENCODING 14009
BBX 11 12 0 -2
BITMAP
4200
4CE0
4AA0
EAA0
AAA0
AAA0
AAA0
AEA0
AAE0
4280
A480
8880
ENDCHAR
STARTCHAR uni36BA
ENCODING 14010
BBX 11 12 0 -2
BITMAP
2F80
2480
24E0
F420
57A0
54A0
5960
9100
5FE0
2100
5100
8B00
ENDCHAR
STARTCHAR uni36BB
ENCODING 14011
BBX 11 12 0 -2
BITMAP
7FC0
4440
7FC0
4440
7FC0
0000
0800
FFE0
1080
3100
0E00
F1C0
ENDCHAR
STARTCHAR uni36BC
ENCODING 14012
BBX 11 12 0 -2
BITMAP
2000
27E0
2520
F520
5520
57E0
5520
9520
5520
2520
57E0
9420
ENDCHAR
STARTCHAR uni36BD
ENCODING 14013
BBX 11 12 0 -2
BITMAP
F7E0
2100
23E0
2020
3820
C0C0
0800
FFE0
1080
3100
0E00
F1C0
ENDCHAR
STARTCHAR uni36BE
ENCODING 14014
BBX 11 12 0 -2
BITMAP
2000
27C0
2440
F440
5440
5440
57C0
9280
5280
2280
54A0
8860
ENDCHAR
STARTCHAR uni36BF
ENCODING 14015
BBX 11 12 0 -2
BITMAP
2200
2200
27E0
F420
5FA0
54A0
54A0
97A0
5460
2400
5420
93E0
ENDCHAR
STARTCHAR uni36C0
ENCODING 14016
BBX 11 12 0 -2
BITMAP
2200
23C0
2440
F880
57E0
5020
5020
97E0
5020
2020
57E0
9020
ENDCHAR
STARTCHAR uni36C1
ENCODING 14017
BBX 11 12 0 -2
BITMAP
2000
27C0
2100
F920
5520
5540
5100
9FE0
5100
2100
5100
8900
ENDCHAR
STARTCHAR uni36C2
ENCODING 14018
BBX 11 12 0 -2
BITMAP
4060
4F80
4800
EFE0
A800
ABE0
AAA0
AAA0
ABE0
4A00
AA20
91E0
ENDCHAR
STARTCHAR uni36C3
ENCODING 14019
BBX 11 12 0 -2
BITMAP
2000
FBE0
2120
7120
2120
FA20
24C0
0800
FFE0
3100
0E00
F1C0
ENDCHAR
STARTCHAR uni36C4
ENCODING 14020
BBX 11 12 0 -2
BITMAP
2200
2100
2FE0
F100
5200
5520
5D40
9480
5480
2440
5620
9400
ENDCHAR
STARTCHAR uni36C5
ENCODING 14021
BBX 11 12 0 -2
BITMAP
2000
2FE0
2440
F440
57C0
5440
57C0
9440
5460
2FC0
5040
8840
ENDCHAR
STARTCHAR uni36C6
ENCODING 14022
BBX 11 12 0 -2
BITMAP
27C0
2240
22E0
F420
5420
5960
5100
9FE0
5380
2540
5920
9100
ENDCHAR
STARTCHAR uni36C7
ENCODING 14023
BBX 11 12 0 -2
BITMAP
2100
2080
27E0
F400
5480
5480
57E0
9480
5480
2480
5480
8BE0
ENDCHAR
STARTCHAR uni36C8
ENCODING 14024
BBX 11 12 0 -2
BITMAP
2100
2100
27A0
F140
5FE0
5100
53E0
9600
5BE0
2020
5020
88C0
ENDCHAR
STARTCHAR uni36C9
ENCODING 14025
BBX 11 12 0 -2
BITMAP
4000
4FE0
4280
E280
AFE0
AAA0
AAA0
AAE0
AC20
4820
AFE0
8820
ENDCHAR
STARTCHAR uni36CA
ENCODING 14026
BBX 11 12 0 -2
BITMAP
27C0
2440
2440
F440
5920
5100
5FE0
9100
5380
2540
5920
9100
ENDCHAR
STARTCHAR uni36CB
ENCODING 14027
BBX 11 12 0 -2
BITMAP
4200
4200
4500
E880
B260
A200
A200
A340
AAA0
52A0
A200
8600
ENDCHAR
STARTCHAR uni36CC
ENCODING 14028
BBX 11 12 0 -2
BITMAP
2100
2200
2440
F7E0
5120
5500
57C0
9900
5100
2FE0
5100
9100
ENDCHAR
STARTCHAR uni36CD
ENCODING 14029
BBX 11 12 0 -2
BITMAP
2100
2100
2FE0
F100
5540
5540
5540
9BA0
5100
2280
5440
8820
ENDCHAR
STARTCHAR uni36CE
ENCODING 14030
BBX 11 12 0 -2
BITMAP
23C0
2240
2240
F240
53C0
5000
57E0
9420
5420
2420
57E0
9420
ENDCHAR
STARTCHAR uni36CF
ENCODING 14031
BBX 11 12 0 -2
BITMAP
2140
2120
2100
F7E0
5100
5580
53A0
9340
5540
2920
5100
9300
ENDCHAR
STARTCHAR uni36D0
ENCODING 14032
BBX 11 12 0 -2
BITMAP
4000
4FE0
4100
EFE0
A920
AFE0
A920
AFE0
A500
4200
A500
88E0
ENDCHAR
STARTCHAR uni36D1
ENCODING 14033
BBX 11 12 0 -2
BITMAP
1000
1DC0
5140
7D40
A880
3140
C220
0800
FFE0
3100
0E00
F1C0
ENDCHAR
STARTCHAR uni36D2
ENCODING 14034
BBX 11 12 0 -2
BITMAP
2000
2FE0
2000
F7C0
5440
5440
57C0
9000
5440
2280
5000
8FE0
ENDCHAR
STARTCHAR uni36D3
ENCODING 14035
BBX 11 12 0 -2
BITMAP
2440
2380
2440
F100
57E0
5200
5500
9FE0
5520
2520
5560
9100
ENDCHAR
STARTCHAR uni36D4
ENCODING 14036
BBX 11 12 0 -2
BITMAP
2200
27C0
2C40
F380
5C60
5100
57C0
9100
57C0
2100
5FE0
9100
ENDCHAR
STARTCHAR uni36D5
ENCODING 14037
BBX 11 12 0 -2
BITMAP
23C0
2240
23C0
F000
57E0
54A0
54A0
97E0
5400
2420
5420
93E0
ENDCHAR
STARTCHAR uni36D6
ENCODING 14038
BBX 11 12 0 -2
BITMAP
2200
2440
2FE0
F020
5440
5A20
53C0
9440
5A80
2100
5280
8C60
ENDCHAR
STARTCHAR uni36D7
ENCODING 14039
BBX 11 12 0 -2
BITMAP
2100
2100
2540
F540
5540
5BA0
5100
9100
57C0
2100
5100
8FE0
ENDCHAR
STARTCHAR uni36D8
ENCODING 14040
BBX 11 12 0 -2
BITMAP
2080
27E0
2080
F7E0
5420
53C0
5040
9080
57E0
2080
5080
9180
ENDCHAR
STARTCHAR uni36D9
ENCODING 14041
BBX 11 12 0 -2
BITMAP
2200
2100
27C0
F000
5440
5280
5FE0
9100
57C0
2100
5100
8900
ENDCHAR
STARTCHAR uni36DA
ENCODING 14042
BBX 11 12 0 -2
BITMAP
27C0
2040
2280
F100
57E0
5520
57E0
9520
57E0
2520
5520
9460
ENDCHAR
STARTCHAR uni36DB
ENCODING 14043
BBX 11 12 0 -2
BITMAP
2100
27C0
2440
F7C0
5440
57C0
5460
9FC0
50C0
2340
5C40
91C0
ENDCHAR
STARTCHAR uni36DC
ENCODING 14044
BBX 11 12 0 -2
BITMAP
2200
57E0
DA40
5180
5240
4420
0800
FFE0
1080
3100
0E00
F1C0
ENDCHAR
STARTCHAR uni36DD
ENCODING 14045
BBX 11 12 0 -2
BITMAP
2000
27E0
2420
F420
57E0
5420
57E0
9420
5420
27E0
5240
9420
ENDCHAR
STARTCHAR uni36DE
ENCODING 14046
BBX 11 12 0 -2
BITMAP
4000
4FE0
4100
E7C0
A100
AFE0
A000
A440
AFE0
4440
A440
8840
ENDCHAR
STARTCHAR uni36DF
ENCODING 14047
BBX 11 12 0 -2
BITMAP
2200
2380
2480
F900
57C0
5540
5540
9540
5FE0
2280
5440
8820
ENDCHAR
STARTCHAR uni36E0
ENCODING 14048
BBX 11 12 0 -2
BITMAP
4800
45E0
4020
EBA0
AAA0
AAA0
ABA0
AAA0
AAA0
4BA0
A820
8860
ENDCHAR
STARTCHAR uni36E1
ENCODING 14049
BBX 11 12 0 -2
BITMAP
2100
2080
27E0
F420
53C0
5000
57E0
9280
5280
2280
54A0
8860
ENDCHAR
STARTCHAR uni36E2
ENCODING 14050
BBX 11 12 0 -2
BITMAP
20C0
2700
2100
F7E0
5340
5520
5000
97C0
5240
22E0
5220
94C0
ENDCHAR
STARTCHAR uni36E3
ENCODING 14051
BBX 11 12 0 -2
BITMAP
47C0
4440
47C0
E000
AFE0
A820
A920
A920
A920
4280
A440
8820
ENDCHAR
STARTCHAR uni36E4
ENCODING 14052
BBX 11 12 0 -2
BITMAP
4000
4FE0
4000
EEE0
AAA0
AAA0
AAA0
AEE0
AAA0
4AA0
AAA0
8AA0
ENDCHAR
STARTCHAR uni36E5
ENCODING 14053
BBX 11 12 0 -2
BITMAP
4100
4DA0
4540
E540
AB20
A000
AFC0
A840
AFC0
4840
AFC0
8840
ENDCHAR
STARTCHAR uni36E6
ENCODING 14054
BBX 11 12 0 -2
BITMAP
4480
4480
4480
EFE0
A480
A680
ADC0
B5A0
A680
4480
A480
8480
ENDCHAR
STARTCHAR uni36E7
ENCODING 14055
BBX 11 12 0 -2
BITMAP
2100
2520
2520
F7E0
5000
57E0
5100
93E0
5620
2A20
53E0
8A20
ENDCHAR
STARTCHAR uni36E8
ENCODING 14056
BBX 11 12 0 -2
BITMAP
2440
2280
2FE0
F100
57C0
5100
5FE0
9280
5280
2480
54A0
8860
ENDCHAR
STARTCHAR uni36E9
ENCODING 14057
BBX 11 12 0 -2
BITMAP
2100
2FE0
2440
F7E0
5020
57C0
5440
97C0
5440
27C0
5440
94C0
ENDCHAR
STARTCHAR uni36EA
ENCODING 14058
BBX 11 12 0 -2
BITMAP
2100
2FE0
2280
F440
5920
57C0
5540
97C0
5540
27C0
5520
90E0
ENDCHAR
STARTCHAR uni36EB
ENCODING 14059
BBX 11 12 0 -2
BITMAP
27C0
2440
27C0
F440
57C0
5200
57E0
9AA0
54A0
2920
5220
94C0
ENDCHAR
STARTCHAR uni36EC
ENCODING 14060
BBX 11 12 0 -2
BITMAP
2100
2100
27C0
F100
5FE0
5280
5440
9920
57C0
2100
5100
8FE0
ENDCHAR
STARTCHAR uni36ED
ENCODING 14061
BBX 11 12 0 -2
BITMAP
2280
2280
27C0
F280
5FE0
5000
57C0
9440
57C0
2440
57C0
9440
ENDCHAR
STARTCHAR uni36EE
ENCODING 14062
BBX 11 12 0 -2
BITMAP
2100
2FE0
2820
F100
5540
5280
5440
9820
57C0
2440
5380
8C60
ENDCHAR
STARTCHAR uni36EF
ENCODING 14063
BBX 11 12 0 -2
BITMAP
5080
5C80
55E0
E8A0
BEA0
AAA0
AAA0
BEA0
A920
56C0
B420
A3E0
ENDCHAR
STARTCHAR uni36F0
ENCODING 14064
BBX 11 12 0 -2
BITMAP
4FC0
4840
4FC0
E900
AFC0
A8A0
AC60
A7C0
A440
47C0
A440
87C0
ENDCHAR
STARTCHAR uni36F1
ENCODING 14065
BBX 11 12 0 -2
BITMAP
27C0
2540
27C0
F540
57C0
5000
5FE0
9500
5540
2480
5640
9420
ENDCHAR
STARTCHAR uni36F2
ENCODING 14066
BBX 11 12 0 -2
BITMAP
2000
27E0
2100
F7E0
5420
57E0
5420
97E0
5420
27E0
5240
9420
ENDCHAR
STARTCHAR uni36F3
ENCODING 14067
BBX 11 12 0 -2
BITMAP
0400
FFE0
1100
FFE0
8420
7FC0
4440
0800
FFE0
3100
0E00
F1C0
ENDCHAR
STARTCHAR uni36F4
ENCODING 14068
BBX 11 12 0 -2
BITMAP
22A0
2540
2540
F2A0
5100
57E0
5420
9660
55A0
2660
5420
97E0
ENDCHAR
STARTCHAR uni36F5
ENCODING 14069
BBX 11 12 0 -2
BITMAP
20E0
2F00
2220
F940
5500
57C0
5540
97C0
5540
2FE0
5440
94C0
ENDCHAR
STARTCHAR uni36F6
ENCODING 14070
BBX 11 12 0 -2
BITMAP
2100
2920
2FE0
F200
5FE0
5200
5280
94A0
55C0
2A80
5940
9220
ENDCHAR
STARTCHAR uni36F7
ENCODING 14071
BBX 11 12 0 -2
BITMAP
1940
E120
27E0
F980
7280
AAA0
2460
0800
FFE0
3100
0E00
F1C0
ENDCHAR
STARTCHAR uni36F8
ENCODING 14072
BBX 11 12 0 -2
BITMAP
2100
2FE0
2100
F7C0
5000
57C0
5440
9440
57C0
2440
5280
8FE0
ENDCHAR
STARTCHAR uni36F9
ENCODING 14073
BBX 11 12 0 -2
BITMAP
4400
47E0
4880
EBE0
BAA0
ABE0
AAA0
ABE0
A880
4A80
A900
8AE0
ENDCHAR
STARTCHAR uni36FA
ENCODING 14074
BBX 11 12 0 -2
BITMAP
2100
2FE0
2440
F280
5FE0
5000
57C0
9440
57C0
2440
57C0
9440
ENDCHAR
STARTCHAR uni36FB
ENCODING 14075
BBX 11 12 0 -2
BITMAP
2100
2FE0
2280
F440
5920
57C0
5100
9FE0
5100
27C0
5100
8FE0
ENDCHAR
STARTCHAR uni36FC
ENCODING 14076
BBX 11 12 0 -2
BITMAP
40C0
4700
4100
EFE0
A100
A500
A960
A920
AD60
4920
AFE0
8820
ENDCHAR
STARTCHAR uni36FD
ENCODING 14077
BBX 11 12 0 -2
BITMAP
2100
2FE0
2820
F100
5540
5380
5100
9FE0
5380
2540
5920
9100
ENDCHAR
STARTCHAR uni36FE
ENCODING 14078
BBX 11 12 0 -2
BITMAP
40A0
4080
4FE0
E880
AE80
A8A0
AEA0
AAC0
AAC0
4EA0
A960
9220
ENDCHAR
STARTCHAR uni36FF
ENCODING 14079
BBX 11 12 0 -2
BITMAP
2540
2FE0
2540
F000
5FE0
5820
5100
97C0
5540
2540
55C0
9100
ENDCHAR
STARTCHAR uni3700
ENCODING 14080
BBX 11 12 0 -2
BITMAP
4800
49E0
4920
FF20
A9E0
AD20
BB20
A9E0
A920
4920
A9E0
8920
ENDCHAR
STARTCHAR uni3701
ENCODING 14081
BBX 11 12 0 -2
BITMAP
2100
2FE0
2380
F540
5920
57C0
5440
97C0
5440
27C0
5000
8FE0
ENDCHAR
STARTCHAR uni3702
ENCODING 14082
BBX 11 12 0 -2
BITMAP
1040
79E0
1040
FD40
10C0
1C40
E0C0
0800
FFE0
3100
0E00
F1C0
ENDCHAR
STARTCHAR uni3703
ENCODING 14083
BBX 11 12 0 -2
BITMAP
2280
2240
25E0
F400
5DE0
5400
55E0
9400
55E0
2520
55E0
9520
ENDCHAR
STARTCHAR uni3704
ENCODING 14084
BBX 11 12 0 -2
BITMAP
2000
27C0
2440
F4C0
5740
5540
57C0
9540
57C0
2540
57E0
88A0
ENDCHAR
STARTCHAR uni3705
ENCODING 14085
BBX 11 12 0 -2
BITMAP
4100
4FE0
4240
E780
A120
AFE0
A000
AFE0
A920
4FE0
A920
8FE0
ENDCHAR
STARTCHAR uni3706
ENCODING 14086
BBX 11 12 0 -2
BITMAP
2080
2AA0
25C0
F080
51E0
5C80
5580
96C0
54A0
2480
5400
8BE0
ENDCHAR
STARTCHAR uni3707
ENCODING 14087
BBX 11 12 0 -2
BITMAP
2100
27C0
2100
FFE0
5100
57C0
5100
9FE0
5000
2140
5AA0
8BA0
ENDCHAR
STARTCHAR uni3708
ENCODING 14088
BBX 11 12 0 -2
BITMAP
F3C0
5440
2380
FD60
6BC0
A140
62C0
0800
FFE0
3100
0E00
F1C0
ENDCHAR
STARTCHAR uni3709
ENCODING 14089
BBX 11 12 0 -2
BITMAP
22A0
2540
22A0
F3C0
5240
53C0
5000
97C0
5540
27C0
5420
93E0
ENDCHAR
STARTCHAR uni370A
ENCODING 14090
BBX 11 12 0 -2
BITMAP
4000
4FE0
4820
EFE0
A940
AFE0
A940
AFE0
AA80
4AA0
AB40
9220
ENDCHAR
STARTCHAR uni370B
ENCODING 14091
BBX 11 12 0 -2
BITMAP
4820
4440
4000
EFE0
A440
A820
A000
AFE0
AAA0
4AA0
AAA0
9FE0
ENDCHAR
STARTCHAR uni370C
ENCODING 14092
BBX 11 12 0 -2
BITMAP
11C0
FD40
1140
FE60
8400
79C0
2140
F940
4940
C880
3140
CA20
ENDCHAR
STARTCHAR uni370D
ENCODING 14093
BBX 11 12 0 -2
BITMAP
4100
4FE0
4900
EBC0
A940
AFE0
A940
ABC0
A900
4BC0
AA40
93C0
ENDCHAR
STARTCHAR uni370E
ENCODING 14094
BBX 11 12 0 -2
BITMAP
20E0
2F20
2A40
F500
5240
5780
5240
9FE0
5100
2FE0
5280
8C60
ENDCHAR
STARTCHAR uni370F
ENCODING 14095
BBX 11 12 0 -2
BITMAP
23C0
2240
23C0
F000
57E0
5420
57E0
9420
57E0
2420
57E0
9240
ENDCHAR
STARTCHAR uni3710
ENCODING 14096
BBX 11 12 0 -2
BITMAP
2100
2540
27C0
F000
5FE0
5000
57C0
9440
57C0
2440
5280
8FE0
ENDCHAR
STARTCHAR uni3711
ENCODING 14097
BBX 11 12 0 -2
BITMAP
4240
3FE0
8200
5FC0
3240
5FC0
9240
0800
FFE0
3100
0E00
F1C0
ENDCHAR
STARTCHAR uni3712
ENCODING 14098
BBX 11 12 0 -2
BITMAP
4200
4CE0
4820
EEE0
A820
AFE0
A440
A440
BFE0
4440
A440
8840
ENDCHAR
STARTCHAR uni3713
ENCODING 14099
BBX 11 12 0 -2
BITMAP
2440
2FE0
2440
F100
5280
5440
5BA0
9000
57C0
2440
57C0
9440
ENDCHAR
STARTCHAR uni3714
ENCODING 14100
BBX 11 12 0 -2
BITMAP
2100
2FE0
2440
F280
5FE0
5000
57C0
9440
57C0
2280
54A0
8860
ENDCHAR
STARTCHAR uni3715
ENCODING 14101
BBX 11 12 0 -2
BITMAP
4080
53E0
4880
E3E0
A2A0
BBE0
AAA0
ABE0
A880
4BE0
A880
97E0
ENDCHAR
STARTCHAR uni3716
ENCODING 14102
BBX 11 12 0 -2
BITMAP
4280
4FE0
4280
EFE0
AAA0
AFE0
AAA0
AFE0
A440
47C0
A440
87C0
ENDCHAR
STARTCHAR uni3717
ENCODING 14103
BBX 11 12 0 -2
BITMAP
4280
47C0
4440
EAA0
AEE0
A300
ACE0
A200
AC80
4320
ACC0
8300
ENDCHAR
STARTCHAR uni3718
ENCODING 14104
BBX 11 12 0 -2
BITMAP
41C0
4100
4FE0
E920
A9C0
AF20
A8E0
ABC0
AA40
4BC0
AA40
97E0
ENDCHAR
STARTCHAR uni3719
ENCODING 14105
BBX 11 12 0 -2
BITMAP
4100
4FE0
4A80
EFE0
AAA0
AFE0
A800
AAA0
ABC0
4A80
AAA0
9360
ENDCHAR
STARTCHAR uni371A
ENCODING 14106
BBX 11 12 0 -2
BITMAP
2100
2FE0
2820
F200
55E0
5C80
55E0
9520
55E0
2520
55E0
9520
ENDCHAR
STARTCHAR uni371B
ENCODING 14107
BBX 11 12 0 -2
BITMAP
4880
7E80
48E0
FF20
AA20
BE80
AA80
BE80
A880
7F40
A940
8A20
ENDCHAR
STARTCHAR uni371C
ENCODING 14108
BBX 11 12 0 -2
BITMAP
4480
4E80
4480
EEE0
A520
BEA0
A8A0
AEA0
AAA0
4A40
AAA0
9720
ENDCHAR
STARTCHAR uni371D
ENCODING 14109
BBX 11 12 0 -2
BITMAP
4100
4280
4540
EBA0
A080
AFE0
A280
AFE0
AAA0
4D60
A820
8FE0
ENDCHAR
STARTCHAR uni371E
ENCODING 14110
BBX 11 12 0 -2
BITMAP
1040
FF80
5500
7DE0
5540
FD40
1240
0800
FFE0
3100
0E00
F1C0
ENDCHAR
STARTCHAR uni371F
ENCODING 14111
BBX 11 12 0 -2
BITMAP
4E40
4240
4480
FEE0
AB20
AEA0
AAA0
AEA0
AB40
5E40
A2A0
8320
ENDCHAR
STARTCHAR uni3720
ENCODING 14112
BBX 11 12 0 -2
BITMAP
2100
2920
2FE0
F280
5440
5FE0
5480
97E0
5480
27E0
5480
97E0
ENDCHAR
STARTCHAR uni3721
ENCODING 14113
BBX 11 12 0 -2
BITMAP
4540
4940
5140
E540
AAA0
B800
A880
AA80
AAE0
4A80
AA80
8DE0
ENDCHAR
STARTCHAR uni3722
ENCODING 14114
BBX 11 12 0 -2
BITMAP
2100
27C0
2540
FFE0
5540
57C0
5100
97E0
5240
2640
5180
9660
ENDCHAR
STARTCHAR uni3723
ENCODING 14115
BBX 11 12 0 -2
BITMAP
4480
44A0
4680
EBE0
AE80
B280
AD40
A540
AA20
5000
AAA0
8AA0
ENDCHAR
STARTCHAR uni3724
ENCODING 14116
BBX 11 12 0 -2
BITMAP
4FE0
4280
4FE0
EAA0
AFE0
A440
A7C0
A440
A7C0
4100
AFE0
8100
ENDCHAR
STARTCHAR uni3725
ENCODING 14117
BBX 11 12 0 -2
BITMAP
2FE0
2AA0
2FE0
F000
57C0
5440
57C0
9440
57C0
2440
57C0
9280
ENDCHAR
STARTCHAR uni3726
ENCODING 14118
BBX 11 12 0 -2
BITMAP
4FC0
4040
47C0
E040
AFE0
A4A0
AEE0
A040
AFE0
4440
A240
80C0
ENDCHAR
STARTCHAR uni3727
ENCODING 14119
BBX 11 12 0 -2
BITMAP
4000
4FE0
4840
ED40
AA60
AFA0
AA40
AAC0
AFC0
4A40
AAA0
9520
ENDCHAR
STARTCHAR uni3728
ENCODING 14120
BBX 11 12 0 -2
BITMAP
4FE0
4820
4FE0
EAA0
A9C0
AAA0
A800
AA80
ABE0
4C80
ABE0
9080
ENDCHAR
STARTCHAR uni3729
ENCODING 14121
BBX 11 12 0 -2
BITMAP
4200
4FE0
4920
ED60
AFE0
A920
AD60
A820
A100
4FE0
A280
8C60
ENDCHAR
STARTCHAR uni372A
ENCODING 14122
BBX 11 12 0 -2
BITMAP
1060
7D80
2900
FDE0
5940
9540
3240
0800
FFE0
3100
0E00
F1C0
ENDCHAR
STARTCHAR uni372B
ENCODING 14123
BBX 11 12 0 -2
BITMAP
4940
5540
4540
E7E0
A8A0
BB20
A8A0
ABA0
AAA0
4A40
ACA0
8920
ENDCHAR
STARTCHAR uni372C
ENCODING 14124
BBX 11 12 0 -2
BITMAP
4780
4880
4FE0
EA40
AD20
ABC0
A800
ABC0
A800
4BC0
AA40
93C0
ENDCHAR
STARTCHAR uni372D
ENCODING 14125
BBX 11 12 0 -2
BITMAP
4540
4FE0
4820
E7C0
A440
A7C0
A000
AFE0
A920
4FE0
A920
8FE0
ENDCHAR
STARTCHAR uni372E
ENCODING 14126
BBX 11 12 0 -2
BITMAP
4F40
4A40
4F60
E940
AFA0
AA20
AF00
A000
AFE0
4AA0
AAA0
9FE0
ENDCHAR
STARTCHAR uni372F
ENCODING 14127
BBX 11 12 0 -2
BITMAP
5EE0
54A0
5EA0
EAA0
AAE0
AE80
A4A0
A4A0
BE60
4000
AAA0
8AA0
ENDCHAR
STARTCHAR uni3730
ENCODING 14128
BBX 11 12 0 -2
BITMAP
4520
4BA0
4EC0
E7A0
AAC0
AFA0
A100
AFE0
A380
4540
A920
8100
ENDCHAR
STARTCHAR uni3731
ENCODING 14129
BBX 11 12 0 -2
BITMAP
2660
2880
2FE0
FAA0
5320
57C0
5440
97C0
5440
27C0
5280
9440
ENDCHAR
STARTCHAR uni3732
ENCODING 14130
BBX 11 12 0 -2
BITMAP
4200
5FE0
4800
EFC0
A000
A4E0
BEA0
AAA0
AAE0
44A0
AAA0
9120
ENDCHAR
STARTCHAR uni3733
ENCODING 14131
BBX 11 12 0 -2
BITMAP
4100
4FE0
4000
EFE0
AAA0
AFE0
A920
A540
AAA0
46A0
AA40
8320
ENDCHAR
STARTCHAR uni3734
ENCODING 14132
BBX 11 12 0 -2
BITMAP
4440
4FE0
4440
EFE0
AAA0
AFE0
A000
AFE0
AAA0
4380
A280
8380
ENDCHAR
STARTCHAR uni3735
ENCODING 14133
BBX 11 12 0 -2
BITMAP
4100
4FE0
4000
EFE0
A900
AFC0
A900
AFE0
AAA0
4540
AC80
9660
ENDCHAR
STARTCHAR uni3736
ENCODING 14134
BBX 11 12 0 -2
BITMAP
4400
4780
4880
FFC0
A840
AFC0
A900
BFC0
AA40
4FC0
A520
98E0
ENDCHAR
STARTCHAR uni3737
ENCODING 14135
BBX 11 12 0 -2
BITMAP
EFE0
2540
EFE0
8B60
EDA0
2B60
2DA0
6B60
FFE0
3100
0E00
F1C0
ENDCHAR
STARTCHAR uni3738
ENCODING 14136
BBX 11 12 0 -2
BITMAP
1100
FFE0
1100
2080
73E0
5140
7BE0
4880
FFE0
3100
0E00
F1C0
ENDCHAR
STARTCHAR uni3739
ENCODING 14137
BBX 11 12 0 -2
BITMAP
4EE0
4AA0
4EE0
EAA0
AEE0
A480
AFE0
B900
AFC0
4900
AFE0
8800
ENDCHAR
STARTCHAR uni373A
ENCODING 14138
BBX 11 12 0 -2
BITMAP
4A40
4FE0
5240
EFE0
A6C0
AB60
BFE0
AA20
A920
4FE0
A440
8820
ENDCHAR
STARTCHAR uni373B
ENCODING 14139
BBX 11 12 0 -2
BITMAP
4440
4E80
40E0
EE40
A0A0
AEE0
AA00
AEA0
A100
4440
AAA0
8380
ENDCHAR
STARTCHAR uni373C
ENCODING 14140
BBX 11 12 0 -2
BITMAP
47C0
4540
4FE0
EAA0
AFE0
AAA0
AFE0
A000
BFE0
56A0
A580
9FE0
ENDCHAR
STARTCHAR uni373D
ENCODING 14141
BBX 11 12 0 -2
BITMAP
2220
4440
8880
4440
2220
3F80
0100
0200
FFE0
0400
0400
1C00
ENDCHAR
STARTCHAR uni373E
ENCODING 14142
BBX 11 12 0 -2
BITMAP
0100
F100
1280
1440
2820
2240
3240
E240
2240
2440
2440
6840
ENDCHAR
STARTCHAR uni373F
ENCODING 14143
BBX 11 11 0 -2
BITMAP
F7C0
1040
1280
2100
2FE0
3120
E100
2100
2100
2100
6700
ENDCHAR
STARTCHAR uni3740
ENCODING 14144
BBX 11 11 0 -2
BITMAP
7BC0
4840
6840
5880
FC80
4BE0
A880
9880
FC80
0880
3180
ENDCHAR
STARTCHAR uni3741
ENCODING 14145
BBX 11 12 0 -2
BITMAP
2000
3FC0
6240
BE40
2240
3E40
00C0
3F00
0200
FFE0
0400
1C00
ENDCHAR
STARTCHAR uni3742
ENCODING 14146
BBX 11 12 0 -2
BITMAP
0420
F5C0
1500
1F00
25E0
2540
3740
ED40
2540
2540
2540
6E40
ENDCHAR
STARTCHAR uni3743
ENCODING 14147
BBX 11 12 0 -2
BITMAP
0200
F380
1480
1900
27C0
2540
3540
E7C0
2280
22A0
24A0
6860
ENDCHAR
STARTCHAR uni3744
ENCODING 14148
BBX 11 12 0 -2
BITMAP
2100
F900
07E0
7100
5540
7540
0540
77C0
1100
F920
2120
60E0
ENDCHAR
STARTCHAR uni3745
ENCODING 14149
BBX 11 12 0 -2
BITMAP
11C0
FD40
1140
FE60
8400
79C0
0140
7940
0940
FC80
1140
3220
ENDCHAR
STARTCHAR uni3746
ENCODING 14150
BBX 11 12 0 -2
BITMAP
0100
F7E0
1100
17C0
2000
27C0
3440
E7C0
2280
2FE0
2440
67C0
ENDCHAR
STARTCHAR uni3747
ENCODING 14151
BBX 11 12 0 -2
BITMAP
2080
FBE0
0000
FBE0
8A20
FBE0
0000
F3C0
1040
FBE0
2080
6180
ENDCHAR
STARTCHAR uni3748
ENCODING 14152
BBX 11 12 0 -2
BITMAP
4440
8E80
E0E0
4E40
EAE0
0E00
A0A0
71C0
1040
FBE0
2080
6180
ENDCHAR
STARTCHAR uni3749
ENCODING 14153
BBX 11 11 0 -1
BITMAP
0800
0400
FFE0
8020
8020
0000
0000
0000
0000
0000
FFE0
ENDCHAR
STARTCHAR uni374A
ENCODING 14154
BBX 11 12 0 -2
BITMAP
0800
0400
FFE0
8020
0000
7FC0
2040
1080
0900
0600
1980
E060
ENDCHAR
STARTCHAR uni374B
ENCODING 14155
BBX 11 12 0 -2
BITMAP
0400
FFE0
8020
0000
7FC0
0080
0100
0200
0200
0200
0200
0E00
ENDCHAR
STARTCHAR uni374C
ENCODING 14156
BBX 11 12 0 -2
BITMAP
0800
0400
FFE0
8020
1000
1F00
2100
4200
0400
0A00
3180
C060
ENDCHAR
STARTCHAR uni374D
ENCODING 14157
BBX 11 12 0 -2
BITMAP
0400
FFE0
A020
2000
3FC0
4000
4000
7FC0
0040
FF40
0040
0180
ENDCHAR
STARTCHAR uni374E
ENCODING 14158
BBX 11 12 0 -2
BITMAP
0800
0400
FFE0
8820
0400
FFC0
0080
0300
0C00
1000
6000
9FE0
ENDCHAR
STARTCHAR uni374F
ENCODING 14159
BBX 11 12 0 -2
BITMAP
0400
FFE0
8020
0400
0A00
3180
C060
1100
1100
1100
2100
4100
ENDCHAR
STARTCHAR uni3750
ENCODING 14160
BBX 11 12 0 -2
BITMAP
0800
0400
FFE0
8020
1100
1100
2480
4440
8920
1080
3FC0
0040
ENDCHAR
STARTCHAR uni3751
ENCODING 14161
BBX 11 12 0 -2
BITMAP
0400
FFE0
8420
0200
FFE0
1000
1000
1FC0
1040
2040
4040
8180
ENDCHAR
STARTCHAR uni3752
ENCODING 14162
BBX 11 12 0 -2
BITMAP
0400
FFE0
8020
0400
FFE0
0400
0400
7FC0
4040
4040
7FC0
4040
ENDCHAR
STARTCHAR uni3753
ENCODING 14163
BBX 11 12 0 -2
BITMAP
0400
FFE0
8420
0A00
3180
DF60
0000
3F80
2080
2080
3F80
2080
ENDCHAR
STARTCHAR uni3754
ENCODING 14164
BBX 11 12 0 -2
BITMAP
0800
0400
FFE0
8820
0400
FFE0
1100
2080
5140
0E00
3180
C060
ENDCHAR
STARTCHAR uni3755
ENCODING 14165
BBX 11 12 0 -2
BITMAP
0400
FFE0
8820
0400
5140
8F20
0000
7FC0
2080
1100
0E00
F1E0
ENDCHAR
STARTCHAR uni3756
ENCODING 14166
BBX 11 12 0 -2
BITMAP
0400
FFE0
8820
1F80
6880
0700
7A00
07C0
3840
0980
0E00
F000
ENDCHAR
STARTCHAR uni3757
ENCODING 14167
BBX 11 12 0 -2
BITMAP
0400
FFE0
8820
0400
7FC0
4040
7FC0
4040
7FC0
4240
5980
6060
ENDCHAR
STARTCHAR uni3758
ENCODING 14168
BBX 11 12 0 -2
BITMAP
0400
FFE0
8420
7FC0
0000
7FC0
0000
7FC0
0000
7FC0
4040
7FC0
ENDCHAR
STARTCHAR uni3759
ENCODING 14169
BBX 11 12 0 -2
BITMAP
0400
FFE0
8020
7FC0
0400
3F80
0400
7FC0
0000
FFE0
2080
4040
ENDCHAR
STARTCHAR uni375A
ENCODING 14170
BBX 11 12 0 -2
BITMAP
0400
FFE0
8020
00C0
EF00
2100
49C0
E900
2900
AFE0
4000
BFE0
ENDCHAR
STARTCHAR uni375B
ENCODING 14171
BBX 11 12 0 -2
BITMAP
0400
FFE0
A020
3FC0
4200
DFC0
5240
5240
5540
5040
5FC0
5040
ENDCHAR
STARTCHAR uni375C
ENCODING 14172
BBX 11 12 0 -2
BITMAP
0400
FFE0
9120
7FC0
1100
FFE0
0000
7FC0
4040
7FC0
4040
7FC0
ENDCHAR
STARTCHAR uni375D
ENCODING 14173
BBX 11 12 0 -2
BITMAP
0400
FFE0
8020
2080
2080
FBE0
2080
71C0
69A0
A280
2080
2080
ENDCHAR
STARTCHAR uni375E
ENCODING 14174
BBX 11 12 0 -2
BITMAP
0400
FFE0
8020
0000
FFE0
1100
71C0
4040
4040
71C0
1100
FFE0
ENDCHAR
STARTCHAR uni375F
ENCODING 14175
BBX 11 12 0 -2
BITMAP
0400
FFE0
8020
7FC0
0000
7FC0
4040
7FC0
4040
7FC0
1220
E1E0
ENDCHAR
STARTCHAR uni3760
ENCODING 14176
BBX 11 12 0 -2
BITMAP
0400
FFE0
8020
3F80
2080
3F80
2080
3F80
0400
FFE0
2080
4040
ENDCHAR
STARTCHAR uni3761
ENCODING 14177
BBX 11 12 0 -2
BITMAP
0400
FFE0
8020
FC00
4BE0
7920
4920
7940
4D40
F880
0940
0A20
ENDCHAR
STARTCHAR uni3762
ENCODING 14178
BBX 11 12 0 -2
BITMAP
0400
FFE0
8020
7FC0
0400
7FC0
4440
7FC0
0400
FFE0
8520
9F60
ENDCHAR
STARTCHAR uni3763
ENCODING 14179
BBX 11 12 0 -2
BITMAP
0400
FFE0
8020
2000
FBE0
2120
F920
2260
0400
FFE0
1100
E0E0
ENDCHAR
STARTCHAR uni3764
ENCODING 14180
BBX 11 12 0 -2
BITMAP
0400
FFE0
9120
7FC0
1100
FFE0
4440
7FC0
4440
FFE0
4040
40C0
ENDCHAR
STARTCHAR uni3765
ENCODING 14181
BBX 11 12 0 -2
BITMAP
0400
FFE0
9120
5540
5380
7100
1FE0
F100
5380
5540
5920
9100
ENDCHAR
STARTCHAR uni3766
ENCODING 14182
BBX 11 12 0 -2
BITMAP
0400
FFE0
9120
3FE0
6200
BFC0
2200
7FE0
1080
11E0
2020
41C0
ENDCHAR
STARTCHAR uni3767
ENCODING 14183
BBX 11 12 0 -2
BITMAP
0400
FFE0
8820
7FC0
1100
0E00
71C0
2480
5540
7FC0
0400
FFE0
ENDCHAR
STARTCHAR uni3768
ENCODING 14184
BBX 11 12 0 -2
BITMAP
0400
FFE0
8020
0400
7FC0
0400
FFE0
2080
3F80
1A40
2980
CC60
ENDCHAR
STARTCHAR uni3769
ENCODING 14185
BBX 11 12 0 -2
BITMAP
0400
FFE0
8420
7FC0
4200
5FC0
4240
7FE0
4240
5FC0
4AA0
9660
ENDCHAR
STARTCHAR uni376A
ENCODING 14186
BBX 11 12 0 -2
BITMAP
0400
FFE0
8020
2100
7100
23C0
F940
5340
F9C0
2140
FA60
2420
ENDCHAR
STARTCHAR uni376B
ENCODING 14187
BBX 11 12 0 -2
BITMAP
0400
FFE0
8220
73C0
5440
5380
6C60
5380
5500
57C0
6900
4FE0
ENDCHAR
STARTCHAR uni376C
ENCODING 14188
BBX 11 12 0 -2
BITMAP
1080
FE80
9280
7DC0
1080
7C80
13E0
FE80
1080
7D40
4540
7E20
ENDCHAR
STARTCHAR uni376D
ENCODING 14189
BBX 11 12 0 -2
BITMAP
0400
FFE0
84A0
2780
2480
B780
A500
A7C0
2900
27C0
2100
2FE0
ENDCHAR
STARTCHAR uni376E
ENCODING 14190
BBX 11 12 0 -2
BITMAP
0400
FFE0
8020
5400
7DE0
10A0
54A0
7CA0
0040
FE40
54A0
B320
ENDCHAR
STARTCHAR uni376F
ENCODING 14191
BBX 11 12 0 -2
BITMAP
0400
FFE0
8020
7FC0
0800
FFE0
2080
5F40
9120
7FC0
4A40
4EC0
ENDCHAR
STARTCHAR uni3770
ENCODING 14192
BBX 11 12 0 -2
BITMAP
0400
FFE0
8820
3F80
3480
2A80
FFE0
A4A0
7FC0
9020
1F80
6080
ENDCHAR
STARTCHAR uni3771
ENCODING 14193
BBX 11 12 0 -2
BITMAP
0400
FFE0
94A0
5FC0
5480
7FC0
1540
FFE0
5220
57C0
5140
9780
ENDCHAR
STARTCHAR uni3772
ENCODING 14194
BBX 11 12 0 -2
BITMAP
0400
FFE0
92A0
57C0
5280
7FC0
1540
FFE0
5120
57C0
5540
9100
ENDCHAR
STARTCHAR uni3773
ENCODING 14195
BBX 11 12 0 -2
BITMAP
0400
0400
0400
FFE0
0400
0480
2440
4520
84A0
0480
0400
1C00
ENDCHAR
STARTCHAR uni3774
ENCODING 14196
BBX 11 12 0 -2
BITMAP
0040
7840
0040
07E0
F840
5240
5140
5140
5040
51C0
5020
8FE0
ENDCHAR
STARTCHAR uni3775
ENCODING 14197
BBX 11 12 0 -2
BITMAP
7FC0
4040
7FC0
4040
7FC0
0000
7FC0
0080
FFE0
2080
1080
0380
ENDCHAR
STARTCHAR uni3776
ENCODING 14198
BBX 11 12 0 -2
BITMAP
7FC0
4A40
4A40
7FC0
1100
2120
C0E0
0080
FFE0
2080
1080
0380
ENDCHAR
STARTCHAR uni3777
ENCODING 14199
BBX 11 12 0 -2
BITMAP
7FC0
0040
3FC0
0040
7FC0
2200
2FA0
F4E0
0A80
FFE0
2080
1180
ENDCHAR
STARTCHAR uni3778
ENCODING 14200
BBX 11 12 0 -2
BITMAP
0400
4440
9420
2000
7FC0
4040
7FC0
4040
7FC0
1100
2120
C0E0
ENDCHAR
STARTCHAR uni3779
ENCODING 14201
BBX 11 12 0 -2
BITMAP
0400
2540
4620
3800
DF00
2100
7FC0
A440
3FC0
0AA0
3220
C1E0
ENDCHAR
STARTCHAR uni377A
ENCODING 14202
BBX 11 12 0 -2
BITMAP
8880
5080
FCC0
51A0
FEA0
5480
FEA0
5420
FC40
5080
D900
5600
ENDCHAR
STARTCHAR uni377B
ENCODING 14203
BBX 11 12 0 -2
BITMAP
5080
F880
50C0
72A0
22A0
FAA0
AC80
F8A0
2020
F840
2080
FB00
ENDCHAR
STARTCHAR uni377C
ENCODING 14204
BBX 11 12 0 -2
BITMAP
4000
43E0
4080
F880
57E0
5080
5080
5080
5080
5380
5020
8FE0
ENDCHAR
STARTCHAR uni377D
ENCODING 14205
BBX 11 12 0 -2
BITMAP
4080
4080
46A0
FAC0
52C0
52A0
54A0
54A0
5880
5180
5020
8FE0
ENDCHAR
STARTCHAR uni377E
ENCODING 14206
BBX 11 12 0 -2
BITMAP
4100
4100
47E0
F900
5200
53E0
5480
5880
57E0
5000
5020
8FE0
ENDCHAR
STARTCHAR uni377F
ENCODING 14207
BBX 11 12 0 -2
BITMAP
4080
4080
47E0
FCA0
5480
57C0
5440
5540
5480
5940
5220
8FE0
ENDCHAR
STARTCHAR uni3780
ENCODING 14208
BBX 11 12 0 -2
BITMAP
4100
4100
47E0
F900
5280
52A0
55C0
5480
5940
5240
5020
8FE0
ENDCHAR
STARTCHAR uni3781
ENCODING 14209
BBX 11 12 0 -2
BITMAP
47C0
4440
47C0
FC40
57C0
5000
54C0
5700
5440
53C0
5020
8FE0
ENDCHAR
STARTCHAR uni3782
ENCODING 14210
BBX 11 12 0 -2
BITMAP
40E0
4F00
44A0
FA40
5100
57E0
5240
5240
5180
5640
5020
8FE0
ENDCHAR
STARTCHAR uni3783
ENCODING 14211
BBX 11 12 0 -2
BITMAP
5240
8A20
2200
27E0
5280
8A80
7280
5280
5280
54A0
74A0
4860
ENDCHAR
STARTCHAR uni3784
ENCODING 14212
BBX 11 12 0 -2
BITMAP
4200
4FE0
4440
F920
57C0
5540
57C0
5540
57C0
5100
50A0
8FE0
ENDCHAR
STARTCHAR uni3785
ENCODING 14213
BBX 11 12 0 -2
BITMAP
47C0
4540
47C0
FD40
57C0
5100
5FE0
5100
5380
5540
5920
8FE0
ENDCHAR
STARTCHAR uni3786
ENCODING 14214
BBX 11 12 0 -2
BITMAP
4100
47C0
4280
FC40
57E0
5040
5740
5540
5740
50C0
5020
8FE0
ENDCHAR
STARTCHAR uni3787
ENCODING 14215
BBX 11 12 0 -2
BITMAP
47C0
4540
47C0
FD40
57C0
5000
5FE0
5540
5480
5640
5420
8FE0
ENDCHAR
STARTCHAR uni3788
ENCODING 14216
BBX 11 12 0 -2
BITMAP
4080
47E0
4420
FFE0
5400
57E0
56A0
5BE0
52A0
5260
5020
8FE0
ENDCHAR
STARTCHAR uni3789
ENCODING 14217
BBX 11 12 0 -2
BITMAP
4240
47E0
4100
FBC0
5100
57E0
5200
53C0
5480
5BE0
5020
8FE0
ENDCHAR
STARTCHAR uni378A
ENCODING 14218
BBX 11 12 0 -2
BITMAP
AA00
FA00
2200
AFE0
FA80
0280
7280
0280
FA80
72A0
AAA0
6460
ENDCHAR
STARTCHAR uni378B
ENCODING 14219
BBX 11 12 0 -2
BITMAP
7FC0
4040
4040
7FC0
4000
5FC0
4840
4880
4500
4200
4D80
B060
ENDCHAR
STARTCHAR uni378C
ENCODING 14220
BBX 11 12 0 -2
BITMAP
7FC0
4040
4040
7FC0
4000
5F80
4100
4200
7FE0
4200
4200
8600
ENDCHAR
STARTCHAR uni378D
ENCODING 14221
BBX 11 12 0 -2
BITMAP
7FC0
4040
4040
7FC0
4400
4400
5F80
4480
4CA0
44A0
4AA0
9060
ENDCHAR
STARTCHAR uni378E
ENCODING 14222
BBX 11 12 0 -2
BITMAP
7FC0
4040
4040
7FC0
4000
5FC0
5240
5240
5FC0
5000
5020
8FE0
ENDCHAR
STARTCHAR uni378F
ENCODING 14223
BBX 11 12 0 -2
BITMAP
7FC0
4040
7FC0
4000
41C0
5E00
4200
7FC0
4180
4600
5C00
A3E0
ENDCHAR
STARTCHAR uni3790
ENCODING 14224
BBX 11 12 0 -2
BITMAP
7FC0
4040
4040
7FC0
4400
4200
5FC0
4000
4880
4480
4500
BFE0
ENDCHAR
STARTCHAR uni3791
ENCODING 14225
BBX 11 12 0 -2
BITMAP
7FC0
4040
7FC0
4000
4240
5280
4A00
4280
4A40
5200
4220
81E0
ENDCHAR
STARTCHAR uni3792
ENCODING 14226
BBX 10 12 0 -2
BITMAP
7FC0
4040
7FC0
4200
4400
5FC0
5040
5FC0
5040
5FC0
5040
9FC0
ENDCHAR
STARTCHAR uni3793
ENCODING 14227
BBX 11 12 0 -2
BITMAP
7FE0
4020
7FE0
5180
5E00
5020
4FE0
4840
4FC0
4840
4FC0
8840
ENDCHAR
STARTCHAR uni3794
ENCODING 14228
BBX 11 12 0 -2
BITMAP
7FE0
4020
7FE0
4800
4FC0
5480
4700
5A00
47E0
5840
4580
9E00
ENDCHAR
STARTCHAR uni3795
ENCODING 14229
BBX 11 12 0 -2
BITMAP
7FE0
4020
7FE0
4880
5040
6FA0
4880
4F80
4880
4F80
4880
8980
ENDCHAR
STARTCHAR uni3796
ENCODING 14230
BBX 11 12 0 -2
BITMAP
7FE0
4020
7FE0
4200
7FE0
4200
5FC0
5240
57C0
4A80
7260
8200
ENDCHAR
STARTCHAR uni3797
ENCODING 14231
BBX 11 12 0 -2
BITMAP
7FE0
4020
7FE0
4200
4240
7FE0
4200
6220
5740
4A80
5240
A620
ENDCHAR
STARTCHAR uni3798
ENCODING 14232
BBX 11 12 0 -2
BITMAP
7FE0
4020
7FE0
4000
5FC0
4400
4A20
7540
4980
5740
4520
9B00
ENDCHAR
STARTCHAR uni3799
ENCODING 14233
BBX 11 12 0 -2
BITMAP
7FE0
4020
7FE0
4180
4E00
43C0
5E20
41E0
5A00
4B40
5280
A660
ENDCHAR
STARTCHAR uni379A
ENCODING 14234
BBX 11 12 0 -2
BITMAP
7FE0
4020
7FE0
4180
5E00
4200
7FE0
4AC0
5240
5AC0
5240
9FC0
ENDCHAR
STARTCHAR uni379B
ENCODING 14235
BBX 11 12 0 -2
BITMAP
7FE0
4020
7FE0
4A40
5380
6A20
49E0
57C0
7440
57C0
5440
97C0
ENDCHAR
STARTCHAR uni379C
ENCODING 14236
BBX 11 12 0 -2
BITMAP
7FE0
4020
7FE0
4B80
5100
6FE0
5540
7200
5FE0
5440
5380
9440
ENDCHAR
STARTCHAR uni379D
ENCODING 14237
BBX 11 12 0 -2
BITMAP
0140
7FE0
4900
7F40
48A0
AD60
5A20
0000
3FC0
2040
3FC0
C000
ENDCHAR
STARTCHAR uni379E
ENCODING 14238
BBX 11 12 0 -2
BITMAP
7FE0
4020
7FE0
4540
4940
52A0
6400
4880
5AE0
6A80
4A80
8DE0
ENDCHAR
STARTCHAR uni379F
ENCODING 14239
BBX 11 12 0 -2
BITMAP
7FE0
4020
7FE0
4880
7FE0
4500
5FC0
5540
5AC0
7FE0
4500
B8E0
ENDCHAR
STARTCHAR uni37A0
ENCODING 14240
BBX 11 12 0 -2
BITMAP
7FE0
4020
7FE0
4200
7FE0
5540
4880
5FC0
6AA0
4F80
5240
A620
ENDCHAR
STARTCHAR uni37A1
ENCODING 14241
BBX 11 12 0 -2
BITMAP
7FE0
4020
7FE0
4880
5DC0
4000
5DC0
4880
7FE0
4A40
5980
AC60
ENDCHAR
STARTCHAR uni37A2
ENCODING 14242
BBX 11 12 0 -2
BITMAP
0400
0400
4440
4440
4440
4440
4440
7FC0
0400
0400
0400
FFE0
ENDCHAR
STARTCHAR uni37A3
ENCODING 14243
BBX 11 12 0 -2
BITMAP
0400
4440
4440
7FC0
0400
2080
4040
BFA0
0880
1080
2080
4300
ENDCHAR
STARTCHAR uni37A4
ENCODING 14244
BBX 11 12 0 -2
BITMAP
0400
4440
4440
7FC0
0000
0400
0400
0A00
0A00
1100
2080
C060
ENDCHAR
STARTCHAR uni37A5
ENCODING 14245
BBX 11 12 0 -2
BITMAP
0400
4440
4440
7FC0
0000
1800
0400
0400
0A00
1100
2080
C060
ENDCHAR
STARTCHAR uni37A6
ENCODING 14246
BBX 11 12 0 -2
BITMAP
2000
2380
2280
AA80
AA80
AA80
AA80
AA80
BA80
CAA0
04A0
0860
ENDCHAR
STARTCHAR uni37A7
ENCODING 14247
BBX 11 12 0 -2
BITMAP
0400
4440
4440
7FC0
0000
FF80
1080
1100
21E0
2020
4020
80C0
ENDCHAR
STARTCHAR uni37A8
ENCODING 14248
BBX 11 12 0 -2
BITMAP
2000
27C0
2040
A880
A900
A900
AFE0
A900
B900
C900
0100
0300
ENDCHAR
STARTCHAR uni37A9
ENCODING 14249
BBX 11 12 0 -2
BITMAP
0400
4440
4440
7FC0
0000
3F00
2100
2900
2500
2120
4120
80E0
ENDCHAR
STARTCHAR uni37AA
ENCODING 14250
BBX 11 12 0 -2
BITMAP
7F80
0080
3F80
0080
FFE0
0000
0400
4440
4440
4440
7FC0
0040
ENDCHAR
STARTCHAR uni37AB
ENCODING 14251
BBX 11 12 0 -2
BITMAP
0400
4440
4440
7FC0
0800
0400
FFC0
0180
0600
1800
6000
9FE0
ENDCHAR
STARTCHAR uni37AC
ENCODING 14252
BBX 11 12 0 -2
BITMAP
0400
4440
4440
7FC0
0000
0000
7FC0
0400
0400
0400
0400
FFE0
ENDCHAR
STARTCHAR uni37AD
ENCODING 14253
BBX 11 12 0 -2
BITMAP
0400
0400
FFE0
0A00
3180
C460
0400
4440
4440
4440
7FC0
0040
ENDCHAR
STARTCHAR uni37AE
ENCODING 14254
BBX 10 12 0 -2
BITMAP
0400
4440
4440
7FC0
1000
1000
3FC0
4040
8080
1900
0600
0100
ENDCHAR
STARTCHAR uni37AF
ENCODING 14255
BBX 10 12 1 -2
BITMAP
FF80
0080
0080
FF80
8000
8040
7FC0
0000
0800
8880
8880
FF80
ENDCHAR
STARTCHAR uni37B0
ENCODING 14256
BBX 11 12 0 -2
BITMAP
2200
2200
23E0
AC80
A880
A880
A880
AFE0
B880
C880
0080
0080
ENDCHAR
STARTCHAR uni37B1
ENCODING 14257
BBX 9 12 1 -2
BITMAP
0800
8880
8880
FF80
0000
FF80
8080
8080
FF80
8080
8080
FF80
ENDCHAR
STARTCHAR uni37B2
ENCODING 14258
BBX 11 12 0 -2
BITMAP
2080
2080
2080
ABE0
AAA0
AAA0
AAA0
ABE0
BAA0
C880
0080
0080
ENDCHAR
STARTCHAR uni37B3
ENCODING 14259
BBX 11 12 0 -2
BITMAP
2040
2240
2140
A840
AA40
A940
A840
A860
BBC0
C840
0040
0040
ENDCHAR
STARTCHAR uni37B4
ENCODING 14260
BBX 11 12 0 -2
BITMAP
2060
2380
2280
AA80
AA80
ABE0
AA80
AA80
BA80
CAA0
0360
0220
ENDCHAR
STARTCHAR uni37B5
ENCODING 14261
BBX 11 12 0 -2
BITMAP
0400
4440
7FC0
0800
0400
FFE0
1080
1080
0900
0600
1980
E060
ENDCHAR
STARTCHAR uni37B6
ENCODING 14262
BBX 11 12 0 -2
BITMAP
2100
2080
2000
AFE0
AA40
AA40
AA40
AA40
BA80
C900
0280
0460
ENDCHAR
STARTCHAR uni37B7
ENCODING 14263
BBX 11 12 0 -2
BITMAP
0400
4440
4440
7FC0
0400
0000
7FC0
0400
3F80
0400
0400
FFE0
ENDCHAR
STARTCHAR uni37B8
ENCODING 14264
BBX 11 12 0 -2
BITMAP
0400
4440
4440
7FC0
0000
FFE0
0200
0400
0C80
3440
C420
0400
ENDCHAR
STARTCHAR uni37B9
ENCODING 14265
BBX 11 12 0 -2
BITMAP
2000
23E0
2040
A840
ABC0
AAC0
AAC0
AAC0
BBC0
CA40
0040
01C0
ENDCHAR
STARTCHAR uni37BA
ENCODING 14266
BBX 11 12 0 -2
BITMAP
0400
4440
4440
7FC0
1000
3F80
4400
0400
FFE0
0A00
3180
C060
ENDCHAR
STARTCHAR uni37BB
ENCODING 14267
BBX 11 12 0 -2
BITMAP
4440
7FC0
0000
7FC0
4040
7FC0
0000
FFE0
2000
3FC0
0040
0180
ENDCHAR
STARTCHAR uni37BC
ENCODING 14268
BBX 11 12 0 -2
BITMAP
3F00
0200
0440
F680
1500
2480
CC60
0000
0400
4440
4440
7FC0
ENDCHAR
STARTCHAR uni37BD
ENCODING 14269
BBX 11 12 0 -2
BITMAP
2080
20A0
2080
ABE0
AA80
AAA0
AAA0
AAC0
BBC0
CAA0
0160
0220
ENDCHAR
STARTCHAR uni37BE
ENCODING 14270
BBX 11 12 0 -2
BITMAP
2000
23E0
2220
AA20
ABE0
AA00
AAA0
AAA0
BAC0
CA80
02A0
0460
ENDCHAR
STARTCHAR uni37BF
ENCODING 14271
BBX 11 12 0 -2
BITMAP
0400
4440
7FC0
0000
0400
7FC0
0400
FFE0
2080
1100
0E00
F1E0
ENDCHAR
STARTCHAR uni37C0
ENCODING 14272
BBX 11 12 0 -2
BITMAP
0380
3C00
0400
FFE0
1500
2480
C460
0000
0400
4440
4440
7FC0
ENDCHAR
STARTCHAR uni37C1
ENCODING 14273
BBX 11 12 0 -2
BITMAP
2000
23E0
2200
AAE0
AA40
AA40
AA40
ABE0
BA40
C440
0440
0840
ENDCHAR
STARTCHAR uni37C2
ENCODING 14274
BBX 11 12 0 -2
BITMAP
2000
23C0
2240
AB40
AAC0
AFE0
AA40
AB40
BAC0
CBE0
0040
0180
ENDCHAR
STARTCHAR uni37C3
ENCODING 14275
BBX 11 12 0 -2
BITMAP
23E0
2020
23A0
A820
ABA0
AAA0
AAA0
AAA0
BBA0
CA20
0020
00C0
ENDCHAR
STARTCHAR uni37C4
ENCODING 14276
BBX 11 12 0 -2
BITMAP
2220
2140
23E0
A880
A880
ABE0
A880
A880
BBE0
C880
0080
0080
ENDCHAR
STARTCHAR uni37C5
ENCODING 14277
BBX 11 12 0 -2
BITMAP
2280
2920
2920
AAA0
A820
AFE0
AA80
AA80
BA80
CAA0
04A0
0860
ENDCHAR
STARTCHAR uni37C6
ENCODING 14278
BBX 11 12 0 -2
BITMAP
2180
22A0
26C0
AA80
ABA0
AAA0
AA60
A900
AFE0
B900
C900
0100
ENDCHAR
STARTCHAR uni37C7
ENCODING 14279
BBX 11 12 0 -2
BITMAP
2100
2100
2540
A540
A540
ABA0
A900
A900
BBC0
C900
0100
0FE0
ENDCHAR
STARTCHAR uni37C8
ENCODING 14280
BBX 11 12 0 -2
BITMAP
2140
2120
2100
AFE0
A900
AD80
ABA0
AB40
AD40
B920
C900
0300
ENDCHAR
STARTCHAR uni37C9
ENCODING 14281
BBX 11 12 0 -2
BITMAP
2100
2080
27E0
AC20
AA80
ABC0
AC80
A880
AFE0
B880
C880
0080
ENDCHAR
STARTCHAR uni37CA
ENCODING 14282
BBX 11 12 0 -2
BITMAP
2060
2380
2120
AAA0
A940
ABE0
A840
A880
ABE0
B880
C880
0180
ENDCHAR
STARTCHAR uni37CB
ENCODING 14283
BBX 11 12 0 -2
BITMAP
2840
2480
2000
AFC0
A840
A840
AFC0
A480
B480
C480
08A0
1060
ENDCHAR
STARTCHAR uni37CC
ENCODING 14284
BBX 11 12 0 -2
BITMAP
2280
2240
27E0
AAA0
AAC0
AAA0
AAC0
AAA0
BAC0
C4A0
05A0
0A60
ENDCHAR
STARTCHAR uni37CD
ENCODING 14285
BBX 11 12 0 -2
BITMAP
2100
2080
23E0
AA20
ABE0
AA20
ABE0
AA80
BAA0
CA40
0340
0220
ENDCHAR
STARTCHAR uni37CE
ENCODING 14286
BBX 11 12 0 -2
BITMAP
2060
2780
2120
ACA0
AA40
A900
AFE0
AA40
BA40
C980
0240
0420
ENDCHAR
STARTCHAR uni37CF
ENCODING 14287
BBX 11 12 0 -2
BITMAP
2080
2080
2140
AA20
AC80
ABC0
A840
A880
ABE0
BA20
CBE0
0220
ENDCHAR
STARTCHAR uni37D0
ENCODING 14288
BBX 11 12 0 -2
BITMAP
2240
2240
27E0
AA40
A900
A880
AFE0
AA00
AA00
BA00
CA00
03C0
ENDCHAR
STARTCHAR uni37D1
ENCODING 14289
BBX 11 12 0 -2
BITMAP
2080
23E0
2080
ABE0
AA20
A9C0
A840
A880
BBE0
C880
0080
0180
ENDCHAR
STARTCHAR uni37D2
ENCODING 14290
BBX 11 12 0 -2
BITMAP
4440
7FC0
0000
7FC0
0840
FFE0
1040
7FC0
2000
7FC0
A040
3FC0
ENDCHAR
STARTCHAR uni37D3
ENCODING 14291
BBX 11 12 0 -2
BITMAP
2240
2180
2240
A900
AFE0
A900
AA80
AFE0
AAA0
BAA0
CAE0
0080
ENDCHAR
STARTCHAR uni37D4
ENCODING 14292
BBX 11 12 0 -2
BITMAP
4440
7FC0
0400
0A00
3180
C460
3F80
0100
7FC0
4040
7FC0
4040
ENDCHAR
STARTCHAR uni37D5
ENCODING 14293
BBX 10 12 1 -2
BITMAP
0800
8880
FF80
0000
0480
E280
A880
A480
A0C0
EF80
A080
0080
ENDCHAR
STARTCHAR uni37D6
ENCODING 14294
BBX 11 12 0 -2
BITMAP
4440
7FC0
0000
7FC0
0400
3F80
0400
7FC0
1100
FFE0
2100
4100
ENDCHAR
STARTCHAR uni37D7
ENCODING 14295
BBX 11 12 0 -2
BITMAP
0200
0A80
AAA0
AAA0
C660
8220
FBA0
AAA0
AAA0
DBA0
8220
FFE0
ENDCHAR
STARTCHAR uni37D8
ENCODING 14296
BBX 11 12 0 -2
BITMAP
23E0
2220
22A0
ABE0
AAA0
ABE0
AA20
ABE0
BB60
CBE0
0220
04E0
ENDCHAR
STARTCHAR uni37D9
ENCODING 14297
BBX 11 12 0 -2
BITMAP
2240
2240
27E0
AA40
AFE0
A800
ABC0
AA40
BBC0
CA40
03C0
0240
ENDCHAR
STARTCHAR uni37DA
ENCODING 14298
BBX 11 12 0 -2
BITMAP
2100
2FE0
F100
2FC0
6440
B280
2100
2280
2C60
4440
4440
7FC0
ENDCHAR
STARTCHAR uni37DB
ENCODING 14299
BBX 11 12 0 -2
BITMAP
0400
4440
7FC0
0000
2440
FFE0
2440
3440
E7C0
2440
2440
67C0
ENDCHAR
STARTCHAR uni37DC
ENCODING 14300
BBX 11 12 0 -2
BITMAP
0400
4440
7FC0
0200
F200
17E0
F920
8140
F540
1520
1920
6300
ENDCHAR
STARTCHAR uni37DD
ENCODING 14301
BBX 11 12 0 -2
BITMAP
2080
23E0
2000
AA20
A940
ABE0
A800
ABE0
BA20
CA20
03E0
0220
ENDCHAR
STARTCHAR uni37DE
ENCODING 14302
BBX 11 12 0 -2
BITMAP
2140
21E0
2740
A8A0
A960
AA00
A940
A9E0
AF00
B940
C8A0
0360
ENDCHAR
STARTCHAR uni37DF
ENCODING 14303
BBX 11 12 0 -2
BITMAP
4440
7FC0
1100
7FC0
1100
FFE0
2080
7F40
A120
2300
2080
1F80
ENDCHAR
STARTCHAR uni37E0
ENCODING 14304
BBX 11 12 0 -2
BITMAP
2000
2FE0
2820
AC60
AAA0
AFE0
A920
AD60
BD60
CFE0
0820
0860
ENDCHAR
STARTCHAR uni37E1
ENCODING 14305
BBX 11 12 0 -2
BITMAP
4440
7FC0
0000
2480
7FC0
0800
FFE0
2080
5F40
9120
1340
0FC0
ENDCHAR
STARTCHAR uni37E2
ENCODING 14306
BBX 11 12 0 -2
BITMAP
0400
4440
7FC0
0400
7FC0
1100
2080
FFE0
0080
7C80
4480
7D80
ENDCHAR
STARTCHAR uni37E3
ENCODING 14307
BBX 11 12 0 -2
BITMAP
2400
2540
2540
AF40
A520
A6A0
AD80
B480
B500
C540
05C0
0440
ENDCHAR
STARTCHAR uni37E4
ENCODING 14308
BBX 11 12 0 -2
BITMAP
4440
7FC0
0000
7F80
0080
3F80
0080
FFE0
0400
5640
2580
CC60
ENDCHAR
STARTCHAR uni37E5
ENCODING 14309
BBX 11 12 0 -2
BITMAP
4440
7FC0
2080
7FC0
0800
FFE0
2480
5940
8620
3880
0300
7C00
ENDCHAR
STARTCHAR uni37E6
ENCODING 14310
BBX 11 12 0 -2
BITMAP
0400
4440
7FC0
0000
FFE0
8420
7FC0
2480
3F80
2480
FFE0
0400
ENDCHAR
STARTCHAR uni37E7
ENCODING 14311
BBX 11 12 0 -2
BITMAP
4440
7FC0
0000
7BC0
4A40
7BC0
0000
FFE0
2000
3FC0
0040
0180
ENDCHAR
STARTCHAR uni37E8
ENCODING 14312
BBX 11 12 0 -2
BITMAP
2100
2920
2920
AFE0
A000
AFE0
A100
AFE0
BAA0
CAA0
0AA0
0860
ENDCHAR
STARTCHAR uni37E9
ENCODING 14313
BBX 11 12 0 -2
BITMAP
F900
89E0
FA40
9140
FD40
9080
9540
CA20
0400
4440
4440
7FC0
ENDCHAR
STARTCHAR uni37EA
ENCODING 14314
BBX 11 12 0 -2
BITMAP
23E0
22A0
23E0
AAA0
ABE0
A800
AFE0
AA80
AAA0
BA40
CB20
0200
ENDCHAR
STARTCHAR uni37EB
ENCODING 14315
BBX 11 12 0 -2
BITMAP
2100
27C0
2440
A7C0
A440
A7C0
A100
ADA0
B540
C540
0920
0300
ENDCHAR
STARTCHAR uni37EC
ENCODING 14316
BBX 11 12 0 -2
BITMAP
4440
7FC0
0000
75C0
4440
75C0
4440
7FC0
2080
1100
0E00
F1E0
ENDCHAR
STARTCHAR uni37ED
ENCODING 14317
BBX 11 12 0 -2
BITMAP
27C0
2440
27C0
AC80
AFC0
ACA0
AE60
ABC0
AA40
BBC0
CA40
03C0
ENDCHAR
STARTCHAR uni37EE
ENCODING 14318
BBX 11 12 0 -2
BITMAP
2100
2FE0
2820
A280
AC40
A900
A940
AFE0
B900
CA80
0440
0820
ENDCHAR
STARTCHAR uni37EF
ENCODING 14319
BBX 11 12 0 -2
BITMAP
4440
7FC0
0400
FFE0
9020
3F80
5080
0F00
F0E0
3F80
2080
3F80
ENDCHAR
STARTCHAR uni37F0
ENCODING 14320
BBX 11 12 0 -2
BITMAP
27E0
2420
23C0
AA40
ABC0
AA40
ABC0
A880
BFE0
C800
0240
0420
ENDCHAR
STARTCHAR uni37F1
ENCODING 14321
BBX 11 12 0 -2
BITMAP
2440
2280
2FE0
A900
A900
AFC0
A900
A900
BFE0
C000
0AA0
0AA0
ENDCHAR
STARTCHAR uni37F2
ENCODING 14322
BBX 11 12 0 -2
BITMAP
2000
23E0
2240
AAE0
AAA0
AAE0
AAA0
AAE0
BA40
CAE0
0340
04C0
ENDCHAR
STARTCHAR uni37F3
ENCODING 14323
BBX 11 12 0 -2
BITMAP
2FE0
2280
2FE0
AAA0
AAA0
AFE0
A900
AFE0
BB80
C540
0920
0100
ENDCHAR
STARTCHAR uni37F4
ENCODING 14324
BBX 11 12 0 -2
BITMAP
2080
2100
23E0
AAA0
ABE0
AAA0
ABE0
A940
B9A0
CAE0
0280
0460
ENDCHAR
STARTCHAR uni37F5
ENCODING 14325
BBX 11 12 0 -2
BITMAP
4440
7FC0
0000
7FC0
4A40
7FC0
0000
FFE0
0400
27C0
2400
FFE0
ENDCHAR
STARTCHAR uni37F6
ENCODING 14326
BBX 11 12 0 -2
BITMAP
4440
7FC0
0000
7FE0
4400
5FC0
5040
5FC0
5040
5FC0
4A80
9640
ENDCHAR
STARTCHAR uni37F7
ENCODING 14327
BBX 11 12 0 -2
BITMAP
2240
27E0
2240
A980
AA40
AC20
ABC0
A800
BBC0
CA40
03C0
0240
ENDCHAR
STARTCHAR uni37F8
ENCODING 14328
BBX 11 12 0 -2
BITMAP
2080
23E0
2220
ABE0
AA20
ABE0
A880
ABE0
B940
CAA0
01C0
0080
ENDCHAR
STARTCHAR uni37F9
ENCODING 14329
BBX 11 12 0 -2
BITMAP
2080
3F00
2AE0
AAA0
AEA0
AAA0
AAA0
AEA0
BAA0
CBC0
1E80
0280
ENDCHAR
STARTCHAR uni37FA
ENCODING 14330
BBX 11 12 0 -2
BITMAP
0400
4440
7FC0
0400
3F80
2480
FFE0
2480
FFE0
3100
0E00
F1C0
ENDCHAR
STARTCHAR uni37FB
ENCODING 14331
BBX 11 12 0 -2
BITMAP
1000
FE60
5580
7D00
55E0
7D40
1140
FD40
1240
0400
4440
7FC0
ENDCHAR
STARTCHAR uni37FC
ENCODING 14332
BBX 11 12 0 -2
BITMAP
4440
7FC0
1000
FD00
11E0
7A40
1140
FD40
2140
3C80
4540
8E20
ENDCHAR
STARTCHAR uni37FD
ENCODING 14333
BBX 11 12 0 -2
BITMAP
2FE0
2280
2FE0
AAA0
AFE0
A800
ABC0
A800
BFE0
C900
0540
0B20
ENDCHAR
STARTCHAR uni37FE
ENCODING 14334
BBX 11 12 0 -2
BITMAP
2100
2FE0
2900
ABC0
A940
AFE0
A940
AFC0
BD40
CFC0
1540
04C0
ENDCHAR
STARTCHAR uni37FF
ENCODING 14335
BBX 11 12 0 -2
BITMAP
2240
27E0
2240
A920
AFE0
AA40
AC20
AA40
AFE0
BA40
CA40
0440
ENDCHAR
STARTCHAR uni3800
ENCODING 14336
BBX 11 12 0 -2
BITMAP
0800
7F80
4080
7F80
4080
7FE0
0020
AAC0
0400
4440
4440
7FC0
ENDCHAR
STARTCHAR uni3801
ENCODING 14337
BBX 11 12 0 -2
BITMAP
2280
27C0
2440
AAA0
AEE0
A300
ACE0
A200
BC80
C320
0CC0
0300
ENDCHAR
STARTCHAR uni3802
ENCODING 14338
BBX 11 12 0 -2
BITMAP
2480
2E80
2480
AEE0
A520
BEA0
A8A0
AEA0
BAA0
CA40
0AA0
1720
ENDCHAR
STARTCHAR uni3803
ENCODING 14339
BBX 11 12 0 -2
BITMAP
2100
2FE0
2440
A280
AFE0
A920
ABA0
A920
BBA0
CAA0
0BA0
0860
ENDCHAR
STARTCHAR uni3804
ENCODING 14340
BBX 11 12 0 -2
BITMAP
4440
7FC0
0000
F3E0
9120
50A0
9520
7FC0
4040
7FC0
4040
7FC0
ENDCHAR
STARTCHAR uni3805
ENCODING 14341
BBX 11 12 0 -2
BITMAP
0400
4440
7FC0
4200
97E0
2C40
67C0
A440
27C0
2C40
2380
2C60
ENDCHAR
STARTCHAR uni3806
ENCODING 14342
BBX 11 12 0 -2
BITMAP
2EE0
2AA0
2EE0
A000
AFE0
A920
AFE0
A920
BFE0
C100
0FE0
0100
ENDCHAR
STARTCHAR uni3807
ENCODING 14343
BBX 11 12 0 -2
BITMAP
0400
4440
7FC0
1280
FA40
07C0
7A80
4A80
7A80
12A0
5AA0
B460
ENDCHAR
STARTCHAR uni3808
ENCODING 14344
BBX 11 12 0 -2
BITMAP
2EE0
2AA0
2EE0
AAA0
AEE0
A820
ABA0
A920
BBA0
C920
0BA0
0860
ENDCHAR
STARTCHAR uni3809
ENCODING 14345
BBX 11 12 0 -2
BITMAP
2080
23E0
2140
AFE0
AAA0
ABE0
AAA0
ABE0
B880
CBE0
0080
07E0
ENDCHAR
STARTCHAR uni380A
ENCODING 14346
BBX 11 12 0 -2
BITMAP
21C0
2100
2FE0
A920
A9C0
AF20
A8E0
AA80
BAA0
CEC0
0A80
17E0
ENDCHAR
ENDFONT
